<?xml version="1.0" standalone="no"?>
<!DOCTYPE svg PUBLIC "-//W3C//DTD SVG 20010904//EN"
 "http://www.w3.org/TR/2001/REC-SVG-20010904/DTD/svg10.dtd">
<svg version="1.0" xmlns="http://www.w3.org/2000/svg"
 width="3840.000000pt" height="2160.000000pt" viewBox="0 0 3840.000000 2160.000000"
 preserveAspectRatio="xMidYMid meet">

<g transform="translate(0.000000,2160.000000) scale(0.100000,-0.100000)"
fill="#000000" stroke="none">
<path d="M160 21585 c0 -13 4 -14 23 -4 33 17 33 19 4 19 -18 0 -27 -5 -27
-15z"/>
<path d="M1210 21580 l-25 -20 32 0 c37 0 85 19 77 31 -9 16 -58 9 -84 -11z"/>
<path d="M1390 21591 c0 -4 -16 -25 -36 -47 -34 -36 -80 -122 -70 -131 2 -3
17 7 34 21 16 15 37 33 48 41 17 12 17 17 6 37 -12 22 -12 22 9 -2 l21 -25 21
25 c13 16 18 18 14 8 -6 -17 12 -26 25 -13 7 8 -28 76 -44 87 -17 10 -28 10
-28 -1z"/>
<path d="M2870 21556 c49 -68 94 -108 114 -100 9 4 15 13 12 23 -2 9 -8 40
-11 69 l-7 52 -70 0 -69 0 31 -44z"/>
<path d="M3506 21586 c3 -8 20 -21 38 -30 18 -9 39 -22 46 -31 7 -8 21 -15 32
-15 15 0 18 4 12 23 -21 68 -20 67 -78 67 -44 0 -54 -3 -50 -14z"/>
<path d="M3757 21568 c10 -83 14 -96 33 -101 16 -4 20 -14 20 -50 0 -24 3 -65
6 -90 l6 -45 42 17 c22 10 80 27 128 39 48 12 113 32 145 43 l57 22 -44 13
c-24 7 -55 24 -69 38 -14 14 -39 36 -55 49 -25 20 -27 26 -17 45 11 21 16 21
119 16 108 -5 162 2 170 24 3 9 -62 12 -270 12 l-275 0 4 -32z"/>
<path d="M6143 21578 c-3 -36 -78 -96 -142 -114 -106 -29 -107 -28 39 -74 74
-23 147 -49 162 -56 l27 -14 6 58 c13 122 16 132 36 132 10 0 19 6 19 14 0 7
3 28 6 45 l7 31 -80 0 c-75 0 -79 -1 -80 -22z"/>
<path d="M6430 21581 c-5 -11 -10 -24 -10 -30 0 -17 32 -13 54 8 12 10 35 23
51 29 28 10 26 10 -27 11 -47 1 -59 -3 -68 -18z"/>
<path d="M7076 21573 c-3 -16 -10 -44 -15 -65 -7 -31 -6 -37 10 -41 22 -6 102
61 125 104 l15 29 -64 0 c-62 0 -65 -1 -71 -27z"/>
<path d="M8430 21580 l-25 -20 32 0 c37 0 85 19 77 31 -9 16 -58 9 -84 -11z"/>
<path d="M8610 21591 c0 -4 -16 -25 -36 -47 -34 -36 -80 -122 -70 -131 2 -3
17 7 34 21 16 15 37 33 48 41 17 12 17 17 6 37 -12 22 -12 22 9 -2 l21 -25 21
25 c13 16 18 18 14 8 -6 -17 12 -26 25 -13 7 8 -28 76 -44 87 -17 10 -28 10
-28 -1z"/>
<path d="M10090 21556 c49 -68 94 -108 114 -100 9 4 15 13 12 23 -2 9 -8 40
-11 69 l-7 52 -70 0 -69 0 31 -44z"/>
<path d="M10726 21586 c3 -8 20 -21 38 -30 18 -9 39 -22 46 -31 7 -8 21 -15
32 -15 15 0 18 4 12 23 -21 68 -20 67 -78 67 -44 0 -54 -3 -50 -14z"/>
<path d="M10977 21568 c10 -83 14 -96 33 -101 16 -4 20 -14 20 -50 0 -24 3
-65 6 -90 l6 -45 42 17 c22 10 80 27 128 39 48 12 113 32 145 43 l57 22 -44
13 c-24 7 -55 24 -69 38 -14 14 -39 36 -55 49 -25 20 -27 26 -17 45 11 21 16
21 119 16 108 -5 162 2 170 24 3 9 -62 12 -270 12 l-275 0 4 -32z"/>
<path d="M13363 21578 c-3 -36 -78 -96 -142 -114 -106 -29 -107 -28 39 -74 74
-23 147 -49 162 -56 l27 -14 6 58 c13 122 16 132 36 132 10 0 19 6 19 14 0 7
3 28 6 45 l7 31 -80 0 c-75 0 -79 -1 -80 -22z"/>
<path d="M13650 21581 c-5 -11 -10 -24 -10 -30 0 -17 32 -13 54 8 12 10 35 23
51 29 28 10 26 10 -27 11 -47 1 -59 -3 -68 -18z"/>
<path d="M14288 21538 c-8 -35 -13 -65 -11 -67 2 -3 20 11 41 31 20 19 51 44
69 54 56 31 50 44 -21 44 l-63 0 -15 -62z"/>
<path d="M15470 21580 l-25 -20 32 0 c37 0 85 19 77 31 -9 16 -58 9 -84 -11z"/>
<path d="M15650 21591 c0 -4 -16 -25 -36 -47 -34 -36 -80 -122 -70 -131 2 -3
17 7 34 21 16 15 37 33 48 41 17 12 17 17 6 37 -12 22 -12 22 9 -2 l21 -25 21
25 c13 16 18 18 14 8 -6 -17 12 -26 25 -13 7 8 -28 76 -44 87 -17 10 -28 10
-28 -1z"/>
<path d="M17130 21556 c49 -68 94 -108 114 -100 9 4 15 13 12 23 -2 9 -8 40
-11 69 l-7 52 -70 0 -69 0 31 -44z"/>
<path d="M17766 21586 c3 -8 20 -21 38 -30 18 -9 39 -22 46 -31 7 -8 21 -15
32 -15 15 0 18 4 12 23 -21 68 -20 67 -78 67 -44 0 -54 -3 -50 -14z"/>
<path d="M18017 21568 c10 -83 14 -96 33 -101 16 -4 20 -14 20 -50 0 -24 3
-65 6 -90 l6 -45 42 17 c22 10 80 27 128 39 48 12 113 32 145 43 l57 22 -44
13 c-24 7 -55 24 -69 38 -14 14 -39 36 -55 49 -25 20 -27 26 -17 45 11 21 16
21 119 16 108 -5 162 2 170 24 3 9 -62 12 -270 12 l-275 0 4 -32z"/>
<path d="M20403 21578 c-3 -36 -78 -96 -142 -114 -106 -29 -107 -28 39 -74 74
-23 147 -49 162 -56 l27 -14 6 58 c13 122 16 132 36 132 10 0 19 6 19 14 0 7
3 28 6 45 l7 31 -80 0 c-75 0 -79 -1 -80 -22z"/>
<path d="M20690 21581 c-5 -11 -10 -24 -10 -30 0 -17 32 -13 54 8 12 10 35 23
51 29 28 10 26 10 -27 11 -47 1 -59 -3 -68 -18z"/>
<path d="M21336 21573 c-3 -16 -10 -44 -15 -65 -7 -31 -6 -37 10 -41 22 -6
102 61 125 104 l15 29 -64 0 c-62 0 -65 -1 -71 -27z"/>
<path d="M22930 21580 l-25 -20 32 0 c37 0 85 19 77 31 -9 16 -58 9 -84 -11z"/>
<path d="M23110 21591 c0 -4 -16 -26 -37 -47 -35 -38 -80 -121 -70 -131 3 -2
18 7 35 21 16 15 37 33 48 41 17 12 17 17 6 37 -12 22 -12 22 9 -2 l21 -25 21
25 c13 16 18 18 14 8 -6 -17 12 -26 25 -13 7 8 -28 76 -44 87 -17 10 -28 10
-28 -1z"/>
<path d="M24590 21556 c49 -68 94 -108 114 -100 9 4 15 13 12 23 -2 9 -8 40
-11 69 l-7 52 -70 0 -69 0 31 -44z"/>
<path d="M25226 21586 c3 -8 20 -21 38 -30 18 -9 39 -22 46 -31 7 -8 21 -15
32 -15 15 0 18 4 12 23 -21 68 -20 67 -78 67 -44 0 -54 -3 -50 -14z"/>
<path d="M25477 21568 c10 -83 14 -96 33 -101 16 -4 20 -14 20 -50 0 -24 3
-65 6 -90 l6 -45 42 17 c22 10 80 27 128 39 48 12 113 32 145 43 l57 22 -44
13 c-24 7 -55 24 -69 38 -14 14 -39 36 -55 49 -25 20 -27 26 -17 45 11 21 16
21 119 16 108 -5 162 2 170 24 3 9 -62 12 -270 12 l-275 0 4 -32z"/>
<path d="M27863 21578 c-3 -36 -78 -96 -142 -114 -106 -29 -107 -28 39 -74 74
-23 147 -49 162 -56 l27 -14 6 58 c13 122 16 132 36 132 10 0 19 6 19 14 0 7
3 28 6 45 l7 31 -80 0 c-75 0 -79 -1 -80 -22z"/>
<path d="M28150 21581 c-5 -11 -10 -24 -10 -30 0 -17 32 -13 54 8 12 10 35 23
51 29 28 10 26 10 -27 11 -47 1 -59 -3 -68 -18z"/>
<path d="M28788 21538 c-8 -35 -13 -65 -11 -67 2 -3 20 11 41 31 20 19 51 44
69 54 56 31 50 44 -21 44 l-63 0 -15 -62z"/>
<path d="M29970 21580 l-25 -20 32 0 c37 0 85 19 77 31 -9 16 -58 9 -84 -11z"/>
<path d="M30150 21591 c0 -4 -16 -26 -37 -47 -35 -38 -80 -121 -70 -131 3 -2
18 7 35 21 16 15 37 33 48 41 17 12 17 17 6 37 -12 22 -12 22 9 -2 l21 -25 21
25 c13 16 18 18 14 8 -6 -17 12 -26 25 -13 7 8 -28 76 -44 87 -17 10 -28 10
-28 -1z"/>
<path d="M31630 21556 c49 -68 94 -108 114 -100 9 4 15 13 12 23 -2 9 -8 40
-11 69 l-7 52 -70 0 -69 0 31 -44z"/>
<path d="M32266 21586 c3 -8 20 -21 38 -30 18 -9 39 -22 46 -31 7 -8 21 -15
32 -15 15 0 18 4 12 23 -21 68 -20 67 -78 67 -44 0 -54 -3 -50 -14z"/>
<path d="M32517 21568 c10 -83 14 -96 33 -101 16 -4 20 -14 20 -50 0 -24 3
-65 6 -90 l6 -45 42 17 c22 10 80 27 128 39 48 12 113 32 145 43 l57 22 -44
13 c-24 7 -55 24 -69 38 -14 14 -39 36 -55 49 -25 20 -27 26 -17 45 11 21 16
21 119 16 108 -5 162 2 170 24 3 9 -62 12 -270 12 l-275 0 4 -32z"/>
<path d="M34903 21578 c-3 -36 -78 -96 -142 -114 -106 -29 -107 -28 39 -74 74
-23 147 -49 162 -56 l27 -14 6 58 c13 122 16 132 36 132 10 0 19 6 19 14 0 7
3 28 6 45 l7 31 -80 0 c-75 0 -79 -1 -80 -22z"/>
<path d="M35190 21581 c-5 -11 -10 -24 -10 -30 0 -17 32 -13 54 8 12 10 35 23
51 29 28 10 26 10 -27 11 -47 1 -59 -3 -68 -18z"/>
<path d="M35836 21573 c-3 -16 -10 -44 -15 -65 -7 -31 -6 -37 10 -41 22 -6
102 61 125 104 l15 29 -64 0 c-62 0 -65 -1 -71 -27z"/>
<path d="M2690 21582 c0 -7 7 -20 15 -28 19 -20 20 -4 0 22 -9 12 -14 14 -15
6z"/>
<path d="M7350 21575 c-8 -9 -8 -15 -2 -15 12 0 26 19 19 26 -2 2 -10 -2 -17
-11z"/>
<path d="M9910 21582 c0 -7 7 -20 15 -28 19 -20 20 -4 0 22 -9 12 -14 14 -15
6z"/>
<path d="M16950 21582 c0 -7 7 -20 15 -28 19 -20 20 -4 0 22 -9 12 -14 14 -15
6z"/>
<path d="M21612 21578 c-6 -6 -12 -18 -12 -26 0 -10 3 -10 16 2 8 9 14 21 12
26 -2 7 -8 6 -16 -2z"/>
<path d="M24410 21582 c0 -7 7 -20 15 -28 19 -20 20 -4 0 22 -9 12 -14 14 -15
6z"/>
<path d="M31450 21582 c0 -7 7 -20 15 -28 19 -20 20 -4 0 22 -9 12 -14 14 -15
6z"/>
<path d="M36112 21578 c-6 -6 -12 -18 -12 -26 0 -10 3 -10 16 2 8 9 14 21 12
26 -2 7 -8 6 -16 -2z"/>
<path d="M1270 21557 l-35 -22 28 -3 c15 -2 27 -8 27 -13 0 -17 19 1 35 32 14
27 14 29 -2 29 -10 0 -34 -10 -53 -23z"/>
<path d="M8490 21557 l-35 -22 28 -3 c15 -2 27 -8 27 -13 0 -17 19 1 35 32 14
27 14 29 -2 29 -10 0 -34 -10 -53 -23z"/>
<path d="M15530 21557 l-35 -22 28 -3 c15 -2 27 -8 27 -13 0 -17 19 1 35 32
14 27 14 29 -2 29 -10 0 -34 -10 -53 -23z"/>
<path d="M22990 21557 l-35 -22 28 -3 c15 -2 27 -8 27 -13 0 -17 19 1 35 32
14 27 14 29 -2 29 -10 0 -34 -10 -53 -23z"/>
<path d="M30030 21557 l-35 -22 28 -3 c15 -2 27 -8 27 -13 0 -17 19 1 35 32
14 27 14 29 -2 29 -10 0 -34 -10 -53 -23z"/>
<path d="M38375 21536 c-10 -6 -26 -19 -35 -29 -8 -9 -37 -26 -65 -36 l-50
-19 30 -12 c65 -26 138 -50 142 -46 2 2 3 37 1 78 -3 71 -4 75 -23 64z"/>
<path d="M983 21443 c-23 -9 -14 -33 12 -33 17 0 23 -4 19 -15 -4 -8 -10 -12
-15 -9 -5 2 -20 -1 -34 -8 -25 -14 -25 -14 16 -15 23 -1 46 -8 50 -15 6 -9 15
-6 36 13 15 15 36 31 47 36 16 9 13 13 -26 32 -42 20 -79 25 -105 14z"/>
<path d="M8203 21443 c-23 -9 -14 -33 12 -33 17 0 23 -4 19 -15 -4 -8 -10 -12
-15 -9 -5 2 -20 -1 -34 -8 -25 -14 -25 -14 16 -15 23 -1 46 -8 50 -15 6 -9 15
-6 36 13 15 15 36 31 47 36 16 9 13 13 -26 32 -42 20 -79 25 -105 14z"/>
<path d="M15243 21443 c-23 -9 -14 -33 12 -33 17 0 23 -4 19 -15 -4 -8 -10
-12 -15 -9 -5 2 -20 -1 -34 -8 -25 -14 -25 -14 16 -15 23 -1 46 -8 50 -15 6
-9 15 -6 36 13 15 15 36 31 47 36 16 9 13 13 -26 32 -42 20 -79 25 -105 14z"/>
<path d="M22703 21443 c-23 -9 -14 -33 12 -33 17 0 23 -4 19 -15 -4 -8 -10
-12 -15 -9 -5 2 -20 -1 -34 -8 -25 -14 -25 -14 16 -15 23 -1 46 -8 50 -15 6
-9 15 -6 36 13 15 15 36 31 47 36 16 9 13 13 -26 32 -42 20 -79 25 -105 14z"/>
<path d="M29743 21443 c-23 -9 -14 -33 12 -33 17 0 23 -4 19 -15 -4 -8 -10
-12 -15 -9 -5 2 -20 -1 -34 -8 -25 -14 -25 -14 16 -15 23 -1 46 -8 50 -15 6
-9 15 -6 36 13 15 15 36 31 47 36 16 9 13 13 -26 32 -42 20 -79 25 -105 14z"/>
<path d="M1089 21361 c-34 -34 -37 -51 -9 -51 13 0 18 -5 14 -15 -5 -12 4 -15
44 -15 41 0 52 4 57 19 3 10 14 26 25 36 20 18 19 18 -21 37 -56 25 -76 23
-110 -11z"/>
<path d="M8309 21361 c-34 -34 -37 -51 -9 -51 13 0 18 -5 14 -15 -5 -12 4 -15
44 -15 41 0 52 4 57 19 3 10 14 26 25 36 20 18 19 18 -21 37 -56 25 -76 23
-110 -11z"/>
<path d="M15349 21361 c-34 -34 -37 -51 -9 -51 13 0 18 -5 14 -15 -5 -12 4
-15 44 -15 41 0 52 4 57 19 3 10 14 26 25 36 20 18 19 18 -21 37 -56 25 -76
23 -110 -11z"/>
<path d="M22809 21361 c-34 -34 -37 -51 -9 -51 13 0 18 -5 14 -15 -5 -12 4
-15 44 -15 41 0 52 4 57 19 3 10 14 26 25 36 20 18 19 18 -21 37 -56 25 -76
23 -110 -11z"/>
<path d="M29849 21361 c-34 -34 -37 -51 -9 -51 13 0 18 -5 14 -15 -5 -12 4
-15 44 -15 41 0 52 4 57 19 3 10 14 26 25 36 20 18 19 18 -21 37 -56 25 -76
23 -110 -11z"/>
<path d="M6350 21311 c-25 -85 -31 -108 -33 -136 -1 -11 -6 -23 -12 -27 -6 -5
-3 -8 6 -8 14 0 25 23 34 75 1 6 7 23 13 38 7 16 12 34 12 40 0 7 4 6 9 -2 17
-27 24 34 8 65 l-15 28 -22 -73z"/>
<path d="M13570 21311 c-25 -85 -31 -108 -33 -136 -1 -11 -6 -23 -12 -27 -6
-5 -3 -8 6 -8 14 0 25 23 34 75 1 6 7 23 13 38 7 16 12 34 12 40 0 7 4 6 9 -2
17 -27 24 34 8 65 l-15 28 -22 -73z"/>
<path d="M20610 21311 c-25 -85 -31 -108 -33 -136 -1 -11 -6 -23 -12 -27 -6
-5 -3 -8 6 -8 14 0 25 23 34 75 1 6 7 23 13 38 7 16 12 34 12 40 0 7 4 6 9 -2
17 -27 24 34 8 65 l-15 28 -22 -73z"/>
<path d="M28070 21311 c-25 -85 -31 -108 -33 -136 -1 -11 -6 -23 -12 -27 -6
-5 -3 -8 6 -8 14 0 25 23 34 75 1 6 7 23 13 38 7 16 12 34 12 40 0 7 4 6 9 -2
17 -27 24 34 8 65 l-15 28 -22 -73z"/>
<path d="M35110 21311 c-25 -85 -31 -108 -33 -136 -1 -11 -6 -23 -12 -27 -6
-5 -3 -8 6 -8 14 0 25 23 34 75 1 6 7 23 13 38 7 16 12 34 12 40 0 7 4 6 9 -2
17 -27 24 34 8 65 l-15 28 -22 -73z"/>
<path d="M3661 21322 c-7 -17 -9 -41 -5 -58 6 -25 8 -26 15 -9 6 16 8 17 8 3
1 -9 6 -29 13 -45 6 -15 13 -41 15 -57 3 -16 11 -36 19 -44 17 -16 18 -21 -18
128 -27 111 -32 119 -47 82z"/>
<path d="M10881 21322 c-7 -17 -9 -41 -5 -58 6 -25 8 -26 15 -9 6 16 8 17 8 3
1 -9 6 -29 13 -45 6 -15 13 -41 15 -57 3 -16 11 -36 19 -44 17 -16 18 -21 -18
128 -27 111 -32 119 -47 82z"/>
<path d="M17921 21322 c-7 -17 -9 -41 -5 -58 6 -25 8 -26 15 -9 6 16 8 17 8 3
1 -9 6 -29 13 -45 6 -15 13 -41 15 -57 3 -16 11 -36 19 -44 17 -16 18 -21 -18
128 -27 111 -32 119 -47 82z"/>
<path d="M25381 21322 c-7 -17 -9 -41 -5 -58 6 -25 8 -26 15 -9 6 16 8 17 8 3
1 -9 6 -29 13 -45 6 -15 13 -41 15 -57 3 -16 11 -36 19 -44 17 -16 18 -21 -18
128 -27 111 -32 119 -47 82z"/>
<path d="M32421 21322 c-7 -17 -9 -41 -5 -58 6 -25 8 -26 15 -9 6 16 8 17 8 3
1 -9 6 -29 13 -45 6 -15 13 -41 15 -57 3 -16 11 -36 19 -44 17 -16 18 -21 -18
128 -27 111 -32 119 -47 82z"/>
<path d="M5937 21293 c41 -39 105 -131 117 -169 9 -29 -2 -54 -25 -54 -10 0
-19 -7 -19 -15 0 -8 -9 -15 -20 -15 -14 0 -20 -7 -20 -22 -1 -38 -37 -105 -67
-124 -15 -10 -32 -24 -36 -31 -4 -7 -15 -13 -22 -13 -19 0 -19 -15 0 -34 26
-26 103 -10 141 28 20 21 41 31 62 33 27 1 31 -1 21 -13 -6 -8 -18 -14 -26
-14 -13 0 -13 -3 -3 -15 17 -21 23 -19 41 14 16 28 21 29 94 33 14 0 9 5 -17
17 -44 19 -52 43 -38 107 18 80 23 81 61 18 19 -32 39 -59 45 -61 13 -4 34 71
33 119 -1 43 -21 100 -40 109 -8 4 -48 24 -89 45 -41 20 -86 44 -100 54 -21
14 -102 40 -126 40 -4 0 11 -17 33 -37z"/>
<path d="M13157 21293 c41 -39 105 -131 117 -169 9 -29 -2 -54 -25 -54 -10 0
-19 -7 -19 -15 0 -8 -9 -15 -20 -15 -14 0 -20 -7 -20 -22 -1 -38 -37 -105 -67
-124 -15 -10 -32 -24 -36 -31 -4 -7 -15 -13 -22 -13 -19 0 -19 -15 0 -34 26
-26 103 -10 141 28 20 21 41 31 62 33 27 1 31 -1 21 -13 -6 -8 -18 -14 -26
-14 -13 0 -13 -3 -3 -15 17 -21 23 -19 41 14 16 28 21 29 94 33 14 0 9 5 -17
17 -44 19 -52 43 -38 107 18 80 23 81 61 18 19 -32 39 -59 45 -61 13 -4 34 71
33 119 -1 43 -21 100 -40 109 -8 4 -48 24 -89 45 -41 20 -86 44 -100 54 -21
14 -102 40 -126 40 -4 0 11 -17 33 -37z"/>
<path d="M20197 21293 c41 -39 105 -131 117 -169 9 -29 -2 -54 -25 -54 -10 0
-19 -7 -19 -15 0 -8 -9 -15 -20 -15 -14 0 -20 -7 -20 -22 -1 -38 -37 -105 -67
-124 -15 -10 -32 -24 -36 -31 -4 -7 -15 -13 -22 -13 -19 0 -19 -15 0 -34 26
-26 103 -10 141 28 20 21 41 31 62 33 27 1 31 -1 21 -13 -6 -8 -18 -14 -26
-14 -13 0 -13 -3 -3 -15 17 -21 23 -19 41 14 16 28 21 29 94 33 14 0 9 5 -17
17 -44 19 -52 43 -38 107 18 80 23 81 61 18 19 -32 39 -59 45 -61 13 -4 34 71
33 119 -1 43 -21 100 -40 109 -8 4 -48 24 -89 45 -41 20 -86 44 -100 54 -21
14 -102 40 -126 40 -4 0 11 -17 33 -37z"/>
<path d="M27657 21293 c41 -39 105 -131 117 -169 9 -29 -2 -54 -25 -54 -10 0
-19 -7 -19 -15 0 -8 -9 -15 -20 -15 -14 0 -20 -7 -20 -22 -1 -38 -37 -105 -67
-124 -15 -10 -32 -24 -36 -31 -4 -7 -15 -13 -22 -13 -19 0 -19 -15 0 -34 26
-26 103 -10 141 28 20 21 41 31 62 33 27 1 31 -1 21 -13 -6 -8 -18 -14 -26
-14 -13 0 -13 -3 -3 -15 17 -21 23 -19 41 14 16 28 21 29 94 33 14 0 9 5 -17
17 -44 19 -52 43 -38 107 18 80 23 81 61 18 19 -32 39 -59 45 -61 13 -4 34 71
33 119 -1 43 -21 100 -40 109 -8 4 -48 24 -89 45 -41 20 -86 44 -100 54 -21
14 -102 40 -126 40 -4 0 11 -17 33 -37z"/>
<path d="M34697 21293 c41 -39 105 -131 117 -169 9 -29 -2 -54 -25 -54 -10 0
-19 -7 -19 -15 0 -8 -9 -15 -20 -15 -14 0 -20 -7 -20 -22 -1 -38 -37 -105 -67
-124 -15 -10 -32 -24 -36 -31 -4 -7 -15 -13 -22 -13 -19 0 -19 -15 0 -34 26
-26 103 -10 141 28 20 21 41 31 62 33 27 1 31 -1 21 -13 -6 -8 -18 -14 -26
-14 -13 0 -13 -3 -3 -15 17 -21 23 -19 41 14 16 28 21 29 94 33 14 0 9 5 -17
17 -44 19 -52 43 -38 107 18 80 23 81 61 18 19 -32 39 -59 45 -61 13 -4 34 71
33 119 -1 43 -21 100 -40 109 -8 4 -48 24 -89 45 -41 20 -86 44 -100 54 -21
14 -102 40 -126 40 -4 0 11 -17 33 -37z"/>
<path d="M38292 21297 c21 -17 53 -56 73 -86 l35 -53 0 64 c0 72 -4 76 -85 97
-60 16 -63 14 -23 -22z"/>
<path d="M37595 21300 c-3 -5 1 -22 9 -37 l15 -28 1 38 c0 35 -12 48 -25 27z"/>
<path d="M4075 21266 c-22 -7 -70 -29 -108 -49 -37 -20 -86 -42 -108 -49 -35
-10 -44 -19 -60 -56 -11 -24 -19 -57 -19 -73 0 -38 20 -119 29 -119 10 0 43
46 66 90 l18 35 13 -30 c17 -40 18 -145 2 -145 -7 -1 -26 -7 -43 -16 -22 -11
-24 -13 -7 -10 12 2 22 1 22 -2 0 -4 12 -8 27 -9 16 0 34 -11 45 -27 11 -15
25 -23 33 -19 22 8 18 20 -7 28 -22 8 -22 8 4 12 22 3 37 -4 65 -31 21 -20 47
-36 58 -36 11 0 29 -3 41 -6 13 -3 28 1 38 11 20 20 21 35 2 35 -8 0 -16 7
-20 15 -3 8 -16 19 -29 24 -29 11 -73 95 -68 133 1 10 -6 18 -21 20 -13 2 -22
9 -21 16 2 6 -4 12 -12 12 -19 0 -37 34 -28 57 14 38 84 132 124 167 47 40 37
45 -36 22z"/>
<path d="M11295 21266 c-22 -7 -70 -29 -108 -49 -37 -20 -86 -42 -108 -49 -35
-10 -44 -19 -60 -56 -11 -24 -19 -57 -19 -73 0 -38 20 -119 29 -119 10 0 43
46 66 90 l18 35 13 -30 c17 -40 18 -145 2 -145 -7 -1 -26 -7 -43 -16 -22 -11
-24 -13 -7 -10 12 2 22 1 22 -2 0 -4 12 -8 27 -9 16 0 34 -11 45 -27 11 -15
25 -23 33 -19 22 8 18 20 -7 28 -22 8 -22 8 4 12 22 3 37 -4 65 -31 21 -20 47
-36 58 -36 11 0 29 -3 41 -6 13 -3 28 1 38 11 20 20 21 35 2 35 -8 0 -16 7
-20 15 -3 8 -16 19 -29 24 -29 11 -73 95 -68 133 1 10 -6 18 -21 20 -13 2 -22
9 -20 16 1 6 -5 12 -13 12 -19 0 -37 34 -28 57 14 38 84 132 124 167 47 40 37
45 -36 22z"/>
<path d="M18335 21266 c-22 -7 -70 -29 -108 -49 -37 -20 -86 -42 -108 -49 -35
-10 -44 -19 -60 -56 -11 -24 -19 -57 -19 -73 0 -38 20 -119 29 -119 10 0 43
46 66 90 l18 35 13 -30 c17 -40 18 -145 2 -145 -7 -1 -26 -7 -43 -16 -22 -11
-24 -13 -7 -10 12 2 22 1 22 -2 0 -4 12 -8 27 -9 16 0 34 -11 45 -27 11 -15
25 -23 33 -19 22 8 18 20 -7 28 -22 8 -22 8 4 12 22 3 37 -4 65 -31 21 -20 47
-36 58 -36 11 0 29 -3 41 -6 13 -3 28 1 38 11 20 20 21 35 2 35 -8 0 -16 7
-20 15 -3 8 -16 19 -29 24 -29 11 -73 95 -68 133 1 10 -6 18 -21 20 -13 2 -22
9 -20 16 1 6 -5 12 -13 12 -19 0 -37 34 -28 57 14 38 84 132 124 167 47 40 37
45 -36 22z"/>
<path d="M25795 21266 c-22 -7 -70 -29 -108 -49 -37 -20 -86 -42 -108 -49 -35
-10 -44 -19 -60 -56 -11 -24 -19 -57 -19 -73 0 -38 20 -119 29 -119 10 0 43
46 66 90 l18 35 13 -30 c17 -40 18 -145 2 -145 -7 -1 -26 -7 -43 -16 -22 -11
-24 -13 -7 -10 12 2 22 1 22 -2 0 -4 12 -8 27 -9 16 0 34 -11 45 -27 11 -15
25 -23 33 -19 22 8 18 20 -7 28 -22 8 -22 8 4 12 22 3 37 -4 65 -31 21 -20 47
-36 58 -36 11 0 29 -3 41 -6 13 -3 28 1 38 11 20 20 21 35 2 35 -8 0 -16 7
-20 15 -3 8 -16 19 -29 24 -29 11 -73 95 -68 133 1 10 -6 18 -21 20 -13 2 -22
9 -20 16 1 6 -5 12 -13 12 -19 0 -37 34 -28 57 14 38 84 132 124 167 47 40 37
45 -36 22z"/>
<path d="M32835 21266 c-22 -7 -70 -29 -108 -49 -37 -20 -86 -42 -108 -49 -35
-10 -44 -19 -60 -56 -11 -24 -19 -57 -19 -73 0 -38 20 -119 29 -119 10 0 43
46 66 90 l18 35 13 -30 c17 -40 18 -145 2 -145 -7 -1 -26 -7 -43 -16 -22 -11
-24 -13 -7 -10 12 2 22 1 22 -2 0 -4 12 -8 27 -9 16 0 34 -11 45 -27 11 -15
25 -23 33 -19 22 8 18 20 -7 28 -22 8 -22 8 4 12 22 3 37 -4 65 -31 21 -20 47
-36 58 -36 11 0 29 -3 41 -6 13 -3 28 1 38 11 20 20 21 35 2 35 -8 0 -16 7
-20 15 -3 8 -16 19 -29 24 -29 11 -73 95 -68 133 1 10 -6 18 -21 20 -13 2 -22
9 -20 16 1 6 -5 12 -13 12 -19 0 -37 34 -28 57 14 38 84 132 124 167 47 40 37
45 -36 22z"/>
<path d="M38370 21055 c0 -8 -9 -15 -20 -15 -14 0 -20 -7 -20 -22 -1 -38 -37
-105 -67 -124 -15 -10 -32 -24 -36 -31 -4 -7 -15 -13 -22 -13 -19 0 -19 -15 0
-34 26 -26 103 -10 141 28 17 18 36 30 42 28 9 -3 12 24 12 97 0 83 -3 101
-15 101 -8 0 -15 -7 -15 -15z"/>
<path d="M6260 20886 c-7 -9 -20 -16 -29 -15 -9 1 -25 1 -35 0 -18 -1 -18 -2
3 -20 19 -17 20 -20 5 -32 -13 -10 -17 -10 -25 2 -5 9 -9 10 -9 2 0 -6 5 -15
11 -18 6 -4 8 -13 5 -21 -3 -8 -1 -14 4 -14 6 0 10 3 10 8 0 14 95 8 106 -7
12 -16 34 -7 34 14 0 20 -37 39 -44 22 -2 -6 -3 4 0 23 3 21 -1 43 -9 54 -12
16 -14 16 -27 2z m-6 -52 c4 -10 1 -14 -6 -12 -15 5 -23 28 -10 28 5 0 13 -7
16 -16z"/>
<path d="M13480 20886 c-7 -9 -20 -16 -29 -15 -9 1 -25 1 -35 0 -18 -1 -18 -2
3 -20 19 -17 20 -20 5 -32 -13 -10 -17 -10 -25 2 -5 9 -9 10 -9 2 0 -6 5 -15
11 -18 6 -4 8 -13 5 -21 -3 -8 -1 -14 4 -14 6 0 10 3 10 8 0 14 95 8 106 -7
12 -16 34 -7 34 14 0 20 -37 39 -44 22 -2 -6 -3 4 0 23 3 21 -1 43 -9 54 -12
16 -14 16 -27 2z m-6 -52 c4 -10 1 -14 -6 -12 -15 5 -23 28 -10 28 5 0 13 -7
16 -16z"/>
<path d="M20520 20886 c-7 -9 -20 -16 -29 -15 -9 1 -25 1 -35 0 -18 -1 -18 -2
3 -20 19 -17 20 -20 5 -32 -13 -10 -17 -10 -25 2 -5 9 -9 10 -9 2 0 -6 5 -15
11 -18 6 -4 8 -13 5 -21 -3 -8 -1 -14 4 -14 6 0 10 3 10 8 0 14 95 8 106 -7
12 -16 34 -7 34 14 0 20 -37 39 -44 22 -2 -6 -3 4 0 23 3 21 -1 43 -9 54 -12
16 -14 16 -27 2z m-6 -52 c4 -10 1 -14 -6 -12 -15 5 -23 28 -10 28 5 0 13 -7
16 -16z"/>
<path d="M27980 20886 c-7 -9 -20 -16 -29 -15 -9 1 -25 1 -35 0 -18 -1 -18 -2
3 -20 19 -17 20 -20 5 -32 -13 -10 -17 -10 -25 2 -5 9 -9 10 -9 2 0 -6 5 -15
11 -18 6 -4 8 -13 5 -21 -3 -8 -1 -14 4 -14 6 0 10 3 10 8 0 14 95 8 106 -7
12 -16 34 -7 34 14 0 20 -37 39 -44 22 -2 -6 -3 4 0 23 3 21 -1 43 -9 54 -12
16 -14 16 -27 2z m-6 -52 c4 -10 1 -14 -6 -12 -15 5 -23 28 -10 28 5 0 13 -7
16 -16z"/>
<path d="M35020 20886 c-7 -9 -20 -16 -29 -15 -9 1 -25 1 -35 0 -18 -1 -18 -2
3 -20 19 -17 20 -20 5 -32 -13 -10 -17 -10 -25 2 -5 9 -9 10 -9 2 0 -6 5 -15
11 -18 6 -4 8 -13 5 -21 -3 -8 -1 -14 4 -14 6 0 10 3 10 8 0 14 95 8 106 -7
12 -16 34 -7 34 14 0 20 -37 39 -44 22 -2 -6 -3 4 0 23 3 21 -1 43 -9 54 -12
16 -14 16 -27 2z m-6 -52 c4 -10 1 -14 -6 -12 -15 5 -23 28 -10 28 5 0 13 -7
16 -16z"/>
<path d="M3743 20840 c-9 -13 -10 -27 -3 -44 6 -16 6 -27 0 -31 -6 -4 -10 -1
-10 5 0 8 -6 8 -20 0 -11 -6 -20 -17 -20 -25 0 -17 26 -20 35 -5 7 12 105 9
105 -2 0 -5 5 -8 11 -8 6 0 9 7 6 15 -4 8 -2 17 3 20 6 4 10 12 10 18 0 8 -4
7 -9 -2 -8 -12 -12 -12 -25 -2 -14 11 -14 15 -1 28 19 18 10 36 -14 28 -10 -3
-24 1 -31 10 -16 20 -23 19 -37 -5z m49 -52 c-7 -7 -12 -8 -12 -2 0 14 12 26
19 19 2 -3 -1 -11 -7 -17z"/>
<path d="M10963 20840 c-9 -13 -10 -27 -3 -44 6 -16 6 -27 0 -31 -6 -4 -10 -1
-10 5 0 8 -6 8 -20 0 -11 -6 -20 -17 -20 -25 0 -17 26 -20 35 -5 7 12 105 9
105 -2 0 -5 5 -8 11 -8 6 0 9 7 6 15 -4 8 -2 17 3 20 6 4 10 12 10 18 0 8 -4
7 -9 -2 -8 -12 -12 -12 -25 -2 -14 11 -14 15 -1 28 19 18 10 36 -14 28 -10 -3
-24 1 -31 10 -16 20 -23 19 -37 -5z m49 -52 c-7 -7 -12 -8 -12 -2 0 14 12 26
19 19 2 -3 -1 -11 -7 -17z"/>
<path d="M18003 20840 c-9 -13 -10 -27 -3 -44 6 -16 6 -27 0 -31 -6 -4 -10 -1
-10 5 0 8 -6 8 -20 0 -11 -6 -20 -17 -20 -25 0 -17 26 -20 35 -5 7 12 105 9
105 -2 0 -5 5 -8 11 -8 6 0 9 7 6 15 -4 8 -2 17 3 20 6 4 10 12 10 18 0 8 -4
7 -9 -2 -8 -12 -12 -12 -25 -2 -14 11 -14 15 -1 28 19 18 10 36 -14 28 -10 -3
-24 1 -31 10 -16 20 -23 19 -37 -5z m49 -52 c-7 -7 -12 -8 -12 -2 0 14 12 26
19 19 2 -3 -1 -11 -7 -17z"/>
<path d="M25463 20840 c-9 -13 -10 -27 -3 -44 6 -16 6 -27 0 -31 -6 -4 -10 -1
-10 5 0 8 -6 8 -20 0 -11 -6 -20 -17 -20 -25 0 -17 26 -20 35 -5 7 12 105 9
105 -2 0 -5 5 -8 11 -8 6 0 9 7 6 15 -4 8 -2 17 3 20 6 4 10 12 10 18 0 8 -4
7 -9 -2 -8 -12 -12 -12 -25 -2 -14 11 -14 15 -1 28 19 18 10 36 -14 28 -10 -3
-24 1 -31 10 -16 20 -23 19 -37 -5z m49 -52 c-7 -7 -12 -8 -12 -2 0 14 12 26
19 19 2 -3 -1 -11 -7 -17z"/>
<path d="M32503 20840 c-9 -13 -10 -27 -3 -44 6 -16 6 -27 0 -31 -6 -4 -10 -1
-10 5 0 8 -6 8 -20 0 -11 -6 -20 -17 -20 -25 0 -17 26 -20 35 -5 7 12 105 9
105 -2 0 -5 5 -8 11 -8 6 0 9 7 6 15 -4 8 -2 17 3 20 6 4 10 12 10 18 0 8 -4
7 -9 -2 -8 -12 -12 -12 -25 -2 -14 11 -14 15 -1 28 19 18 10 36 -14 28 -10 -3
-24 1 -31 10 -16 20 -23 19 -37 -5z m49 -52 c-7 -7 -12 -8 -12 -2 0 14 12 26
19 19 2 -3 -1 -11 -7 -17z"/>
<path d="M2520 20659 c0 -40 -11 -49 -64 -49 -22 0 -40 8 -56 25 -18 19 -27
22 -42 14 -10 -6 -22 -18 -25 -27 -4 -9 -19 -38 -35 -63 -15 -25 -28 -57 -28
-70 0 -13 -7 -37 -15 -53 -19 -37 -19 -39 4 -26 28 14 30 13 26 -12 -4 -23 -4
-23 17 2 15 18 22 21 26 12 3 -9 16 -1 38 23 25 27 34 33 34 20 0 -11 5 -15
15 -11 12 4 15 -3 15 -34 0 -33 3 -40 20 -40 11 0 20 6 21 13 0 6 5 2 11 -10
10 -21 12 -20 59 29 27 28 49 54 49 58 0 11 73 -28 87 -46 10 -14 18 -14 70
-3 32 7 70 12 86 11 15 -2 27 2 27 7 0 6 8 11 18 11 14 1 12 5 -10 25 -16 13
-28 29 -28 35 0 17 -26 11 -45 -10 -25 -27 -31 -25 -39 10 -9 46 -59 113 -94
126 l-31 12 -16 -49 c-15 -43 -45 -79 -67 -79 -4 0 -5 26 -2 58 4 40 1 67 -10
92 l-15 35 -1 -36z m-229 -186 c-8 -15 -10 -15 -11 -2 0 17 10 32 18 25 2 -3
-1 -13 -7 -23z m71 -5 c-7 -7 -12 -8 -12 -2 0 14 12 26 19 19 2 -3 -1 -11 -7
-17z"/>
<path d="M9740 20659 c0 -40 -11 -49 -64 -49 -22 0 -40 8 -56 25 -18 19 -27
22 -42 14 -10 -6 -22 -18 -25 -27 -4 -9 -19 -38 -35 -63 -15 -25 -28 -57 -28
-70 0 -13 -7 -37 -15 -53 -19 -37 -19 -39 4 -26 28 14 30 13 26 -12 -4 -23 -4
-23 17 2 15 18 22 21 26 12 3 -9 16 -1 38 23 25 27 34 33 34 20 0 -11 5 -15
15 -11 12 4 15 -3 15 -34 0 -33 3 -40 20 -40 11 0 20 6 21 13 0 6 5 2 11 -10
10 -21 12 -20 59 29 27 28 49 54 49 58 0 11 73 -28 87 -46 10 -14 18 -14 70
-3 32 7 70 12 86 11 15 -2 27 2 27 7 0 6 8 11 18 11 14 1 12 5 -10 25 -16 13
-28 29 -28 35 0 17 -26 11 -45 -10 -25 -27 -31 -25 -39 10 -9 46 -59 113 -94
126 l-31 12 -16 -49 c-15 -43 -45 -79 -67 -79 -4 0 -5 26 -2 58 4 40 1 67 -10
92 l-15 35 -1 -36z m-229 -186 c-8 -15 -10 -15 -11 -2 0 17 10 32 18 25 2 -3
-1 -13 -7 -23z m71 -5 c-7 -7 -12 -8 -12 -2 0 14 12 26 19 19 2 -3 -1 -11 -7
-17z"/>
<path d="M16780 20659 c0 -40 -11 -49 -64 -49 -22 0 -40 8 -56 25 -18 19 -27
22 -42 14 -10 -6 -22 -18 -25 -27 -4 -9 -19 -38 -35 -63 -15 -25 -28 -57 -28
-70 0 -13 -7 -37 -15 -53 -19 -37 -19 -39 4 -26 28 14 30 13 26 -12 -4 -23 -4
-23 17 2 15 18 22 21 26 12 3 -9 16 -1 38 23 25 27 34 33 34 20 0 -11 5 -15
15 -11 12 4 15 -3 15 -34 0 -33 3 -40 20 -40 11 0 20 6 21 13 0 6 5 2 11 -10
10 -21 12 -20 59 29 27 28 49 54 49 58 0 11 73 -28 87 -46 10 -14 18 -14 70
-3 32 7 70 12 86 11 15 -2 27 2 27 7 0 6 8 11 18 11 14 1 12 5 -10 25 -16 13
-28 29 -28 35 0 17 -26 11 -45 -10 -25 -27 -31 -25 -39 10 -9 46 -59 113 -94
126 l-31 12 -16 -49 c-15 -43 -45 -79 -67 -79 -4 0 -5 26 -2 58 4 40 1 67 -10
92 l-15 35 -1 -36z m-229 -186 c-8 -15 -10 -15 -11 -2 0 17 10 32 18 25 2 -3
-1 -13 -7 -23z m71 -5 c-7 -7 -12 -8 -12 -2 0 14 12 26 19 19 2 -3 -1 -11 -7
-17z"/>
<path d="M24240 20659 c0 -40 -11 -49 -64 -49 -22 0 -40 8 -56 25 -18 19 -27
22 -42 14 -10 -6 -22 -18 -25 -27 -4 -9 -19 -38 -35 -63 -15 -25 -28 -57 -28
-70 0 -13 -7 -37 -15 -53 -19 -37 -19 -39 4 -26 28 14 30 13 26 -12 -4 -23 -4
-23 17 2 15 18 22 21 26 12 3 -9 16 -1 38 23 25 27 34 33 34 20 0 -11 5 -15
15 -11 12 4 15 -3 15 -34 0 -33 3 -40 20 -40 11 0 20 6 21 13 0 6 5 2 11 -10
10 -21 12 -20 59 29 27 28 49 54 49 58 0 11 73 -28 87 -46 10 -14 18 -14 70
-3 32 7 70 12 86 11 15 -2 27 2 27 7 0 6 8 11 18 11 14 1 12 5 -10 25 -16 13
-28 29 -28 35 0 17 -26 11 -45 -10 -25 -27 -31 -25 -39 10 -9 46 -59 113 -94
126 l-31 12 -16 -49 c-15 -43 -45 -79 -67 -79 -4 0 -5 26 -2 58 4 40 1 67 -10
92 l-15 35 -1 -36z m-229 -186 c-8 -15 -10 -15 -11 -2 0 17 10 32 18 25 2 -3
-1 -13 -7 -23z m71 -5 c-7 -7 -12 -8 -12 -2 0 14 12 26 19 19 2 -3 -1 -11 -7
-17z"/>
<path d="M31280 20659 c0 -40 -11 -49 -64 -49 -22 0 -40 8 -56 25 -18 19 -27
22 -42 14 -10 -6 -22 -18 -25 -27 -4 -9 -19 -38 -35 -63 -15 -25 -28 -57 -28
-70 0 -13 -7 -37 -15 -53 -19 -37 -19 -39 4 -26 28 14 30 13 26 -12 -4 -23 -4
-23 17 2 15 18 22 21 26 12 3 -9 16 -1 38 23 25 27 34 33 34 20 0 -11 5 -15
15 -11 12 4 15 -3 15 -34 0 -33 3 -40 20 -40 11 0 20 6 21 13 0 6 5 2 11 -10
10 -21 12 -20 59 29 27 28 49 54 49 58 0 11 73 -28 87 -46 10 -14 18 -14 70
-3 32 7 70 12 86 11 15 -2 27 2 27 7 0 6 8 11 18 11 14 1 12 5 -10 25 -16 13
-28 29 -28 35 0 17 -26 11 -45 -10 -25 -27 -31 -25 -39 10 -9 46 -59 113 -94
126 l-31 12 -16 -49 c-15 -43 -45 -79 -67 -79 -4 0 -5 26 -2 58 4 40 1 67 -10
92 l-15 35 -1 -36z m-229 -186 c-8 -15 -10 -15 -11 -2 0 17 10 32 18 25 2 -3
-1 -13 -7 -23z m71 -5 c-7 -7 -12 -8 -12 -2 0 14 12 26 19 19 2 -3 -1 -11 -7
-17z"/>
<path d="M7493 20657 c-7 -15 -13 -57 -13 -92 0 -36 -4 -65 -9 -65 -16 0 -46
45 -61 89 -15 46 -19 47 -60 26 -35 -18 -68 -64 -81 -111 l-10 -35 -31 25 -31
24 -34 -35 c-38 -41 -39 -43 -18 -43 8 0 15 -5 15 -11 0 -7 9 -9 22 -6 19 5
115 -14 137 -28 5 -3 12 -1 16 5 4 6 11 7 17 4 6 -4 8 -3 5 2 -9 15 4 28 38
39 28 10 33 8 79 -43 47 -51 51 -53 64 -35 14 17 14 17 9 -4 -3 -16 -1 -23 10
-23 8 0 11 5 8 10 -3 6 1 10 9 10 12 0 16 10 16 35 0 24 5 35 15 35 8 0 15 7
15 17 0 11 11 4 35 -23 21 -24 34 -33 35 -24 0 10 9 5 25 -14 19 -24 23 -26
22 -10 -2 14 4 18 20 16 22 -3 22 -3 5 39 -13 34 -17 38 -23 23 -4 -11 -8 -14
-8 -7 -1 6 -4 19 -7 27 -5 12 -2 15 10 10 33 -13 11 41 -36 88 -9 9 -20 29
-24 43 -7 30 -25 32 -49 5 -12 -13 -31 -20 -54 -20 -48 0 -59 9 -63 50 l-3 35
-12 -28z"/>
<path d="M21753 20657 c-7 -15 -13 -57 -13 -92 0 -36 -4 -65 -9 -65 -16 0 -46
45 -61 89 -15 46 -19 47 -60 26 -35 -18 -68 -64 -81 -111 l-10 -35 -31 25 -31
24 -34 -35 c-38 -41 -39 -43 -18 -43 8 0 15 -5 15 -11 0 -7 9 -9 22 -6 19 5
115 -14 137 -28 5 -3 12 -1 16 5 4 6 11 7 17 4 6 -4 8 -3 5 2 -9 15 4 28 38
39 28 10 33 8 79 -43 47 -51 51 -53 64 -35 14 17 14 17 9 -4 -3 -16 -1 -23 10
-23 8 0 11 5 8 10 -3 6 1 10 9 10 12 0 16 10 16 35 0 24 5 35 15 35 8 0 15 7
15 17 0 11 11 4 35 -23 21 -24 34 -33 35 -24 0 10 9 5 25 -14 19 -24 23 -26
22 -10 -2 14 4 18 20 16 22 -3 22 -3 5 39 -13 34 -17 38 -23 23 -4 -11 -8 -14
-8 -7 -1 6 -4 19 -7 27 -5 12 -2 15 10 10 24 -9 20 8 -21 86 -39 75 -57 85
-88 50 -12 -13 -31 -20 -54 -20 -48 0 -59 9 -63 50 l-3 35 -12 -28z"/>
<path d="M36253 20657 c-7 -15 -13 -57 -13 -92 0 -36 -4 -65 -9 -65 -16 0 -46
45 -61 89 -15 46 -19 47 -60 26 -35 -18 -68 -64 -81 -111 l-10 -35 -31 25 -31
24 -34 -35 c-38 -41 -39 -43 -18 -43 8 0 15 -5 15 -11 0 -7 9 -9 22 -6 19 5
115 -14 137 -28 5 -3 12 -1 16 5 4 6 11 7 17 4 6 -4 8 -3 5 2 -9 15 4 28 38
39 28 10 33 8 79 -43 47 -51 51 -53 64 -35 14 17 14 17 9 -4 -3 -16 -1 -23 10
-23 8 0 11 5 8 10 -3 6 1 10 9 10 12 0 16 10 16 35 0 24 5 35 15 35 8 0 15 7
15 17 0 11 11 4 35 -23 21 -24 34 -33 35 -24 0 10 9 5 25 -14 19 -24 23 -26
22 -10 -2 14 4 18 20 16 22 -3 22 -3 5 39 -13 34 -17 38 -23 23 -4 -11 -8 -14
-8 -7 -1 6 -4 19 -7 27 -5 12 -2 15 10 10 24 -9 20 8 -21 86 -39 75 -57 85
-88 50 -12 -13 -31 -20 -54 -20 -48 0 -59 9 -63 50 l-3 35 -12 -28z"/>
<path d="M14701 20573 c-1 -40 -5 -73 -10 -73 -16 0 -46 45 -61 89 -15 46 -19
47 -60 26 -35 -18 -68 -64 -81 -111 l-10 -35 -31 25 -31 24 -34 -35 c-38 -41
-39 -43 -18 -43 8 0 15 -5 15 -11 0 -7 9 -9 22 -6 19 5 115 -14 137 -28 5 -3
12 -1 16 5 4 6 11 7 17 4 6 -4 8 -3 5 2 -9 15 4 28 38 39 28 10 33 8 79 -43
47 -51 51 -53 64 -35 14 17 14 17 9 -4 -3 -16 -1 -23 10 -23 8 0 11 5 8 10 -3
6 1 10 9 10 12 0 16 10 16 35 0 24 5 35 15 35 8 0 15 7 15 17 0 11 11 4 35
-23 21 -24 34 -33 35 -24 0 10 9 5 25 -14 19 -24 23 -26 22 -10 -2 14 4 18 20
16 22 -3 22 -3 5 39 -13 34 -17 38 -23 23 -4 -11 -8 -14 -8 -7 -1 6 -4 19 -7
27 -5 12 -2 15 10 10 19 -7 20 5 5 39 -10 22 -15 23 -104 23 -104 -1 -120 6
-142 67 -11 30 -12 27 -12 -40z"/>
<path d="M29201 20573 c-1 -40 -5 -73 -10 -73 -16 0 -46 45 -61 89 -15 46 -19
47 -60 26 -35 -18 -68 -64 -81 -111 l-10 -35 -31 25 -31 24 -34 -35 c-38 -41
-39 -43 -18 -43 8 0 15 -5 15 -11 0 -7 9 -9 22 -6 19 5 115 -14 137 -28 5 -3
12 -1 16 5 4 6 11 7 17 4 6 -4 8 -3 5 2 -9 15 4 28 38 39 28 10 33 8 79 -43
47 -51 51 -53 64 -35 14 17 14 17 9 -4 -3 -16 -1 -23 10 -23 8 0 11 5 8 10 -3
6 1 10 9 10 12 0 16 10 16 35 0 24 5 35 15 35 8 0 15 7 15 17 0 11 11 4 35
-23 21 -24 34 -33 35 -24 0 10 9 5 25 -14 19 -24 23 -26 22 -10 -2 14 4 18 20
16 22 -3 22 -3 5 39 -13 34 -17 38 -23 23 -4 -11 -8 -14 -8 -7 -1 6 -4 19 -7
27 -5 12 -2 15 10 10 19 -7 20 5 5 39 -10 22 -15 23 -104 23 -104 -1 -120 6
-142 67 -11 30 -12 27 -12 -40z"/>
<path d="M394 20585 c-18 -20 -38 -54 -44 -76 l-11 -40 -31 25 -31 24 -34 -35
c-38 -41 -39 -43 -18 -43 8 0 15 -5 15 -11 0 -7 9 -9 22 -6 19 5 115 -14 137
-28 5 -3 12 -1 16 5 4 6 11 7 17 4 6 -4 8 -3 5 2 -9 15 4 28 38 39 28 10 33 8
79 -43 47 -51 51 -53 64 -35 14 17 14 17 9 -4 -3 -16 -1 -23 10 -23 8 0 11 5
8 10 -3 6 1 10 9 10 12 0 16 10 16 35 0 24 5 35 15 35 8 0 15 7 15 17 0 11 11
4 35 -23 21 -24 34 -33 35 -24 0 10 9 5 25 -14 19 -24 23 -26 22 -10 -2 14 4
18 20 16 22 -3 22 -3 5 39 -13 34 -17 38 -23 23 -4 -11 -8 -14 -8 -7 -1 6 -4
19 -7 27 -5 12 -2 15 10 10 24 -9 19 11 -15 59 l-30 43 -56 -18 c-31 -11 -78
-22 -105 -25 -38 -5 -48 -10 -48 -24 0 -11 -4 -19 -8 -19 -11 0 -102 100 -102
111 0 19 -24 7 -56 -26z"/>
<path d="M2458 20353 c7 -3 16 -2 19 1 4 3 -2 6 -13 5 -11 0 -14 -3 -6 -6z"/>
<path d="M9678 20353 c7 -3 16 -2 19 1 4 3 -2 6 -13 5 -11 0 -14 -3 -6 -6z"/>
<path d="M16718 20353 c7 -3 16 -2 19 1 4 3 -2 6 -13 5 -11 0 -14 -3 -6 -6z"/>
<path d="M24178 20353 c7 -3 16 -2 19 1 4 3 -2 6 -13 5 -11 0 -14 -3 -6 -6z"/>
<path d="M31218 20353 c7 -3 16 -2 19 1 4 3 -2 6 -13 5 -11 0 -14 -3 -6 -6z"/>
<path d="M2460 20289 c1 -40 3 -50 10 -37 10 17 8 73 -3 85 -4 3 -7 -18 -7
-48z"/>
<path d="M9680 20289 c1 -40 3 -50 10 -37 10 17 8 73 -3 85 -4 3 -7 -18 -7
-48z"/>
<path d="M16720 20289 c1 -40 3 -50 10 -37 10 17 8 73 -3 85 -4 3 -7 -18 -7
-48z"/>
<path d="M24180 20289 c1 -40 3 -50 10 -37 10 17 8 73 -3 85 -4 3 -7 -18 -7
-48z"/>
<path d="M31220 20289 c1 -40 3 -50 10 -37 10 17 8 73 -3 85 -4 3 -7 -18 -7
-48z"/>
<path d="M629 20325 c-1 -3 -2 -9 -3 -14 0 -5 -4 -12 -7 -15 -9 -9 2 -56 12
-56 5 0 9 20 9 45 0 25 -2 45 -5 45 -3 0 -6 -2 -6 -5z"/>
<path d="M7549 20325 c-1 -3 -2 -9 -3 -14 0 -5 -4 -12 -7 -15 -9 -9 2 -56 12
-56 5 0 9 20 9 45 0 25 -2 45 -5 45 -3 0 -6 -2 -6 -5z"/>
<path d="M14769 20325 c-1 -3 -2 -9 -3 -14 0 -5 -4 -12 -7 -15 -9 -9 2 -56 12
-56 5 0 9 20 9 45 0 25 -2 45 -5 45 -3 0 -6 -2 -6 -5z"/>
<path d="M21809 20325 c-1 -3 -2 -9 -3 -14 0 -5 -4 -12 -7 -15 -9 -9 2 -56 12
-56 5 0 9 20 9 45 0 25 -2 45 -5 45 -3 0 -6 -2 -6 -5z"/>
<path d="M29269 20325 c-1 -3 -2 -9 -3 -14 0 -5 -4 -12 -7 -15 -9 -9 2 -56 12
-56 5 0 9 20 9 45 0 25 -2 45 -5 45 -3 0 -6 -2 -6 -5z"/>
<path d="M36309 20325 c-1 -3 -2 -9 -3 -14 0 -5 -4 -12 -7 -15 -9 -9 2 -56 12
-56 5 0 9 20 9 45 0 25 -2 45 -5 45 -3 0 -6 -2 -6 -5z"/>
<path d="M38293 19800 c-31 -18 -41 -39 -27 -53 3 -3 21 2 39 11 22 12 32 24
32 40 1 27 -3 27 -44 2z"/>
<path d="M1155 18910 c-28 -13 -34 -19 -20 -20 l20 -1 -20 -9 c-29 -13 -35
-12 -29 5 9 23 -9 18 -86 -22 -75 -39 -85 -57 -50 -88 12 -11 20 -31 20 -51 0
-53 -8 -64 -49 -64 l-36 -1 25 -14 c15 -8 53 -14 93 -15 37 0 67 -4 67 -9 0
-16 -45 -46 -89 -61 -46 -15 -47 -19 -26 -60 18 -35 64 -68 111 -81 l35 -10
-25 -31 -24 -31 35 -34 c41 -38 43 -39 43 -18 0 8 5 15 11 15 7 0 9 9 6 22 -5
19 14 115 28 137 3 5 1 12 -5 16 -6 4 -7 11 -4 17 4 6 3 8 -2 5 -15 -9 -28 4
-40 39 -10 29 -9 32 42 75 48 40 64 68 35 62 -6 -2 -11 2 -11 8 0 6 9 9 20 6
13 -3 20 0 20 10 0 8 -4 11 -10 8 -5 -3 -10 1 -10 9 0 12 -10 16 -35 16 -24 0
-35 5 -35 15 0 8 -7 15 -17 15 -11 0 -4 11 23 35 24 21 33 34 24 35 -10 0 -5
9 14 25 24 19 26 23 10 22 -14 -2 -19 4 -18 21 1 12 1 22 0 21 0 0 -19 -9 -41
-19z"/>
<path d="M37202 18907 c2 -17 -2 -22 -17 -20 -18 1 -17 0 4 -16 13 -10 21 -23
17 -29 -3 -5 8 -22 24 -36 29 -24 30 -26 13 -46 -10 -11 -30 -20 -45 -20 -24
0 -28 -4 -28 -29 0 -16 -4 -31 -9 -33 -6 -1 16 -25 48 -53 54 -45 58 -51 48
-75 -6 -14 -20 -34 -33 -46 -21 -21 -21 -23 -7 -75 9 -30 15 -69 14 -86 0 -18
4 -33 9 -33 6 0 10 -8 10 -17 0 -15 4 -13 23 8 12 14 30 28 41 32 17 7 17 9
-7 41 -27 35 -26 46 3 46 42 0 130 85 130 125 0 2 -21 10 -47 19 -46 16 -83
41 -83 58 0 4 26 8 59 8 32 0 74 7 92 15 l34 14 -37 1 c-42 0 -50 8 -51 55 -1
23 7 43 21 58 12 13 22 30 22 39 0 18 -129 88 -161 88 -11 0 -36 7 -55 15 -34
14 -35 14 -32 -8z m92 -26 c3 -4 -6 -6 -19 -3 -14 2 -25 6 -25 8 0 8 39 4 44
-5z"/>
<path d="M37151 18704 c0 -11 3 -14 6 -6 3 7 2 16 -1 19 -3 4 -6 -2 -5 -13z"/>
<path d="M1265 18700 c4 -6 10 -8 15 -5 5 3 11 1 14 -3 7 -11 56 -3 56 9 0 5
-21 9 -46 9 -28 0 -43 -4 -39 -10z"/>
<path d="M37045 18700 c7 -12 85 -9 85 3 0 4 -21 7 -46 7 -28 0 -43 -4 -39
-10z"/>
<path d="M38365 18510 c-10 -11 -13 -20 -8 -20 13 0 38 29 31 35 -3 3 -13 -4
-23 -15z"/>
<path d="M10 18505 c7 -8 19 -15 27 -15 12 0 12 2 -1 15 -8 8 -20 15 -27 15
-9 0 -8 -4 1 -15z"/>
<path d="M38364 18338 c-54 -41 -103 -102 -91 -114 13 -12 104 -1 119 14 5 5
8 35 6 66 l-3 57 -31 -23z"/>
<path d="M0 18291 l0 -58 48 -13 c26 -6 52 -13 59 -15 6 -2 13 5 16 17 4 14
-8 34 -47 74 -29 30 -58 54 -64 54 -8 0 -12 -20 -12 -59z"/>
<path d="M38386 17662 c-4 -10 -15 -28 -27 -40 -26 -28 -14 -53 19 -41 18 7
22 16 22 54 0 48 -5 57 -14 27z"/>
<path d="M1 17629 c-1 -45 9 -59 40 -59 15 0 10 37 -7 51 -9 7 -20 22 -24 34
-7 15 -9 8 -9 -26z"/>
<path d="M230 17536 c-23 -13 -22 -15 49 -36 85 -25 108 -31 136 -33 11 -1 23
-6 27 -12 5 -6 8 -3 8 6 0 14 -23 25 -75 34 -5 1 -23 7 -38 13 -16 7 -34 12
-40 12 -8 0 -8 3 1 9 11 7 10 10 -3 15 -24 9 -37 7 -65 -8z"/>
<path d="M38103 17539 c1 -6 -29 -21 -66 -33 -37 -13 -73 -28 -80 -35 -10 -11
-8 -12 8 -7 11 3 40 10 65 16 25 5 72 18 105 29 59 18 60 18 32 30 -36 14 -68
14 -64 0z"/>
<path d="M780 17471 c-7 -14 -6 -21 3 -25 6 -3 -3 -3 -21 0 -18 2 -42 -1 -53
-7 -19 -10 -20 -12 -4 -29 9 -10 15 -24 14 -32 -1 -7 -1 -22 0 -32 1 -18 2
-18 20 3 17 19 20 20 32 5 10 -13 10 -17 -2 -25 -9 -5 -10 -9 -2 -9 6 0 15 5
18 11 4 6 13 8 21 5 8 -3 14 -1 14 4 0 6 -3 10 -7 10 -15 0 -9 95 6 106 16 12
7 34 -14 34 -8 0 -19 -9 -25 -19z m-15 -80 c-3 -6 -11 -11 -17 -11 -6 0 -6 6
2 15 14 17 26 13 15 -4z"/>
<path d="M37570 17475 c0 -8 5 -15 11 -15 7 0 10 -21 7 -58 -3 -53 -1 -60 20
-70 12 -5 22 -6 22 -1 0 5 -5 9 -12 9 -6 0 -1 11 12 25 13 14 18 25 12 25 -7
0 -12 4 -12 10 0 5 7 7 15 4 10 -4 13 -14 9 -30 -5 -18 -2 -24 11 -24 13 0 16
6 13 25 -3 16 1 30 13 41 18 16 18 17 -6 30 -18 9 -33 10 -51 4 -33 -13 -41
-13 -27 1 6 6 9 18 6 25 -7 19 -43 18 -43 -1z"/>
<path d="M0 17329 c0 -119 1 -125 22 -134 13 -6 28 -21 35 -35 l13 -25 0 26
c0 35 62 156 100 197 l31 32 -29 0 c-58 0 -92 12 -92 31 0 11 -7 19 -17 19
-10 0 -28 3 -40 6 -23 6 -23 6 -23 -117z"/>
<path d="M38328 17443 c-10 -2 -18 -13 -18 -24 0 -15 -7 -19 -39 -19 -68 0
-74 -7 -40 -43 31 -34 99 -159 99 -185 0 -9 7 -5 21 12 11 14 27 26 35 26 11
0 14 23 14 120 l0 120 -27 -1 c-16 -1 -36 -3 -45 -6z"/>
<path d="M2600 9740 l0 -7140 5450 0 5450 0 0 7140 0 7140 -5450 0 -5450 0 0
-7140z m10730 0 l0 -6970 -5283 -2 -5282 -3 0 6973 0 6972 5282 0 5283 0 0
-6970z"/>
<path d="M2840 9740 l0 -6900 5210 0 5210 0 0 6900 0 6900 -5210 0 -5210 0 0
-6900z m10320 0 l0 -6800 -5110 0 -5110 0 0 6800 0 6800 5110 0 5110 0 0
-6800z"/>
<path d="M14000 11570 l0 -5110 10800 0 10800 0 0 5110 0 5110 -10800 0
-10800 0 0 -5110z"/>
<path d="M272 16451 c-6 -16 -8 -32 -5 -35 4 -3 -2 -6 -11 -6 -13 0 -17 6 -13
19 5 21 -18 37 -29 20 -14 -24 -6 -98 14 -131 22 -34 28 -28 24 27 -2 16 0 17
8 5 8 -13 12 -12 31 7 16 16 19 26 12 35 -5 7 -10 29 -12 47 -2 46 -6 48 -19
12z"/>
<path d="M38110 16465 c-6 -47 -8 -61 -14 -76 -4 -9 2 -23 14 -34 18 -17 23
-17 32 -5 8 12 9 12 4 -2 -3 -10 -2 -27 2 -39 7 -19 10 -16 27 21 17 38 22
101 9 121 -9 16 -36 -4 -31 -22 9 -34 -10 -20 -26 19 -11 27 -16 32 -17 17z"/>
<path d="M340 16395 c-11 -13 -10 -14 4 -9 9 3 16 10 16 15 0 13 -6 11 -20 -6z"/>
<path d="M298 16344 c-35 -19 -43 -51 -27 -112 l12 -49 35 23 c19 13 39 24 43
24 5 0 9 23 9 51 0 41 -3 50 -15 45 -10 -4 -15 1 -15 14 0 24 -6 24 -42 4z"/>
<path d="M38060 16339 c0 -18 -2 -19 -15 -9 -13 11 -15 5 -15 -44 0 -34 4 -56
11 -56 6 0 24 -9 41 -21 16 -12 30 -20 32 -18 1 2 8 23 15 46 18 54 8 89 -29
108 -38 19 -40 19 -40 -6z"/>
<path d="M57 16207 c-15 -33 -16 -43 -4 -77 l13 -39 32 19 c29 18 31 21 20 51
l-11 31 -20 -31 c-11 -18 -22 -30 -25 -27 -3 3 1 12 7 20 7 8 11 32 9 53 l-4
38 -17 -38z"/>
<path d="M38316 16206 c1 -19 9 -44 17 -56 l15 -21 4 25 c5 24 -18 86 -31 86
-3 0 -6 -15 -5 -34z"/>
<path d="M38280 16155 c0 -28 5 -37 30 -50 37 -19 38 -8 8 46 -27 48 -38 49
-38 4z"/>
<path d="M153 16115 c-29 -13 -53 -30 -53 -37 0 -8 -14 -19 -30 -25 -17 -6
-30 -18 -30 -27 0 -19 45 -50 60 -41 6 4 9 1 8 -7 -2 -7 4 -13 12 -13 8 0 16
8 18 19 3 13 0 16 -10 10 -7 -4 -5 1 4 12 17 19 17 21 0 39 -16 18 -16 18 1 5
17 -12 20 -12 29 4 5 9 23 33 40 52 36 41 23 43 -49 9z"/>
<path d="M38192 16113 c30 -34 92 -127 78 -118 -11 7 -14 -17 -4 -28 9 -9 82
32 89 51 4 11 0 21 -11 27 -10 6 -27 20 -39 32 -23 24 -100 62 -124 63 -10 0
-7 -9 11 -27z m88 -58 c-7 -8 -17 -15 -23 -15 -6 0 -2 7 9 15 25 19 30 19 14
0z"/>
<path d="M1155 15130 c-28 -13 -34 -19 -20 -20 l20 -1 -20 -9 c-29 -13 -35
-12 -29 5 9 23 -9 18 -86 -22 -75 -39 -85 -57 -50 -88 12 -11 20 -31 20 -51 0
-53 -8 -64 -49 -64 l-36 -1 25 -14 c15 -8 53 -14 93 -15 37 0 67 -4 67 -9 0
-16 -45 -46 -89 -61 -46 -15 -47 -19 -26 -60 18 -35 64 -68 111 -81 l35 -10
-25 -31 -24 -31 35 -34 c41 -38 43 -39 43 -18 0 8 5 15 11 15 7 0 9 9 6 22 -5
19 14 115 28 137 3 5 1 12 -5 16 -6 4 -7 11 -4 17 4 6 3 8 -2 5 -15 -9 -28 4
-40 39 -10 29 -9 32 42 75 48 40 64 68 35 62 -6 -2 -11 2 -11 8 0 6 9 9 20 6
13 -3 20 0 20 10 0 8 -4 11 -10 8 -5 -3 -10 1 -10 9 0 12 -10 16 -35 16 -24 0
-35 5 -35 15 0 8 -7 15 -17 15 -11 0 -4 11 23 35 24 21 33 34 24 35 -10 0 -5
9 14 25 24 19 26 23 10 22 -14 -2 -19 4 -18 21 1 12 1 22 0 21 0 0 -19 -9 -41
-19z"/>
<path d="M37202 15127 c2 -17 -2 -22 -17 -20 -18 1 -17 0 4 -16 13 -10 21 -23
17 -29 -3 -5 8 -22 24 -36 29 -24 30 -26 13 -46 -10 -11 -30 -20 -45 -20 -24
0 -28 -4 -28 -29 0 -16 -4 -31 -9 -33 -6 -1 16 -25 48 -53 54 -45 58 -51 48
-75 -6 -14 -20 -34 -33 -46 -21 -21 -21 -23 -7 -75 9 -30 15 -69 14 -86 0 -18
4 -33 9 -33 6 0 10 -8 10 -17 0 -15 4 -13 23 8 12 14 30 28 41 32 17 7 17 9
-7 41 -27 35 -26 46 3 46 42 0 130 85 130 125 0 2 -21 10 -47 19 -46 16 -83
41 -83 58 0 4 26 8 59 8 32 0 74 7 92 15 l34 14 -37 1 c-42 0 -50 8 -51 55 -1
23 7 43 21 58 12 13 22 30 22 39 0 18 -129 88 -161 88 -11 0 -36 7 -55 15 -34
14 -35 14 -32 -8z m92 -26 c3 -4 -6 -6 -19 -3 -14 2 -25 6 -25 8 0 8 39 4 44
-5z"/>
<path d="M37151 14924 c0 -11 3 -14 6 -6 3 7 2 16 -1 19 -3 4 -6 -2 -5 -13z"/>
<path d="M1265 14920 c4 -6 10 -8 15 -5 5 3 11 1 14 -3 7 -11 56 -3 56 9 0 5
-21 9 -46 9 -28 0 -43 -4 -39 -10z"/>
<path d="M37045 14920 c7 -12 85 -9 85 3 0 4 -21 7 -46 7 -28 0 -43 -4 -39
-10z"/>
<path d="M38365 14730 c-10 -11 -13 -20 -8 -20 13 0 38 29 31 35 -3 3 -13 -4
-23 -15z"/>
<path d="M10 14725 c7 -8 19 -15 27 -15 12 0 12 2 -1 15 -8 8 -20 15 -27 15
-9 0 -8 -4 1 -15z"/>
<path d="M38364 14558 c-54 -41 -103 -102 -91 -114 13 -12 104 -1 119 14 5 5
8 35 6 66 l-3 57 -31 -23z"/>
<path d="M0 14511 l0 -58 48 -13 c26 -6 52 -13 59 -15 6 -2 13 5 16 17 4 14
-8 34 -47 74 -29 30 -58 54 -64 54 -8 0 -12 -20 -12 -59z"/>
<path d="M38386 13882 c-4 -10 -15 -28 -27 -40 -26 -28 -14 -53 19 -41 18 7
22 16 22 54 0 48 -5 57 -14 27z"/>
<path d="M1 13849 c-1 -45 9 -59 40 -59 15 0 10 37 -7 51 -9 7 -20 22 -24 34
-7 15 -9 8 -9 -26z"/>
<path d="M230 13756 c-23 -13 -22 -15 49 -36 85 -25 108 -31 136 -33 11 -1 23
-6 27 -12 5 -6 8 -3 8 6 0 14 -23 25 -75 34 -5 1 -23 7 -38 13 -16 7 -34 12
-40 12 -8 0 -8 3 1 9 11 7 10 10 -3 15 -24 9 -37 7 -65 -8z"/>
<path d="M38103 13759 c1 -6 -29 -21 -66 -33 -37 -13 -73 -28 -80 -35 -10 -11
-8 -12 8 -7 11 3 40 10 65 16 25 5 72 18 105 29 59 18 60 18 32 30 -36 14 -68
14 -64 0z"/>
<path d="M780 13691 c-7 -14 -6 -21 3 -25 6 -3 -3 -3 -21 0 -18 2 -42 -1 -53
-7 -19 -10 -20 -12 -4 -29 9 -10 15 -24 14 -32 -1 -7 -1 -22 0 -32 1 -18 2
-18 20 3 17 19 20 20 32 5 10 -13 10 -17 -2 -25 -9 -5 -10 -9 -2 -9 6 0 15 5
18 11 4 6 13 8 21 5 8 -3 14 -1 14 4 0 6 -3 10 -7 10 -15 0 -9 95 6 106 16 12
7 34 -14 34 -8 0 -19 -9 -25 -19z m-15 -80 c-3 -6 -11 -11 -17 -11 -6 0 -6 6
2 15 14 17 26 13 15 -4z"/>
<path d="M37570 13695 c0 -8 5 -15 11 -15 7 0 10 -21 7 -58 -3 -53 -1 -60 20
-70 12 -5 22 -6 22 -1 0 5 -5 9 -12 9 -6 0 -1 11 12 25 13 14 18 25 12 25 -7
0 -12 4 -12 10 0 5 7 7 15 4 10 -4 13 -14 9 -30 -5 -18 -2 -24 11 -24 13 0 16
6 13 25 -3 16 1 30 13 41 18 16 18 17 -6 30 -18 9 -33 10 -51 4 -33 -13 -41
-13 -27 1 6 6 9 18 6 25 -7 19 -43 18 -43 -1z"/>
<path d="M0 13549 c0 -118 1 -125 22 -134 12 -6 26 -19 32 -30 6 -10 19 -26
29 -35 9 -8 26 -37 36 -65 l19 -50 16 39 c9 22 33 91 52 155 20 64 43 128 50
143 l14 27 -58 6 c-122 13 -132 16 -132 36 0 11 -7 19 -17 19 -10 0 -28 3 -40
6 -23 6 -23 6 -23 -117z"/>
<path d="M38328 13663 c-10 -2 -18 -13 -18 -22 0 -16 -12 -19 -78 -25 -103 -9
-109 -13 -84 -62 10 -22 25 -61 32 -89 21 -80 71 -215 80 -215 4 0 11 15 14
33 3 19 19 48 34 65 15 18 35 43 45 57 10 14 24 25 32 25 12 0 15 22 15 120
l0 120 -27 -1 c-16 -1 -36 -3 -45 -6z"/>
<path d="M37813 13623 c-24 -8 -43 -19 -43 -23 0 -11 50 -47 84 -60 14 -5 26
-14 26 -19 0 -14 -59 -31 -110 -31 -39 0 -49 4 -53 20 -8 30 -32 24 -34 -7 -1
-17 -12 -36 -29 -50 -24 -19 -26 -24 -13 -39 13 -15 14 -15 19 6 8 36 27 36
22 0 -2 -17 -18 -45 -35 -63 -24 -25 -31 -43 -35 -84 -4 -43 -1 -54 12 -59 18
-7 38 10 68 57 18 28 99 73 133 74 13 0 20 7 20 19 0 10 8 22 18 25 10 4 18
10 18 14 -3 23 2 27 28 27 35 0 169 -85 194 -123 10 -15 21 -27 26 -27 16 0
-16 99 -48 148 -16 26 -43 77 -60 114 -29 65 -31 67 -82 82 -61 19 -70 18
-126 -1z"/>
<path d="M441 13616 c-19 -7 -38 -19 -42 -27 -4 -8 -24 -48 -45 -89 -20 -41
-44 -86 -54 -100 -17 -25 -44 -119 -37 -127 3 -2 14 9 26 26 21 29 135 111
175 125 28 10 56 -3 56 -25 0 -10 7 -19 15 -19 8 0 15 -9 15 -20 0 -14 7 -20
23 -20 37 -1 104 -37 123 -67 10 -15 24 -32 31 -36 7 -4 13 -15 13 -22 0 -19
15 -19 34 0 26 26 10 103 -28 141 -21 20 -31 41 -33 62 -1 27 1 31 13 21 8 -6
14 -18 14 -26 0 -13 3 -13 15 -3 21 17 19 23 -14 41 -28 16 -30 22 -32 94 -1
13 -8 6 -20 -22 l-19 -42 -50 4 c-27 3 -63 10 -81 18 l-32 13 58 34 c33 19 60
40 62 46 4 13 -71 34 -119 33 -18 0 -48 -6 -67 -13z"/>
<path d="M37691 13554 c0 -11 3 -14 6 -6 3 7 2 16 -1 19 -3 4 -6 -2 -5 -13z"/>
<path d="M272 12271 c-6 -16 -8 -32 -5 -35 4 -3 -2 -6 -11 -6 -13 0 -17 6 -13
19 5 21 -18 37 -29 20 -14 -24 -6 -98 14 -131 22 -34 28 -28 24 27 -2 16 0 17
8 5 8 -13 12 -12 31 7 16 16 19 26 12 35 -5 7 -10 29 -12 47 -2 46 -6 48 -19
12z"/>
<path d="M38110 12285 c-6 -47 -8 -61 -14 -76 -4 -9 2 -23 14 -34 18 -17 23
-17 32 -5 8 12 9 12 4 -2 -3 -10 -2 -27 2 -39 7 -19 10 -16 27 21 17 38 22
101 9 121 -9 16 -36 -4 -31 -22 9 -34 -10 -20 -26 19 -11 27 -16 32 -17 17z"/>
<path d="M340 12215 c-11 -13 -10 -14 4 -9 9 3 16 10 16 15 0 13 -6 11 -20 -6z"/>
<path d="M298 12164 c-35 -19 -43 -51 -27 -112 l12 -49 35 23 c19 13 39 24 43
24 5 0 9 23 9 51 0 41 -3 50 -15 45 -10 -4 -15 1 -15 14 0 24 -6 24 -42 4z"/>
<path d="M38060 12159 c0 -18 -2 -19 -15 -9 -13 11 -15 5 -15 -44 0 -34 4 -56
11 -56 6 0 24 -9 41 -21 16 -12 30 -20 32 -18 1 2 8 23 15 46 18 54 8 89 -29
108 -38 19 -40 19 -40 -6z"/>
<path d="M57 12027 c-15 -33 -16 -43 -4 -77 l13 -39 32 19 c29 18 31 21 20 51
l-11 31 -20 -31 c-11 -18 -22 -30 -25 -27 -3 3 1 12 7 20 7 8 11 32 9 53 l-4
38 -17 -38z"/>
<path d="M38316 12026 c1 -19 9 -44 17 -56 l15 -21 4 25 c5 24 -18 86 -31 86
-3 0 -6 -15 -5 -34z"/>
<path d="M38280 11975 c0 -28 5 -37 30 -50 37 -19 38 -8 8 46 -27 48 -38 49
-38 4z"/>
<path d="M153 11935 c-29 -13 -53 -30 -53 -37 0 -8 -14 -19 -30 -25 -17 -6
-30 -18 -30 -27 0 -19 45 -50 60 -41 6 4 9 1 8 -7 -2 -7 4 -13 12 -13 8 0 16
8 18 19 3 13 0 16 -10 10 -7 -4 -5 1 4 12 17 19 17 21 0 39 -16 18 -16 18 1 5
17 -12 20 -12 29 4 5 9 23 33 40 52 36 41 23 43 -49 9z"/>
<path d="M38192 11933 c30 -34 92 -127 78 -118 -11 7 -14 -17 -4 -28 9 -9 82
32 89 51 4 11 0 21 -11 27 -10 6 -27 20 -39 32 -23 24 -100 62 -124 63 -10 0
-7 -9 11 -27z m88 -58 c-7 -8 -17 -15 -23 -15 -6 0 -2 7 9 15 25 19 30 19 14
0z"/>
<path d="M1155 10950 c-28 -13 -34 -19 -20 -20 l20 -1 -20 -9 c-29 -13 -35
-12 -29 5 9 23 -9 18 -86 -22 -75 -39 -85 -57 -50 -88 12 -11 20 -31 20 -51 0
-53 -8 -64 -49 -64 l-36 -1 25 -14 c15 -8 53 -14 93 -15 37 0 67 -4 67 -9 0
-16 -45 -46 -89 -61 -46 -15 -47 -19 -26 -60 18 -35 64 -68 111 -81 l35 -10
-25 -31 -24 -31 35 -34 c41 -38 43 -39 43 -18 0 8 5 15 11 15 7 0 9 9 6 22 -5
19 14 115 28 137 3 5 1 12 -5 16 -6 4 -7 11 -4 17 4 6 3 8 -2 5 -15 -9 -28 4
-40 39 -10 29 -9 32 42 75 48 40 64 68 35 62 -6 -2 -11 2 -11 8 0 6 9 9 20 6
13 -3 20 0 20 10 0 8 -4 11 -10 8 -5 -3 -10 1 -10 9 0 12 -10 16 -35 16 -24 0
-35 5 -35 15 0 8 -7 15 -17 15 -11 0 -4 11 23 35 24 21 33 34 24 35 -10 0 -5
9 14 25 24 19 26 23 10 22 -14 -2 -19 4 -18 21 1 12 1 22 0 21 0 0 -19 -9 -41
-19z"/>
<path d="M37202 10947 c2 -17 -2 -22 -17 -20 -18 1 -17 0 4 -16 13 -10 21 -23
17 -29 -3 -5 8 -22 24 -36 29 -24 30 -26 13 -46 -10 -11 -30 -20 -45 -20 -24
0 -28 -4 -28 -29 0 -16 -4 -31 -9 -33 -6 -1 16 -25 48 -53 54 -45 58 -51 48
-75 -6 -14 -20 -34 -33 -46 -21 -21 -21 -23 -7 -75 9 -30 15 -69 14 -86 0 -18
4 -33 9 -33 6 0 10 -8 10 -17 0 -15 4 -13 23 8 12 14 30 28 41 32 17 7 17 9
-7 41 -27 35 -26 46 3 46 42 0 130 85 130 125 0 2 -21 10 -47 19 -46 16 -83
41 -83 58 0 4 26 8 59 8 32 0 74 7 92 15 l34 14 -37 1 c-42 0 -50 8 -51 55 -1
23 7 43 21 58 12 13 22 30 22 39 0 18 -129 88 -161 88 -11 0 -36 7 -55 15 -34
14 -35 14 -32 -8z m92 -26 c3 -4 -6 -6 -19 -3 -14 2 -25 6 -25 8 0 8 39 4 44
-5z"/>
<path d="M37151 10744 c0 -11 3 -14 6 -6 3 7 2 16 -1 19 -3 4 -6 -2 -5 -13z"/>
<path d="M1265 10740 c4 -6 10 -8 15 -5 5 3 11 1 14 -3 7 -11 56 -3 56 9 0 5
-21 9 -46 9 -28 0 -43 -4 -39 -10z"/>
<path d="M37045 10740 c7 -12 85 -9 85 3 0 4 -21 7 -46 7 -28 0 -43 -4 -39
-10z"/>
<path d="M38365 10550 c-10 -11 -13 -20 -8 -20 13 0 38 29 31 35 -3 3 -13 -4
-23 -15z"/>
<path d="M10 10545 c7 -8 19 -15 27 -15 12 0 12 2 -1 15 -8 8 -20 15 -27 15
-9 0 -8 -4 1 -15z"/>
<path d="M38364 10378 c-54 -41 -103 -102 -91 -114 13 -12 104 -1 119 14 5 5
8 35 6 66 l-3 57 -31 -23z"/>
<path d="M0 10331 l0 -58 48 -13 c26 -6 52 -13 59 -15 6 -2 13 5 16 17 4 14
-8 34 -47 74 -29 30 -58 54 -64 54 -8 0 -12 -20 -12 -59z"/>
<path d="M38386 9702 c-4 -10 -15 -28 -27 -40 -26 -28 -14 -53 19 -41 18 7 22
16 22 54 0 48 -5 57 -14 27z"/>
<path d="M1 9669 c-1 -45 9 -59 40 -59 15 0 10 37 -7 51 -9 7 -20 22 -24 34
-7 15 -9 8 -9 -26z"/>
<path d="M230 9576 c-23 -13 -22 -15 49 -36 85 -25 108 -31 136 -33 11 -1 23
-6 27 -12 5 -6 8 -3 8 6 0 14 -23 25 -75 34 -5 1 -23 7 -38 13 -16 7 -34 12
-40 12 -8 0 -8 3 1 9 11 7 10 10 -3 15 -24 9 -37 7 -65 -8z"/>
<path d="M38103 9579 c1 -6 -29 -21 -66 -33 -37 -13 -73 -28 -80 -35 -10 -11
-8 -12 8 -7 11 3 40 10 65 16 25 5 72 18 105 29 59 18 60 18 32 30 -36 14 -68
14 -64 0z"/>
<path d="M780 9511 c-7 -14 -6 -21 3 -25 6 -3 -3 -3 -21 0 -18 2 -42 -1 -53
-7 -19 -10 -20 -12 -4 -29 9 -10 15 -24 14 -32 -1 -7 -1 -22 0 -32 1 -18 2
-18 20 3 17 19 20 20 32 5 10 -13 10 -17 -2 -25 -9 -5 -10 -9 -2 -9 6 0 15 5
18 11 4 6 13 8 21 5 8 -3 14 -1 14 4 0 6 -3 10 -7 10 -15 0 -9 95 6 106 16 12
7 34 -14 34 -8 0 -19 -9 -25 -19z m-15 -80 c-3 -6 -11 -11 -17 -11 -6 0 -6 6
2 15 14 17 26 13 15 -4z"/>
<path d="M37570 9515 c0 -8 5 -15 11 -15 7 0 10 -21 7 -58 -3 -53 -1 -60 20
-70 12 -5 22 -6 22 -1 0 5 -5 9 -12 9 -6 0 -1 11 12 25 13 14 18 25 12 25 -7
0 -12 4 -12 10 0 5 7 7 15 4 10 -4 13 -14 9 -30 -5 -18 -2 -24 11 -24 13 0 16
6 13 25 -3 16 1 30 13 41 18 16 18 17 -6 30 -18 9 -33 10 -51 4 -33 -13 -41
-13 -27 1 6 6 9 18 6 25 -7 19 -43 18 -43 -1z"/>
<path d="M0 9369 c0 -118 1 -125 22 -134 12 -6 26 -19 32 -30 6 -10 19 -26 29
-35 9 -8 26 -37 36 -65 l19 -50 16 39 c9 22 33 91 52 155 20 64 43 128 50 143
l14 27 -58 6 c-122 13 -132 16 -132 36 0 11 -7 19 -17 19 -10 0 -28 3 -40 6
-23 6 -23 6 -23 -117z"/>
<path d="M38328 9483 c-10 -2 -18 -13 -18 -22 0 -16 -12 -19 -78 -25 -103 -9
-109 -13 -84 -62 10 -22 25 -61 32 -89 21 -80 71 -215 80 -215 4 0 11 15 14
33 3 19 19 48 34 65 15 18 35 43 45 57 10 14 24 25 32 25 12 0 15 22 15 120
l0 120 -27 -1 c-16 -1 -36 -3 -45 -6z"/>
<path d="M37813 9443 c-24 -8 -43 -19 -43 -23 0 -11 50 -47 84 -60 14 -5 26
-14 26 -19 0 -14 -59 -31 -110 -31 -39 0 -49 4 -53 20 -8 30 -32 24 -34 -7 -1
-17 -12 -36 -29 -50 -24 -19 -26 -24 -13 -39 13 -15 14 -15 19 6 8 36 27 36
22 0 -2 -17 -18 -45 -35 -63 -24 -25 -31 -43 -35 -84 -4 -43 -1 -54 12 -59 18
-7 38 10 68 57 18 28 99 73 133 74 13 0 20 7 20 19 0 10 8 22 18 25 10 4 18
10 18 14 -3 23 2 27 28 27 35 0 169 -85 194 -123 10 -15 21 -27 26 -27 16 0
-16 99 -48 148 -16 26 -43 77 -60 114 -29 65 -31 67 -82 82 -61 19 -70 18
-126 -1z"/>
<path d="M441 9436 c-19 -7 -38 -19 -42 -27 -4 -8 -24 -48 -45 -89 -20 -41
-44 -86 -54 -100 -17 -25 -44 -119 -37 -127 3 -2 14 9 26 26 21 29 135 111
175 125 28 10 56 -3 56 -25 0 -10 7 -19 15 -19 8 0 15 -9 15 -20 0 -14 7 -20
23 -20 37 -1 104 -37 123 -67 10 -15 24 -32 31 -36 7 -4 13 -15 13 -22 0 -19
15 -19 34 0 26 26 10 103 -28 141 -21 20 -31 41 -33 62 -1 27 1 31 13 21 8 -6
14 -18 14 -26 0 -13 3 -13 15 -3 21 17 19 23 -14 41 -28 16 -30 22 -32 94 -1
13 -8 6 -20 -22 l-19 -42 -50 4 c-27 3 -63 10 -81 18 l-32 13 58 34 c33 19 60
40 62 46 4 13 -71 34 -119 33 -18 0 -48 -6 -67 -13z"/>
<path d="M37691 9374 c0 -11 3 -14 6 -6 3 7 2 16 -1 19 -3 4 -6 -2 -5 -13z"/>
<path d="M272 7971 c-6 -16 -8 -32 -5 -35 4 -3 -2 -6 -11 -6 -13 0 -17 6 -13
19 5 21 -18 37 -29 20 -14 -24 -6 -98 14 -131 22 -34 28 -28 24 27 -2 16 0 17
8 5 8 -13 12 -12 31 7 16 16 19 26 12 35 -5 7 -10 29 -12 47 -2 46 -6 48 -19
12z"/>
<path d="M38110 7985 c-6 -47 -8 -61 -14 -76 -4 -9 2 -23 14 -34 18 -17 23
-17 32 -5 8 12 9 12 4 -2 -3 -10 -2 -27 2 -39 7 -19 10 -16 27 21 17 38 22
101 9 121 -9 16 -36 -4 -31 -22 9 -34 -10 -20 -26 19 -11 27 -16 32 -17 17z"/>
<path d="M340 7915 c-11 -13 -10 -14 4 -9 9 3 16 10 16 15 0 13 -6 11 -20 -6z"/>
<path d="M298 7864 c-35 -19 -43 -51 -27 -112 l12 -49 35 23 c19 13 39 24 43
24 5 0 9 23 9 51 0 41 -3 50 -15 45 -10 -4 -15 1 -15 14 0 24 -6 24 -42 4z"/>
<path d="M38060 7859 c0 -18 -2 -19 -15 -9 -13 11 -15 5 -15 -44 0 -34 4 -56
11 -56 6 0 24 -9 41 -21 16 -12 30 -20 32 -18 1 2 8 23 15 46 18 54 8 89 -29
108 -38 19 -40 19 -40 -6z"/>
<path d="M57 7727 c-15 -33 -16 -43 -4 -77 l13 -39 32 19 c29 18 31 21 20 51
l-11 31 -20 -31 c-11 -18 -22 -30 -25 -27 -3 3 1 12 7 20 7 8 11 32 9 53 l-4
38 -17 -38z"/>
<path d="M38316 7726 c1 -19 9 -44 17 -56 l15 -21 4 25 c5 24 -18 86 -31 86
-3 0 -6 -15 -5 -34z"/>
<path d="M38280 7675 c0 -28 5 -37 30 -50 37 -19 38 -8 8 46 -27 48 -38 49
-38 4z"/>
<path d="M153 7635 c-29 -13 -53 -30 -53 -37 0 -8 -14 -19 -30 -25 -17 -6 -30
-18 -30 -27 0 -19 45 -50 60 -41 6 4 9 1 8 -7 -2 -7 4 -13 12 -13 8 0 16 8 18
19 3 13 0 16 -10 10 -7 -4 -5 1 4 12 17 19 17 21 0 39 -16 18 -16 18 1 5 17
-12 20 -12 29 4 5 9 23 33 40 52 36 41 23 43 -49 9z"/>
<path d="M38192 7633 c30 -34 92 -127 78 -118 -11 7 -14 -17 -4 -28 9 -9 82
32 89 51 4 11 0 21 -11 27 -10 6 -27 20 -39 32 -23 24 -100 62 -124 63 -10 0
-7 -9 11 -27z m88 -58 c-7 -8 -17 -15 -23 -15 -6 0 -2 7 9 15 25 19 30 19 14
0z"/>
<path d="M1155 6650 c-28 -13 -34 -19 -20 -20 l20 -1 -20 -9 c-29 -13 -35 -12
-29 5 9 23 -9 18 -86 -22 -75 -39 -85 -57 -50 -88 12 -11 20 -31 20 -51 0 -53
-8 -64 -49 -64 l-36 -1 25 -14 c15 -8 53 -14 93 -15 37 0 67 -4 67 -9 0 -16
-45 -46 -89 -61 -46 -15 -47 -19 -26 -60 18 -35 64 -68 111 -81 l35 -10 -25
-31 -24 -31 35 -34 c41 -38 43 -39 43 -18 0 8 5 15 11 15 7 0 9 9 6 22 -5 19
14 115 28 137 3 5 1 12 -5 16 -6 4 -7 11 -4 17 4 6 3 8 -2 5 -15 -9 -28 4 -40
39 -10 29 -9 32 42 75 48 40 64 68 35 62 -6 -2 -11 2 -11 8 0 6 9 9 20 6 13
-3 20 0 20 10 0 8 -4 11 -10 8 -5 -3 -10 1 -10 9 0 12 -10 16 -35 16 -24 0
-35 5 -35 15 0 8 -7 15 -17 15 -11 0 -4 11 23 35 24 21 33 34 24 35 -10 0 -5
9 14 25 24 19 26 23 10 22 -14 -2 -19 4 -18 21 1 12 1 22 0 21 0 0 -19 -9 -41
-19z"/>
<path d="M37202 6647 c2 -17 -2 -22 -17 -20 -18 1 -17 0 4 -16 13 -10 21 -23
17 -29 -3 -5 8 -22 24 -36 29 -24 30 -26 13 -46 -10 -11 -30 -20 -45 -20 -24
0 -28 -4 -28 -29 0 -16 -4 -31 -9 -33 -6 -1 16 -25 48 -53 54 -45 58 -51 48
-75 -6 -14 -20 -34 -33 -46 -21 -21 -21 -23 -7 -75 9 -30 15 -69 14 -86 0 -18
4 -33 9 -33 6 0 10 -8 10 -17 0 -15 4 -13 23 8 12 14 30 28 41 32 17 7 17 9
-7 41 -27 35 -26 46 3 46 42 0 130 85 130 125 0 2 -21 10 -47 19 -46 16 -83
41 -83 58 0 4 26 8 59 8 32 0 74 7 92 15 l34 14 -37 1 c-42 0 -50 8 -51 55 -1
23 7 43 21 58 12 13 22 30 22 39 0 18 -129 88 -161 88 -11 0 -36 7 -55 15 -34
14 -35 14 -32 -8z m92 -26 c3 -4 -6 -6 -19 -3 -14 2 -25 6 -25 8 0 8 39 4 44
-5z"/>
<path d="M37151 6444 c0 -11 3 -14 6 -6 3 7 2 16 -1 19 -3 4 -6 -2 -5 -13z"/>
<path d="M1265 6440 c4 -6 10 -8 15 -5 5 3 11 1 14 -3 7 -11 56 -3 56 9 0 5
-21 9 -46 9 -28 0 -43 -4 -39 -10z"/>
<path d="M37045 6440 c7 -12 85 -9 85 3 0 4 -21 7 -46 7 -28 0 -43 -4 -39 -10z"/>
<path d="M38365 6250 c-10 -11 -13 -20 -8 -20 13 0 38 29 31 35 -3 3 -13 -4
-23 -15z"/>
<path d="M10 6245 c7 -8 19 -15 27 -15 12 0 12 2 -1 15 -8 8 -20 15 -27 15 -9
0 -8 -4 1 -15z"/>
<path d="M38364 6078 c-54 -41 -103 -102 -91 -114 13 -12 104 -1 119 14 5 5 8
35 6 66 l-3 57 -31 -23z"/>
<path d="M0 6031 l0 -58 48 -13 c26 -6 52 -13 59 -15 6 -2 13 5 16 17 4 14 -8
34 -47 74 -29 30 -58 54 -64 54 -8 0 -12 -20 -12 -59z"/>
<path d="M38386 5402 c-4 -10 -15 -28 -27 -40 -26 -28 -14 -53 19 -41 18 7 22
16 22 54 0 48 -5 57 -14 27z"/>
<path d="M1 5369 c-1 -45 9 -59 40 -59 15 0 10 37 -7 51 -9 7 -20 22 -24 34
-7 15 -9 8 -9 -26z"/>
<path d="M0 5122 c0 -91 32 -177 61 -161 17 9 19 18 13 112 -4 56 -7 103 -8
103 0 1 -16 5 -33 9 l-33 7 0 -70z"/>
<path d="M38335 5178 c-2 -7 -6 -57 -10 -110 -6 -88 -4 -98 13 -107 16 -9 21
-4 40 42 15 36 22 73 22 120 l0 67 -30 0 c-17 0 -32 -6 -35 -12z"/>
<path d="M272 4511 c-6 -16 -8 -32 -5 -35 4 -3 -2 -6 -11 -6 -13 0 -17 6 -13
19 5 21 -18 37 -29 20 -14 -24 -6 -98 14 -131 22 -34 28 -28 24 27 -2 16 0 17
8 5 8 -13 12 -12 31 7 16 16 19 26 12 35 -5 7 -10 29 -12 47 -2 46 -6 48 -19
12z"/>
<path d="M38110 4525 c-6 -47 -8 -61 -14 -76 -4 -9 2 -23 14 -34 18 -17 23
-17 32 -5 8 12 9 12 4 -2 -3 -10 -2 -27 2 -39 7 -19 10 -16 27 21 17 38 22
101 9 121 -9 16 -36 -4 -31 -22 9 -34 -10 -20 -26 19 -11 27 -16 32 -17 17z"/>
<path d="M340 4455 c-11 -13 -10 -14 4 -9 9 3 16 10 16 15 0 13 -6 11 -20 -6z"/>
<path d="M298 4404 c-35 -19 -43 -51 -27 -112 l12 -49 35 23 c19 13 39 24 43
24 5 0 9 23 9 51 0 41 -3 50 -15 45 -10 -4 -15 1 -15 14 0 24 -6 24 -42 4z"/>
<path d="M38060 4399 c0 -18 -2 -19 -15 -9 -13 11 -15 5 -15 -44 0 -34 4 -56
11 -56 6 0 24 -9 41 -21 16 -12 30 -20 32 -18 1 2 8 23 15 46 18 54 8 89 -29
108 -38 19 -40 19 -40 -6z"/>
<path d="M57 4267 c-15 -33 -16 -43 -4 -77 l13 -39 32 19 c29 18 31 21 20 51
l-11 31 -20 -31 c-11 -18 -22 -30 -25 -27 -3 3 1 12 7 20 7 8 11 32 9 53 l-4
38 -17 -38z"/>
<path d="M38316 4266 c1 -19 9 -44 17 -56 l15 -21 4 25 c5 24 -18 86 -31 86
-3 0 -6 -15 -5 -34z"/>
<path d="M38280 4215 c0 -28 5 -37 30 -50 37 -19 38 -8 8 46 -27 48 -38 49
-38 4z"/>
<path d="M153 4175 c-29 -13 -53 -30 -53 -37 0 -8 -14 -19 -30 -25 -17 -6 -30
-18 -30 -27 0 -19 45 -50 60 -41 6 4 9 1 8 -7 -2 -7 4 -13 12 -13 8 0 16 8 18
19 3 13 0 16 -10 10 -7 -4 -5 1 4 12 17 19 17 21 0 39 -16 18 -16 18 1 5 17
-12 20 -12 29 4 5 9 23 33 40 52 36 41 23 43 -49 9z"/>
<path d="M38192 4173 c30 -34 92 -127 78 -118 -11 7 -14 -17 -4 -28 9 -9 82
32 89 51 4 11 0 21 -11 27 -10 6 -27 20 -39 32 -23 24 -100 62 -124 63 -10 0
-7 -9 11 -27z m88 -58 c-7 -8 -17 -15 -23 -15 -6 0 -2 7 9 15 25 19 30 19 14
0z"/>
<path d="M1155 3190 c-28 -13 -34 -19 -20 -20 l20 -1 -20 -9 c-29 -13 -35 -12
-29 5 9 23 -9 18 -86 -22 -75 -39 -85 -57 -50 -88 12 -11 20 -31 20 -51 0 -53
-8 -64 -49 -64 l-36 -1 25 -14 c15 -8 53 -14 93 -15 37 0 67 -4 67 -9 0 -16
-45 -46 -89 -61 -46 -15 -47 -19 -26 -60 18 -35 64 -68 111 -81 l35 -10 -25
-31 -24 -31 35 -34 c41 -38 43 -39 43 -18 0 8 5 15 11 15 7 0 9 9 6 22 -5 19
14 115 28 137 3 5 1 12 -5 16 -6 4 -7 11 -4 17 4 6 3 8 -2 5 -15 -9 -28 4 -40
39 -10 29 -9 32 42 75 48 40 64 68 35 62 -6 -2 -11 2 -11 8 0 6 9 9 20 6 13
-3 20 0 20 10 0 8 -4 11 -10 8 -5 -3 -10 1 -10 9 0 12 -10 16 -35 16 -24 0
-35 5 -35 15 0 8 -7 15 -17 15 -11 0 -4 11 23 35 24 21 33 34 24 35 -10 0 -5
9 14 25 24 19 26 23 10 22 -14 -2 -19 4 -18 21 1 12 1 22 0 21 0 0 -19 -9 -41
-19z"/>
<path d="M37202 3187 c2 -17 -2 -22 -17 -20 -18 1 -17 0 4 -16 13 -10 21 -23
17 -29 -3 -5 8 -22 24 -36 29 -24 30 -26 13 -46 -10 -11 -30 -20 -45 -20 -24
0 -28 -4 -28 -29 0 -16 -4 -31 -9 -33 -6 -1 16 -25 48 -53 54 -45 58 -51 48
-75 -6 -14 -20 -34 -33 -46 -21 -21 -21 -23 -7 -75 9 -30 15 -69 14 -86 0 -18
4 -33 9 -33 6 0 10 -8 10 -17 0 -15 4 -13 23 8 12 14 30 28 41 32 17 7 17 9
-7 41 -27 35 -26 46 3 46 42 0 130 85 130 125 0 2 -21 10 -47 19 -46 16 -83
41 -83 58 0 4 26 8 59 8 32 0 74 7 92 15 l34 14 -37 1 c-42 0 -50 8 -51 55 -1
23 7 43 21 58 12 13 22 30 22 39 0 18 -129 88 -161 88 -11 0 -36 7 -55 15 -34
14 -35 14 -32 -8z m92 -26 c3 -4 -6 -6 -19 -3 -14 2 -25 6 -25 8 0 8 39 4 44
-5z"/>
<path d="M37151 2984 c0 -11 3 -14 6 -6 3 7 2 16 -1 19 -3 4 -6 -2 -5 -13z"/>
<path d="M1265 2980 c4 -6 10 -8 15 -5 5 3 11 1 14 -3 7 -11 56 -3 56 9 0 5
-21 9 -46 9 -28 0 -43 -4 -39 -10z"/>
<path d="M37045 2980 c7 -12 85 -9 85 3 0 4 -21 7 -46 7 -28 0 -43 -4 -39 -10z"/>
<path d="M38365 2790 c-10 -11 -13 -20 -8 -20 13 0 38 29 31 35 -3 3 -13 -4
-23 -15z"/>
<path d="M10 2785 c7 -8 19 -15 27 -15 12 0 12 2 -1 15 -8 8 -20 15 -27 15 -9
0 -8 -4 1 -15z"/>
<path d="M38364 2618 c-54 -41 -103 -102 -91 -114 13 -12 104 -1 119 14 5 5 8
35 6 66 l-3 57 -31 -23z"/>
<path d="M0 2571 l0 -58 48 -13 c26 -6 52 -13 59 -15 6 -2 13 5 16 17 4 14 -8
34 -47 74 -29 30 -58 54 -64 54 -8 0 -12 -20 -12 -59z"/>
<path d="M38387 1944 c-4 -11 -16 -30 -27 -42 -25 -27 -17 -55 14 -46 29 9 28
6 24 60 -2 36 -5 44 -11 28z"/>
<path d="M1 1909 c-1 -45 9 -59 40 -59 15 0 10 37 -7 51 -9 7 -20 22 -24 34
-7 15 -9 8 -9 -26z"/>
<path d="M230 1816 c-23 -14 -22 -15 44 -35 73 -22 109 -31 141 -34 11 -1 23
-6 27 -12 5 -6 8 -3 8 6 0 14 -23 25 -75 34 -5 1 -23 7 -38 13 -16 7 -34 12
-40 12 -8 0 -8 3 1 9 11 7 10 10 -3 15 -24 9 -37 7 -65 -8z"/>
<path d="M38103 1819 c1 -6 -29 -21 -66 -33 -37 -13 -73 -28 -80 -35 -10 -11
-8 -12 8 -7 11 3 40 10 65 16 25 5 72 18 105 29 59 18 60 18 32 30 -36 14 -68
14 -64 0z"/>
<path d="M780 1751 c-7 -14 -6 -21 3 -25 6 -3 -3 -3 -21 0 -18 2 -42 -1 -53
-7 -19 -10 -20 -12 -4 -29 9 -10 15 -24 14 -32 -1 -7 -1 -22 0 -32 1 -18 2
-18 20 3 17 19 20 20 32 5 10 -13 10 -17 -2 -25 -9 -5 -10 -9 -2 -9 6 0 15 5
18 11 4 6 13 8 21 5 8 -3 14 -1 14 4 0 6 -3 10 -7 10 -15 0 -9 95 6 106 16 12
7 34 -14 34 -8 0 -19 -9 -25 -19z m-15 -80 c-3 -6 -11 -11 -17 -11 -6 0 -6 6
2 15 14 17 26 13 15 -4z"/>
<path d="M37570 1755 c0 -8 5 -15 11 -15 7 0 10 -21 7 -58 -3 -53 -1 -60 20
-70 12 -5 22 -6 22 -1 0 5 -5 9 -12 9 -6 0 -1 11 12 25 13 14 18 25 12 25 -7
0 -12 4 -12 10 0 5 7 7 15 4 10 -4 13 -14 9 -30 -5 -18 -2 -24 11 -24 13 0 16
6 13 25 -3 16 1 30 13 41 18 16 18 17 -6 30 -18 9 -33 10 -51 4 -33 -13 -41
-13 -27 1 6 6 9 18 6 25 -7 19 -43 18 -43 -1z"/>
<path d="M38375 1733 c-11 -2 -30 -6 -42 -9 -15 -3 -23 -12 -23 -24 0 -17 -7
-20 -42 -20 -46 -1 -125 -14 -134 -23 -3 -3 3 -22 14 -44 10 -21 25 -60 32
-88 21 -80 71 -215 80 -215 4 0 11 15 14 33 3 19 19 48 34 65 15 18 35 43 45
57 10 14 24 25 32 25 12 0 15 22 15 125 0 69 -1 124 -2 124 -2 -1 -12 -3 -23
-6z"/>
<path d="M0 1608 c0 -117 1 -124 22 -133 12 -6 26 -19 32 -30 6 -10 19 -26 29
-35 9 -8 26 -37 36 -65 l19 -50 16 39 c9 22 33 91 52 155 20 64 43 128 50 143
14 27 14 27 -29 32 -23 3 -63 8 -89 11 -31 4 -48 11 -48 20 0 18 -7 22 -53 30
l-37 7 0 -124z"/>
<path d="M37812 1683 c-24 -9 -41 -20 -39 -27 2 -6 26 -24 55 -41 28 -16 51
-33 52 -36 0 -10 -76 -29 -117 -29 -32 0 -42 4 -46 20 -8 30 -32 24 -34 -7 -1
-17 -12 -36 -29 -50 -24 -19 -26 -24 -13 -39 13 -15 14 -15 19 6 8 36 27 36
22 0 -2 -17 -18 -45 -35 -63 -24 -25 -31 -43 -35 -84 -4 -43 -1 -54 12 -59 18
-7 38 10 68 57 18 28 99 73 133 74 13 0 20 7 20 19 0 10 8 22 18 25 10 4 18
10 18 14 -3 23 2 27 28 27 35 0 169 -85 194 -123 10 -15 21 -27 26 -27 16 0
-16 99 -48 148 -16 26 -43 77 -59 113 -28 62 -33 67 -78 83 -56 19 -74 19
-132 -1z"/>
<path d="M432 1674 c-19 -8 -37 -26 -43 -42 -14 -36 -68 -141 -89 -172 -17
-26 -44 -119 -37 -127 3 -2 14 9 26 26 21 29 135 111 175 125 28 10 56 -3 56
-25 0 -10 7 -19 15 -19 8 0 15 -9 15 -20 0 -14 7 -20 23 -20 37 -1 104 -37
123 -67 10 -15 24 -32 31 -36 7 -4 13 -15 13 -22 0 -19 15 -19 34 0 26 26 10
103 -28 141 -21 20 -31 41 -33 62 -1 27 1 31 13 21 8 -6 14 -18 14 -26 0 -13
3 -13 15 -3 21 17 19 23 -14 41 -28 16 -29 21 -33 94 0 14 -5 9 -17 -17 -9
-20 -23 -39 -32 -41 -44 -12 -169 26 -133 40 26 9 104 63 104 72 0 12 -80 31
-127 30 -21 0 -53 -7 -71 -15z"/>
<path d="M37691 1614 c0 -11 3 -14 6 -6 3 7 2 16 -1 19 -3 4 -6 -2 -5 -13z"/>
<path d="M7542 1319 c3 -56 18 -60 18 -5 0 25 -5 46 -10 46 -6 0 -10 -18 -8
-41z"/>
<path d="M14762 1319 c3 -56 18 -60 18 -5 0 25 -5 46 -10 46 -6 0 -10 -18 -8
-41z"/>
<path d="M21802 1319 c3 -56 18 -60 18 -5 0 25 -5 46 -10 46 -6 0 -10 -18 -8
-41z"/>
<path d="M29262 1319 c3 -56 18 -60 18 -5 0 25 -5 46 -10 46 -6 0 -10 -18 -8
-41z"/>
<path d="M36302 1319 c3 -56 18 -60 18 -5 0 25 -5 46 -10 46 -6 0 -10 -18 -8
-41z"/>
<path d="M2461 1305 c1 -46 1 -48 11 -22 7 20 7 35 0 50 -9 18 -11 14 -11 -28z"/>
<path d="M9681 1305 c1 -46 1 -48 11 -22 7 20 7 35 0 50 -9 18 -11 14 -11 -28z"/>
<path d="M16721 1305 c1 -46 1 -48 11 -22 7 20 7 35 0 50 -9 18 -11 14 -11
-28z"/>
<path d="M24181 1305 c1 -46 1 -48 11 -22 7 20 7 35 0 50 -9 18 -11 14 -11
-28z"/>
<path d="M31221 1305 c1 -46 1 -48 11 -22 7 20 7 35 0 50 -9 18 -11 14 -11
-28z"/>
<path d="M7548 1253 c7 -3 16 -2 19 1 4 3 -2 6 -13 5 -11 0 -14 -3 -6 -6z"/>
<path d="M14768 1253 c7 -3 16 -2 19 1 4 3 -2 6 -13 5 -11 0 -14 -3 -6 -6z"/>
<path d="M21808 1253 c7 -3 16 -2 19 1 4 3 -2 6 -13 5 -11 0 -14 -3 -6 -6z"/>
<path d="M29268 1253 c7 -3 16 -2 19 1 4 3 -2 6 -13 5 -11 0 -14 -3 -6 -6z"/>
<path d="M36308 1253 c7 -3 16 -2 19 1 4 3 -2 6 -13 5 -11 0 -14 -3 -6 -6z"/>
<path d="M2448 1243 c6 -2 18 -2 25 0 6 3 1 5 -13 5 -14 0 -19 -2 -12 -5z"/>
<path d="M7474 1198 c-46 -51 -51 -53 -79 -43 -34 11 -47 24 -38 39 3 5 1 6
-5 2 -6 -3 -13 -2 -16 3 -3 5 -22 3 -43 -5 -21 -7 -46 -13 -55 -14 -10 0 -18
-5 -18 -11 0 -8 -5 -8 -15 1 -12 10 -21 10 -46 -2 l-30 -15 28 -24 c16 -13 31
-28 33 -34 6 -13 20 -8 46 16 23 21 34 16 34 -16 0 -32 56 -102 92 -114 36
-13 42 -8 58 50 6 20 21 44 35 53 l25 16 0 -64 c0 -37 6 -76 15 -92 l15 -29 0
36 c0 41 11 49 64 49 20 0 40 -8 51 -20 21 -23 45 -26 45 -6 0 8 15 33 34 55
39 47 54 83 37 89 -6 2 -10 13 -10 25 1 17 2 18 6 5 2 -10 9 -18 15 -18 6 0 9
3 5 6 -3 4 0 21 7 39 11 27 11 32 0 32 -8 0 -14 -5 -14 -11 0 -6 -4 -4 -9 3
-6 9 -6 23 1 35 6 12 0 9 -14 -8 -14 -16 -30 -26 -35 -23 -6 4 -25 -10 -42
-31 -22 -27 -30 -32 -31 -19 0 10 -4 16 -9 13 -11 -7 -21 17 -21 50 0 17 -6
24 -20 24 -11 0 -20 -5 -20 -12 0 -6 -6 -4 -13 6 -12 17 -17 14 -63 -36z m187
-71 c-10 -9 -11 -8 -5 6 3 10 9 15 12 12 3 -3 0 -11 -7 -18z"/>
<path d="M9668 1243 c6 -2 18 -2 25 0 6 3 1 5 -13 5 -14 0 -19 -2 -12 -5z"/>
<path d="M14694 1198 c-46 -51 -51 -53 -79 -43 -34 11 -47 24 -38 39 3 5 1 6
-5 2 -6 -3 -13 -2 -16 3 -3 5 -22 3 -43 -5 -21 -7 -46 -13 -55 -14 -10 0 -18
-5 -18 -11 0 -8 -5 -8 -15 1 -12 10 -21 10 -46 -2 l-30 -15 28 -24 c16 -13 31
-28 33 -34 6 -13 20 -8 46 16 23 21 34 16 34 -16 0 -32 56 -102 92 -114 36
-13 42 -8 58 50 6 20 21 44 35 53 l25 16 0 -72 0 -73 19 41 c15 33 27 45 56
54 36 12 110 9 147 -5 13 -5 22 2 35 31 14 28 15 38 6 41 -7 3 -12 14 -12 26
1 17 2 18 6 5 2 -10 9 -18 15 -18 6 0 9 3 5 6 -3 4 0 21 7 39 11 27 11 32 0
32 -8 0 -14 -5 -14 -11 0 -6 -4 -4 -9 3 -6 9 -6 23 1 35 6 12 0 9 -14 -8 -14
-16 -30 -26 -35 -23 -6 4 -25 -10 -42 -31 -22 -27 -30 -32 -31 -19 0 10 -4 16
-9 13 -11 -7 -21 17 -21 50 0 17 -6 24 -20 24 -11 0 -20 -5 -20 -12 0 -6 -6
-4 -13 6 -12 17 -17 14 -63 -36z m187 -71 c-10 -9 -11 -8 -5 6 3 10 9 15 12
12 3 -3 0 -11 -7 -18z"/>
<path d="M16708 1243 c6 -2 18 -2 25 0 6 3 1 5 -13 5 -14 0 -19 -2 -12 -5z"/>
<path d="M21734 1198 c-46 -51 -51 -53 -79 -43 -34 11 -47 24 -38 39 3 5 1 6
-5 2 -6 -3 -13 -2 -16 3 -3 5 -22 3 -43 -5 -21 -7 -46 -13 -55 -14 -10 0 -18
-5 -18 -11 0 -8 -5 -8 -15 1 -12 10 -21 10 -46 -2 l-30 -15 28 -24 c16 -13 31
-28 33 -34 6 -13 20 -8 46 16 23 21 34 16 34 -16 0 -32 56 -102 92 -114 36
-13 42 -8 58 50 6 20 21 44 35 53 l25 16 0 -64 c0 -37 6 -76 15 -92 l15 -29 0
36 c0 41 11 49 64 49 20 0 40 -8 51 -20 34 -37 52 -26 93 56 26 54 33 78 25
81 -7 3 -12 14 -12 26 1 17 2 18 6 5 2 -10 9 -18 15 -18 6 0 9 3 5 6 -3 4 0
21 7 39 11 27 11 32 0 32 -8 0 -14 -5 -14 -11 0 -6 -4 -4 -9 3 -6 9 -6 23 1
35 6 12 0 9 -14 -8 -14 -16 -30 -26 -35 -23 -6 4 -25 -10 -42 -31 -22 -27 -30
-32 -31 -19 0 10 -4 16 -9 13 -11 -7 -21 17 -21 50 0 17 -6 24 -20 24 -11 0
-20 -5 -20 -12 0 -6 -6 -4 -13 6 -12 17 -17 14 -63 -36z m187 -71 c-10 -9 -11
-8 -5 6 3 10 9 15 12 12 3 -3 0 -11 -7 -18z"/>
<path d="M24168 1243 c6 -2 18 -2 25 0 6 3 1 5 -13 5 -14 0 -19 -2 -12 -5z"/>
<path d="M29194 1198 c-46 -51 -51 -53 -79 -43 -34 11 -47 24 -38 39 3 5 1 6
-5 2 -6 -3 -13 -2 -16 3 -3 5 -22 3 -43 -5 -21 -7 -46 -13 -55 -14 -10 0 -18
-5 -18 -11 0 -8 -5 -8 -15 1 -12 10 -21 10 -46 -2 l-30 -15 28 -24 c16 -13 31
-28 33 -34 6 -13 20 -8 46 16 23 21 34 16 34 -16 0 -32 56 -102 92 -114 36
-13 42 -8 58 50 6 20 21 44 35 53 l25 16 0 -72 0 -73 19 41 c15 33 27 45 56
54 36 12 110 9 147 -5 13 -5 22 2 35 31 14 28 15 38 6 41 -7 3 -12 14 -12 26
1 17 2 18 6 5 2 -10 9 -18 15 -18 6 0 9 3 5 6 -3 4 0 21 7 39 11 27 11 32 0
32 -8 0 -14 -5 -14 -11 0 -6 -4 -4 -9 3 -6 9 -6 23 1 35 6 12 0 9 -14 -8 -14
-16 -30 -26 -35 -23 -6 4 -25 -10 -42 -31 -22 -27 -30 -32 -31 -19 0 10 -4 16
-9 13 -11 -7 -21 17 -21 50 0 17 -6 24 -20 24 -11 0 -20 -5 -20 -12 0 -6 -6
-4 -13 6 -12 17 -17 14 -63 -36z m187 -71 c-10 -9 -11 -8 -5 6 3 10 9 15 12
12 3 -3 0 -11 -7 -18z"/>
<path d="M31208 1243 c6 -2 18 -2 25 0 6 3 1 5 -13 5 -14 0 -19 -2 -12 -5z"/>
<path d="M36234 1198 c-46 -51 -51 -53 -79 -43 -34 11 -47 24 -38 39 3 5 1 6
-5 2 -6 -3 -13 -2 -16 3 -3 5 -22 3 -43 -5 -21 -7 -46 -13 -55 -14 -10 0 -18
-5 -18 -11 0 -8 -5 -8 -15 1 -12 10 -21 10 -46 -2 l-30 -15 28 -24 c16 -13 31
-28 33 -34 6 -13 20 -8 46 16 23 21 34 16 34 -16 0 -32 56 -102 92 -114 36
-13 42 -8 58 50 6 20 21 44 35 53 l25 16 0 -64 c0 -37 6 -76 15 -92 l15 -29 0
36 c0 41 11 49 64 49 20 0 40 -8 51 -20 33 -36 52 -25 90 50 19 38 35 71 35
74 0 2 -8 6 -19 9 -15 4 -18 12 -15 49 4 40 2 45 -17 43 -12 -1 -34 -17 -50
-36 -22 -26 -29 -30 -29 -16 0 10 -4 16 -9 13 -11 -7 -21 17 -21 50 0 17 -6
24 -20 24 -11 0 -20 -5 -20 -12 0 -6 -6 -4 -13 6 -12 17 -17 14 -63 -36z m187
-71 c-10 -9 -11 -8 -5 6 3 10 9 15 12 12 3 -3 0 -11 -7 -18z"/>
<path d="M2487 1233 c-4 -6 -18 -8 -32 -5 -23 4 -25 2 -25 -37 0 -30 -4 -41
-15 -41 -8 0 -15 -5 -15 -12 0 -7 -15 3 -33 20 -18 18 -37 29 -41 25 -4 -4
-16 3 -26 17 -19 25 -19 25 -13 2 5 -20 2 -22 -20 -18 -24 4 -24 3 -11 -22 8
-15 14 -36 14 -47 -1 -29 72 -164 92 -170 10 -4 27 4 42 20 15 15 36 25 55 25
50 0 61 -9 61 -49 l0 -36 16 30 c11 22 15 46 11 87 -3 32 -2 60 2 63 12 7 58
-47 65 -75 11 -47 19 -52 55 -34 37 19 78 75 87 122 4 17 8 32 11 32 2 0 16
-11 31 -25 29 -27 42 -31 42 -13 0 7 12 25 27 40 20 21 23 28 11 28 -9 0 -18
6 -20 12 -4 10 -10 10 -31 1 -15 -7 -27 -9 -27 -4 0 4 -26 13 -57 20 -45 9
-59 8 -65 -1 -5 -7 -12 -18 -16 -23 -4 -6 -20 -15 -36 -20 -27 -9 -33 -6 -81
44 -29 30 -55 49 -58 44z m-187 -125 c0 -5 -4 -8 -10 -8 -5 0 -10 10 -10 23 0
18 2 19 10 7 5 -8 10 -18 10 -22z m70 7 c14 -19 14 -19 -2 -6 -10 7 -18 18
-18 24 0 6 1 8 3 6 1 -2 9 -13 17 -24z"/>
<path d="M9707 1233 c-4 -6 -18 -8 -32 -5 -23 4 -25 2 -25 -37 0 -30 -4 -41
-15 -41 -8 0 -15 -5 -15 -12 0 -7 -15 3 -33 20 -18 18 -37 29 -41 25 -4 -4
-16 3 -26 17 -19 25 -19 25 -13 2 5 -20 2 -22 -20 -18 -24 4 -24 3 -11 -22 8
-15 14 -36 14 -47 -1 -29 72 -164 92 -170 10 -4 27 4 42 20 15 15 36 25 55 25
50 0 61 -9 61 -49 l0 -36 16 30 c11 22 15 46 11 87 -3 32 -2 60 2 63 12 7 58
-47 65 -75 11 -47 19 -52 55 -34 37 19 78 75 87 122 4 17 8 32 11 32 2 0 16
-11 31 -25 29 -27 42 -31 42 -13 0 7 12 25 27 40 20 21 23 28 11 28 -9 0 -18
6 -20 12 -4 10 -10 10 -31 1 -15 -7 -27 -9 -27 -4 0 4 -26 13 -57 20 -45 9
-59 8 -65 -1 -5 -7 -12 -18 -16 -23 -4 -6 -20 -15 -36 -20 -27 -9 -33 -6 -81
44 -29 30 -55 49 -58 44z m-187 -125 c0 -5 -4 -8 -10 -8 -5 0 -10 10 -10 23 0
18 2 19 10 7 5 -8 10 -18 10 -22z m70 7 c14 -19 14 -19 -2 -6 -10 7 -18 18
-18 24 0 6 1 8 3 6 1 -2 9 -13 17 -24z"/>
<path d="M16747 1233 c-4 -6 -18 -8 -32 -5 -23 4 -25 2 -25 -37 0 -30 -4 -41
-15 -41 -8 0 -15 -5 -15 -12 0 -7 -15 3 -33 20 -18 18 -37 29 -41 25 -4 -4
-16 3 -26 17 -19 25 -19 25 -13 2 5 -20 2 -22 -20 -18 -24 4 -24 3 -11 -22 8
-15 14 -36 14 -47 -1 -29 72 -164 92 -170 10 -4 27 4 42 20 15 15 36 25 55 25
50 0 61 -9 61 -49 l0 -36 16 30 c11 22 15 46 11 87 -3 32 -2 60 2 63 12 7 58
-47 65 -75 11 -47 19 -52 55 -34 37 19 78 75 87 122 4 17 8 32 11 32 2 0 16
-11 31 -25 29 -27 42 -31 42 -13 0 7 12 25 27 40 20 21 23 28 11 28 -9 0 -18
6 -20 12 -4 10 -10 10 -31 1 -15 -7 -27 -9 -27 -4 0 4 -26 13 -57 20 -45 9
-59 8 -65 -1 -5 -7 -12 -18 -16 -23 -4 -6 -20 -15 -36 -20 -27 -9 -33 -6 -81
44 -29 30 -55 49 -58 44z m-187 -125 c0 -5 -4 -8 -10 -8 -5 0 -10 10 -10 23 0
18 2 19 10 7 5 -8 10 -18 10 -22z m70 7 c14 -19 14 -19 -2 -6 -10 7 -18 18
-18 24 0 6 1 8 3 6 1 -2 9 -13 17 -24z"/>
<path d="M24207 1233 c-4 -6 -18 -8 -32 -5 -23 4 -25 2 -25 -37 0 -30 -4 -41
-15 -41 -8 0 -15 -5 -15 -12 0 -7 -15 3 -33 20 -18 18 -37 29 -41 25 -4 -4
-16 3 -26 17 -19 25 -19 25 -13 2 5 -20 2 -22 -20 -18 -24 4 -24 3 -11 -22 8
-15 14 -36 14 -47 -1 -29 72 -164 92 -170 10 -4 27 4 42 20 15 15 36 25 55 25
50 0 61 -9 61 -49 l0 -36 16 30 c11 22 15 46 11 87 -3 32 -2 60 2 63 12 7 58
-47 65 -75 11 -47 19 -52 55 -34 37 19 78 75 87 122 4 17 8 32 11 32 2 0 16
-11 31 -25 29 -27 42 -31 42 -13 0 7 12 25 27 40 20 21 23 28 11 28 -9 0 -18
6 -20 12 -4 10 -10 10 -31 1 -15 -7 -27 -9 -27 -4 0 4 -26 13 -57 20 -45 9
-59 8 -65 -1 -5 -7 -12 -18 -16 -23 -4 -6 -20 -15 -36 -20 -27 -9 -33 -6 -81
44 -29 30 -55 49 -58 44z m-187 -125 c0 -5 -4 -8 -10 -8 -5 0 -10 10 -10 23 0
18 2 19 10 7 5 -8 10 -18 10 -22z m70 7 c14 -19 14 -19 -2 -6 -10 7 -18 18
-18 24 0 6 1 8 3 6 1 -2 9 -13 17 -24z"/>
<path d="M31247 1233 c-4 -6 -18 -8 -32 -5 -23 4 -25 2 -25 -37 0 -30 -4 -41
-15 -41 -8 0 -15 -5 -15 -12 0 -7 -15 3 -33 20 -18 18 -37 29 -41 25 -4 -4
-16 3 -26 17 -19 25 -19 25 -13 2 5 -20 2 -22 -20 -18 -24 4 -24 3 -11 -22 8
-15 14 -36 14 -47 -1 -29 72 -164 92 -170 10 -4 27 4 42 20 15 15 36 25 55 25
50 0 61 -9 61 -49 l0 -36 16 30 c11 22 15 46 11 87 -3 32 -2 60 2 63 12 7 58
-47 65 -75 11 -47 19 -52 55 -34 37 19 78 75 87 122 4 17 8 32 11 32 2 0 16
-11 31 -25 29 -27 42 -31 42 -13 0 7 12 25 27 40 20 21 23 28 11 28 -9 0 -18
6 -20 12 -4 10 -10 10 -31 1 -15 -7 -27 -9 -27 -4 0 4 -26 13 -57 20 -45 9
-59 8 -65 -1 -5 -7 -12 -18 -16 -23 -4 -6 -20 -15 -36 -20 -27 -9 -33 -6 -81
44 -29 30 -55 49 -58 44z m-187 -125 c0 -5 -4 -8 -10 -8 -5 0 -10 10 -10 23 0
18 2 19 10 7 5 -8 10 -18 10 -22z m70 7 c14 -19 14 -19 -2 -6 -10 7 -18 18
-18 24 0 6 1 8 3 6 1 -2 9 -13 17 -24z"/>
<path d="M3695 860 c-10 -17 16 -41 36 -35 17 6 18 3 9 -19 -6 -18 -5 -33 4
-51 13 -25 13 -25 31 -5 11 12 25 18 36 15 24 -8 33 11 12 24 -17 10 -17 12 1
26 16 12 22 12 28 2 6 -9 8 -9 8 0 0 6 -4 14 -10 18 -5 3 -7 12 -3 20 3 8 0
15 -6 15 -6 0 -11 -4 -11 -10 0 -5 -22 -10 -49 -10 -28 0 -53 5 -56 10 -8 13
-22 13 -30 0z m105 -66 c0 -8 -4 -12 -10 -9 -5 3 -10 10 -10 16 0 5 5 9 10 9
6 0 10 -7 10 -16z"/>
<path d="M10915 860 c-10 -17 16 -41 36 -35 17 6 18 3 9 -19 -6 -18 -5 -33 4
-51 13 -25 13 -25 31 -5 11 12 25 18 36 15 24 -8 33 11 12 24 -17 10 -17 12 1
26 16 12 22 12 28 2 6 -9 8 -9 8 0 0 6 -4 14 -10 18 -5 3 -7 12 -3 20 3 8 0
15 -6 15 -6 0 -11 -4 -11 -10 0 -5 -22 -10 -49 -10 -28 0 -53 5 -56 10 -8 13
-22 13 -30 0z m105 -66 c0 -8 -4 -12 -10 -9 -5 3 -10 10 -10 16 0 5 5 9 10 9
6 0 10 -7 10 -16z"/>
<path d="M17955 860 c-10 -17 16 -41 36 -35 17 6 18 3 9 -19 -6 -18 -5 -33 4
-51 13 -25 13 -25 31 -5 11 12 25 18 36 15 24 -8 33 11 12 24 -17 10 -17 12 1
26 16 12 22 12 28 2 6 -9 8 -9 8 0 0 6 -4 14 -10 18 -5 3 -7 12 -3 20 3 8 0
15 -6 15 -6 0 -11 -4 -11 -10 0 -5 -22 -10 -49 -10 -28 0 -53 5 -56 10 -8 13
-22 13 -30 0z m105 -66 c0 -8 -4 -12 -10 -9 -5 3 -10 10 -10 16 0 5 5 9 10 9
6 0 10 -7 10 -16z"/>
<path d="M25415 860 c-10 -17 16 -41 36 -35 17 6 18 3 9 -19 -6 -18 -5 -33 4
-51 13 -25 13 -25 31 -5 11 12 25 18 36 15 24 -8 33 11 12 24 -17 10 -17 12 1
26 16 12 22 12 28 2 6 -9 8 -9 8 0 0 6 -4 14 -10 18 -5 3 -7 12 -3 20 3 8 0
15 -6 15 -6 0 -11 -4 -11 -10 0 -5 -22 -10 -49 -10 -28 0 -53 5 -56 10 -8 13
-22 13 -30 0z m105 -66 c0 -8 -4 -12 -10 -9 -5 3 -10 10 -10 16 0 5 5 9 10 9
6 0 10 -7 10 -16z"/>
<path d="M32455 860 c-10 -17 16 -41 36 -35 17 6 18 3 9 -19 -6 -18 -5 -33 4
-51 13 -25 13 -25 31 -5 11 12 25 18 36 15 24 -8 33 11 12 24 -17 10 -17 12 1
26 16 12 22 12 28 2 6 -9 8 -9 8 0 0 6 -4 14 -10 18 -5 3 -7 12 -3 20 3 8 0
15 -6 15 -6 0 -11 -4 -11 -10 0 -5 -22 -10 -49 -10 -28 0 -53 5 -56 10 -8 13
-22 13 -30 0z m105 -66 c0 -8 -4 -12 -10 -9 -5 3 -10 10 -10 16 0 5 5 9 10 9
6 0 10 -7 10 -16z"/>
<path d="M4120 843 c-24 -3 -46 -16 -70 -41 -24 -24 -45 -37 -63 -37 -31 -1
-36 14 -7 22 23 6 26 19 6 26 -16 6 -36 -11 -36 -30 0 -7 -4 -14 -10 -14 -5
-1 -14 -3 -20 -4 -5 -1 -17 -3 -25 -4 -23 -2 -18 -31 5 -31 18 0 20 -7 20 -57
-1 -32 -6 -71 -13 -86 l-12 -28 -35 52 c-19 29 -40 55 -47 57 -14 4 -33 -58
-33 -108 0 -19 9 -53 19 -75 16 -35 27 -43 92 -69 41 -16 87 -38 102 -49 29
-19 107 -47 135 -47 9 0 -8 24 -40 58 -99 104 -130 181 -77 195 12 3 18 10 15
16 -4 5 4 11 16 13 15 2 23 10 24 23 1 37 42 113 70 132 30 19 64 50 64 57 0
8 -31 36 -38 34 -4 0 -23 -3 -42 -5z"/>
<path d="M11340 843 c-24 -3 -46 -16 -70 -41 -24 -24 -45 -37 -63 -37 -31 -1
-36 14 -7 22 23 6 26 19 6 26 -16 6 -36 -11 -36 -30 0 -7 -4 -14 -10 -14 -5
-1 -14 -3 -20 -4 -5 -1 -17 -3 -25 -4 -23 -2 -18 -31 5 -31 18 0 20 -7 20 -57
-1 -32 -6 -71 -13 -86 l-12 -28 -35 52 c-19 29 -40 55 -47 57 -14 4 -33 -58
-33 -108 0 -19 9 -53 19 -75 16 -35 27 -43 92 -69 41 -16 87 -38 102 -49 29
-19 107 -47 135 -47 9 0 -8 24 -40 58 -99 104 -130 181 -77 195 12 3 18 10 15
16 -4 5 4 11 16 13 15 2 23 10 24 23 1 37 42 113 70 132 30 19 64 50 64 57 0
8 -31 36 -38 34 -4 0 -23 -3 -42 -5z"/>
<path d="M18380 843 c-24 -3 -46 -16 -70 -41 -24 -24 -45 -37 -63 -37 -31 -1
-36 14 -7 22 23 6 26 19 6 26 -16 6 -36 -11 -36 -30 0 -7 -4 -14 -10 -14 -5
-1 -14 -3 -20 -4 -5 -1 -17 -3 -25 -4 -23 -2 -18 -31 5 -31 18 0 20 -7 20 -57
-1 -32 -6 -71 -13 -86 l-12 -28 -35 52 c-19 29 -40 55 -47 57 -14 4 -33 -58
-33 -108 0 -19 9 -53 19 -75 16 -35 27 -43 92 -69 41 -16 87 -38 102 -49 29
-19 107 -47 135 -47 9 0 -8 24 -40 58 -99 104 -130 181 -77 195 12 3 18 10 15
16 -4 5 4 11 16 13 15 2 23 10 24 23 1 37 42 113 70 132 30 19 64 50 64 57 0
8 -31 36 -38 34 -4 0 -23 -3 -42 -5z"/>
<path d="M25840 843 c-24 -3 -46 -16 -70 -41 -24 -24 -45 -37 -63 -37 -31 -1
-36 14 -7 22 23 6 26 19 6 26 -16 6 -36 -11 -36 -30 0 -7 -4 -14 -10 -14 -5
-1 -14 -3 -20 -4 -5 -1 -17 -3 -25 -4 -23 -2 -18 -31 5 -31 18 0 20 -7 20 -57
-1 -32 -6 -71 -13 -86 l-12 -28 -35 52 c-19 29 -40 55 -47 57 -14 4 -33 -58
-33 -108 0 -19 9 -53 19 -75 16 -35 27 -43 92 -69 41 -16 87 -38 102 -49 29
-19 107 -47 135 -47 9 0 -8 24 -40 58 -99 104 -130 181 -77 195 12 3 18 10 15
16 -4 5 4 11 16 13 15 2 23 10 24 23 1 37 42 113 70 132 30 19 64 50 64 57 0
8 -31 36 -38 34 -4 0 -23 -3 -42 -5z"/>
<path d="M32880 843 c-24 -3 -46 -16 -70 -41 -24 -24 -45 -37 -63 -37 -31 -1
-36 14 -7 22 23 6 26 19 6 26 -16 6 -36 -11 -36 -30 0 -7 -4 -14 -10 -14 -5
-1 -14 -3 -20 -4 -5 -1 -17 -3 -25 -4 -23 -2 -18 -31 5 -31 18 0 20 -7 20 -57
-1 -32 -6 -71 -13 -86 l-12 -28 -35 52 c-19 29 -40 55 -47 57 -14 4 -33 -58
-33 -108 0 -19 9 -53 19 -75 16 -35 27 -43 92 -69 41 -16 87 -38 102 -49 29
-19 107 -47 135 -47 9 0 -8 24 -40 58 -99 104 -130 181 -77 195 12 3 18 10 15
16 -4 5 4 11 16 13 15 2 23 10 24 23 1 37 42 113 70 132 30 19 64 50 64 57 0
8 -31 36 -38 34 -4 0 -23 -3 -42 -5z"/>
<path d="M6307 826 c-5 -13 -49 -14 -104 -1 -18 4 -21 2 -16 -11 3 -9 0 -20
-7 -24 -8 -5 -9 -9 -1 -14 6 -4 11 -2 11 5 0 7 8 6 24 -5 18 -11 26 -12 29 -3
2 6 8 9 12 5 14 -13 -6 -28 -29 -22 -16 4 -25 0 -29 -9 -7 -18 14 -29 33 -17
7 5 20 0 32 -12 20 -20 20 -20 34 7 10 19 11 32 4 45 -14 26 -13 27 13 26 16
-1 23 5 25 22 4 24 -22 32 -31 8z"/>
<path d="M13527 826 c-5 -13 -49 -14 -104 -1 -18 4 -21 2 -16 -11 3 -9 0 -20
-7 -24 -8 -5 -9 -9 -1 -14 6 -4 11 -2 11 5 0 7 8 6 24 -5 18 -11 26 -12 29 -3
2 6 8 9 12 5 14 -13 -6 -28 -29 -22 -16 4 -25 0 -29 -9 -7 -18 14 -29 33 -17
7 5 20 0 32 -12 20 -20 20 -20 34 7 10 19 11 32 4 45 -14 26 -13 27 13 26 16
-1 23 5 25 22 4 24 -22 32 -31 8z"/>
<path d="M20567 826 c-5 -13 -49 -14 -104 -1 -18 4 -21 2 -16 -11 3 -9 0 -20
-7 -24 -8 -5 -9 -9 -1 -14 6 -4 11 -2 11 5 0 7 8 6 24 -5 18 -11 26 -12 29 -3
2 6 8 9 12 5 14 -13 -6 -28 -29 -22 -16 4 -25 0 -29 -9 -7 -18 14 -29 33 -17
7 5 20 0 32 -12 20 -20 20 -20 34 7 10 19 11 32 4 45 -14 26 -13 27 13 26 16
-1 23 5 25 22 4 24 -22 32 -31 8z"/>
<path d="M28027 826 c-5 -13 -49 -14 -104 -1 -18 4 -21 2 -16 -11 3 -9 0 -20
-7 -24 -8 -5 -9 -9 -1 -14 6 -4 11 -2 11 5 0 7 8 6 24 -5 18 -11 26 -12 29 -3
2 6 8 9 12 5 14 -13 -6 -28 -29 -22 -16 4 -25 0 -29 -9 -7 -18 14 -29 33 -17
7 5 20 0 32 -12 20 -20 20 -20 34 7 10 19 11 32 4 45 -14 26 -13 27 13 26 16
-1 23 5 25 22 4 24 -22 32 -31 8z"/>
<path d="M35067 826 c-5 -13 -49 -14 -104 -1 -18 4 -21 2 -16 -11 3 -9 0 -20
-7 -24 -8 -5 -9 -9 -1 -14 6 -4 11 -2 11 5 0 7 8 6 24 -5 18 -11 26 -12 29 -3
2 6 8 9 12 5 14 -13 -6 -28 -29 -22 -16 4 -25 0 -29 -9 -7 -18 14 -29 33 -17
7 5 20 0 32 -12 20 -20 20 -20 34 7 10 19 11 32 4 45 -14 26 -13 27 13 26 16
-1 23 5 25 22 4 24 -22 32 -31 8z"/>
<path d="M5853 789 c-7 -7 -13 -17 -13 -22 0 -12 39 -45 66 -57 25 -10 64 -85
64 -123 0 -22 5 -27 25 -27 15 0 25 -6 25 -14 0 -7 9 -16 20 -19 13 -3 20 -14
20 -29 0 -33 -62 -135 -111 -181 -22 -22 -39 -41 -37 -43 7 -6 109 24 125 38
9 7 57 34 107 59 90 45 91 46 110 101 19 54 19 57 2 112 -10 31 -23 55 -29 53
-6 -2 -25 -30 -43 -62 l-33 -59 -16 36 c-8 21 -15 59 -15 86 0 47 1 48 43 65
23 10 32 15 20 13 -13 -2 -23 -1 -23 4 0 4 -6 8 -12 7 -39 -1 -56 6 -68 28
-11 21 -16 23 -34 13 -21 -12 -21 -12 3 -18 35 -8 39 -29 5 -27 -15 1 -43 17
-63 34 -20 19 -47 33 -61 33 -14 0 -34 3 -45 6 -11 3 -26 -1 -32 -7z"/>
<path d="M13073 789 c-7 -7 -13 -17 -13 -22 0 -12 39 -45 66 -57 25 -10 64
-85 64 -123 0 -22 5 -27 25 -27 15 0 25 -6 25 -14 0 -7 9 -16 20 -19 13 -3 20
-14 20 -29 0 -33 -62 -135 -111 -181 -22 -22 -39 -41 -37 -43 7 -6 109 24 125
38 9 7 57 34 107 59 90 45 91 46 110 101 19 54 19 57 2 112 -10 31 -23 55 -29
53 -6 -2 -25 -30 -43 -62 l-33 -59 -16 36 c-8 21 -15 59 -15 86 0 47 1 48 43
65 23 10 32 15 20 13 -13 -2 -23 -1 -23 4 0 4 -6 8 -12 7 -39 -1 -56 6 -68 28
-11 21 -16 23 -34 13 -21 -12 -21 -12 3 -18 35 -8 39 -29 5 -27 -15 1 -43 17
-63 34 -20 19 -47 33 -61 33 -14 0 -34 3 -45 6 -11 3 -26 -1 -32 -7z"/>
<path d="M20113 789 c-7 -7 -13 -17 -13 -22 0 -12 39 -45 66 -57 25 -10 64
-85 64 -123 0 -22 5 -27 25 -27 15 0 25 -6 25 -14 0 -7 9 -16 20 -19 13 -3 20
-14 20 -29 0 -33 -62 -135 -111 -181 -22 -22 -39 -41 -37 -43 7 -6 109 24 125
38 9 7 57 34 107 59 90 45 91 46 110 101 19 54 19 57 2 112 -10 31 -23 55 -29
53 -6 -2 -25 -30 -43 -62 l-33 -59 -16 36 c-8 21 -15 59 -15 86 0 47 1 48 43
65 23 10 32 15 20 13 -13 -2 -23 -1 -23 4 0 4 -6 8 -12 7 -39 -1 -56 6 -68 28
-11 21 -16 23 -34 13 -21 -12 -21 -12 3 -18 35 -8 39 -29 5 -27 -15 1 -43 17
-63 34 -20 19 -47 33 -61 33 -14 0 -34 3 -45 6 -11 3 -26 -1 -32 -7z"/>
<path d="M27573 789 c-7 -7 -13 -17 -13 -22 0 -12 39 -45 66 -57 25 -10 64
-85 64 -123 0 -22 5 -27 25 -27 15 0 25 -6 25 -14 0 -7 9 -16 20 -19 13 -3 20
-14 20 -29 0 -33 -62 -135 -111 -181 -22 -22 -39 -41 -37 -43 7 -6 109 24 125
38 9 7 57 34 107 59 90 45 91 46 110 101 19 54 19 57 2 112 -10 31 -23 55 -29
53 -6 -2 -25 -30 -43 -62 l-33 -59 -16 36 c-8 21 -15 59 -15 86 0 47 1 48 43
65 23 10 32 15 20 13 -13 -2 -23 -1 -23 4 0 4 -6 8 -12 7 -39 -1 -56 6 -68 28
-11 21 -16 23 -34 13 -21 -12 -21 -12 3 -18 35 -8 39 -29 5 -27 -15 1 -43 17
-63 34 -20 19 -47 33 -61 33 -14 0 -34 3 -45 6 -11 3 -26 -1 -32 -7z"/>
<path d="M34613 789 c-7 -7 -13 -17 -13 -22 0 -12 39 -45 66 -57 25 -10 64
-85 64 -123 0 -22 5 -27 25 -27 15 0 25 -6 25 -14 0 -7 9 -16 20 -19 13 -3 20
-14 20 -29 0 -33 -62 -135 -111 -181 -22 -22 -39 -41 -37 -43 7 -6 109 24 125
38 9 7 57 34 107 59 90 45 91 46 110 101 19 54 19 57 2 112 -10 31 -23 55 -29
53 -6 -2 -25 -30 -43 -62 l-33 -59 -16 36 c-8 21 -15 59 -15 86 0 47 1 48 43
65 23 10 32 15 20 13 -13 -2 -23 -1 -23 4 0 4 -6 8 -12 7 -39 -1 -56 6 -68 28
-11 21 -16 23 -34 13 -21 -12 -21 -12 3 -18 35 -8 39 -29 5 -27 -15 1 -43 17
-63 34 -20 19 -47 33 -61 33 -14 0 -34 3 -45 6 -11 3 -26 -1 -32 -7z"/>
<path d="M3850 750 c0 -5 5 -10 10 -10 6 0 10 5 10 10 0 6 -4 10 -10 10 -5 0
-10 -4 -10 -10z"/>
<path d="M11070 750 c0 -5 5 -10 10 -10 6 0 10 5 10 10 0 6 -4 10 -10 10 -5 0
-10 -4 -10 -10z"/>
<path d="M18110 750 c0 -5 5 -10 10 -10 6 0 10 5 10 10 0 6 -4 10 -10 10 -5 0
-10 -4 -10 -10z"/>
<path d="M25570 750 c0 -5 5 -10 10 -10 6 0 10 5 10 10 0 6 -4 10 -10 10 -5 0
-10 -4 -10 -10z"/>
<path d="M32610 750 c0 -5 5 -10 10 -10 6 0 10 5 10 10 0 6 -4 10 -10 10 -5 0
-10 -4 -10 -10z"/>
<path d="M3730 491 c0 -7 -4 -9 -10 -6 -6 3 -10 -4 -10 -16 0 -35 -33 -130
-41 -118 -14 24 -20 -50 -6 -77 l14 -27 11 34 c20 61 53 212 47 217 -3 3 -5 0
-5 -7z"/>
<path d="M10950 491 c0 -7 -4 -9 -10 -6 -6 3 -10 -4 -10 -16 0 -35 -33 -130
-41 -118 -14 24 -20 -50 -6 -77 l14 -27 11 34 c20 61 53 212 47 217 -3 3 -5 0
-5 -7z"/>
<path d="M17990 491 c0 -7 -4 -9 -10 -6 -6 3 -10 -4 -10 -16 0 -35 -33 -130
-41 -118 -14 24 -20 -50 -6 -77 l14 -27 11 34 c20 61 53 212 47 217 -3 3 -5 0
-5 -7z"/>
<path d="M25450 491 c0 -7 -4 -9 -10 -6 -6 3 -10 -4 -10 -16 0 -35 -33 -130
-41 -118 -14 24 -20 -50 -6 -77 l14 -27 11 34 c20 61 53 212 47 217 -3 3 -5 0
-5 -7z"/>
<path d="M32490 491 c0 -7 -4 -9 -10 -6 -6 3 -10 -4 -10 -16 0 -35 -33 -130
-41 -118 -14 24 -20 -50 -6 -77 l14 -27 11 34 c20 61 53 212 47 217 -3 3 -5 0
-5 -7z"/>
<path d="M6314 444 c10 -48 27 -114 44 -169 l18 -60 17 33 c15 31 15 34 -3 52
-11 11 -22 31 -26 45 -3 14 -9 25 -13 25 -3 0 -7 14 -8 32 -1 17 -9 39 -18 47
-13 13 -14 13 -11 -5z"/>
<path d="M13534 444 c10 -48 27 -114 44 -169 l18 -60 17 33 c15 31 15 34 -3
52 -11 11 -22 31 -26 45 -3 14 -9 25 -13 25 -3 0 -7 14 -8 32 -1 17 -9 39 -18
47 -13 13 -14 13 -11 -5z"/>
<path d="M20574 444 c10 -48 27 -114 44 -169 l18 -60 17 33 c15 31 15 34 -3
52 -11 11 -22 31 -26 45 -3 14 -9 25 -13 25 -3 0 -7 14 -8 32 -1 17 -9 39 -18
47 -13 13 -14 13 -11 -5z"/>
<path d="M28034 444 c10 -48 27 -114 44 -169 l18 -60 17 33 c15 31 15 34 -3
52 -11 11 -22 31 -26 45 -3 14 -9 25 -13 25 -3 0 -7 14 -8 32 -1 17 -9 39 -18
47 -13 13 -14 13 -11 -5z"/>
<path d="M35074 444 c10 -48 27 -114 44 -169 l18 -60 17 33 c15 31 15 34 -3
52 -11 11 -22 31 -26 45 -3 14 -9 25 -13 25 -3 0 -7 14 -8 32 -1 17 -9 39 -18
47 -13 13 -14 13 -11 -5z"/>
<path d="M8312 303 c2 -12 -3 -17 -14 -15 -22 4 -22 -1 -3 -37 22 -44 74 -55
120 -25 14 9 30 12 37 8 7 -5 5 3 -5 16 -9 14 -22 35 -29 48 -9 18 -19 22 -60
22 -41 0 -48 -3 -46 -17z"/>
<path d="M15352 303 c2 -12 -3 -17 -14 -15 -22 4 -22 -1 -3 -37 22 -44 74 -55
120 -25 14 9 30 12 37 8 7 -5 5 3 -5 16 -9 14 -22 35 -29 48 -9 18 -19 22 -60
22 -41 0 -48 -3 -46 -17z"/>
<path d="M22812 303 c2 -12 -3 -17 -14 -15 -22 4 -22 -1 -3 -37 22 -44 74 -55
120 -25 14 9 30 12 37 8 7 -5 5 3 -5 16 -9 14 -22 35 -29 48 -9 18 -19 22 -60
22 -41 0 -48 -3 -46 -17z"/>
<path d="M29852 303 c2 -12 -3 -17 -14 -15 -22 4 -22 -1 -3 -37 22 -44 74 -55
120 -25 14 9 30 12 37 8 7 -5 5 3 -5 16 -9 14 -22 35 -29 48 -9 18 -19 22 -60
22 -41 0 -48 -3 -46 -17z"/>
<path d="M3816 264 c-3 -26 -6 -66 -6 -90 0 -37 -3 -44 -20 -44 -19 0 -23 -11
-33 -98 l-4 -32 274 0 c250 0 305 5 256 25 -32 12 -170 16 -198 5 -34 -13 -62
-5 -75 21 -9 16 -6 24 17 45 15 14 37 34 49 45 11 11 42 28 69 38 l49 19 -94
30 c-52 16 -120 35 -150 42 -30 7 -67 19 -82 26 -40 21 -45 18 -52 -32z"/>
<path d="M11036 264 c-3 -26 -6 -66 -6 -90 0 -37 -3 -44 -20 -44 -19 0 -23
-11 -33 -98 l-4 -32 274 0 c250 0 305 5 256 25 -32 12 -170 16 -198 5 -34 -13
-62 -5 -75 21 -9 16 -6 24 17 45 15 14 37 34 49 45 11 11 42 28 69 38 l49 19
-94 30 c-52 16 -120 35 -150 42 -30 7 -67 19 -82 26 -40 21 -45 18 -52 -32z"/>
<path d="M18076 264 c-3 -26 -6 -66 -6 -90 0 -37 -3 -44 -20 -44 -19 0 -23
-11 -33 -98 l-4 -32 274 0 c250 0 305 5 256 25 -32 12 -170 16 -198 5 -34 -13
-62 -5 -75 21 -9 16 -6 24 17 45 15 14 37 34 49 45 11 11 42 28 69 38 l49 19
-94 30 c-52 16 -120 35 -150 42 -30 7 -67 19 -82 26 -40 21 -45 18 -52 -32z"/>
<path d="M25536 264 c-3 -26 -6 -66 -6 -90 0 -37 -3 -44 -20 -44 -19 0 -23
-11 -33 -98 l-4 -32 274 0 c250 0 305 5 256 25 -32 12 -170 16 -198 5 -34 -13
-62 -5 -75 21 -9 16 -6 24 17 45 15 14 37 34 49 45 11 11 42 28 69 38 l49 19
-94 30 c-52 16 -120 35 -150 42 -30 7 -67 19 -82 26 -40 21 -45 18 -52 -32z"/>
<path d="M32576 264 c-3 -26 -6 -66 -6 -90 0 -37 -3 -44 -20 -44 -19 0 -23
-11 -33 -98 l-4 -32 274 0 c250 0 305 5 256 25 -32 12 -170 16 -198 5 -34 -13
-62 -5 -75 21 -9 16 -6 24 17 45 15 14 37 34 49 45 11 11 42 28 69 38 l49 19
-94 30 c-52 16 -120 35 -150 42 -30 7 -67 19 -82 26 -40 21 -45 18 -52 -32z"/>
<path d="M6210 270 c-8 -6 -79 -30 -157 -55 -79 -25 -143 -49 -143 -54 0 -5
19 -11 42 -15 49 -8 124 -40 152 -64 10 -9 25 -32 33 -49 l13 -33 75 0 75 0 0
31 c0 37 -16 69 -34 69 -9 0 -16 22 -20 71 -9 92 -17 111 -36 99z"/>
<path d="M13430 270 c-8 -6 -79 -30 -157 -55 -79 -25 -143 -49 -143 -54 0 -5
19 -11 42 -15 49 -8 124 -40 152 -64 10 -9 25 -32 33 -49 l13 -33 75 0 75 0 0
31 c0 37 -16 69 -34 69 -9 0 -16 22 -20 71 -9 92 -17 111 -36 99z"/>
<path d="M20470 270 c-8 -6 -79 -30 -157 -55 -79 -25 -143 -49 -143 -54 0 -5
19 -11 42 -15 49 -8 124 -40 152 -64 10 -9 25 -32 33 -49 l13 -33 75 0 75 0 0
31 c0 37 -16 69 -34 69 -9 0 -16 22 -20 71 -9 92 -17 111 -36 99z"/>
<path d="M27930 270 c-8 -6 -79 -30 -157 -55 -79 -25 -143 -49 -143 -54 0 -5
19 -11 42 -15 49 -8 124 -40 152 -64 10 -9 25 -32 33 -49 l13 -33 75 0 75 0 0
31 c0 37 -16 69 -34 69 -9 0 -16 22 -20 71 -9 92 -17 111 -36 99z"/>
<path d="M34970 270 c-8 -6 -79 -30 -157 -55 -79 -25 -143 -49 -143 -54 0 -5
19 -11 42 -15 49 -8 124 -40 152 -64 10 -9 25 -32 33 -49 l13 -33 75 0 75 0 0
31 c0 37 -16 69 -34 69 -9 0 -16 22 -20 71 -9 92 -17 111 -36 99z"/>
<path d="M8247 247 c-3 -9 -20 -13 -48 -11 l-44 2 30 -16 c17 -8 44 -19 60
-23 28 -7 28 -7 -11 -8 -29 -1 -41 -5 -41 -16 0 -34 91 -31 137 5 23 18 24 20
5 21 -11 1 -27 1 -35 0 -11 0 -12 1 -2 5 10 5 8 12 -9 30 -26 27 -35 30 -42
11z"/>
<path d="M15287 247 c-3 -9 -20 -13 -48 -11 l-44 2 30 -16 c17 -8 44 -19 60
-23 28 -7 28 -7 -11 -8 -29 -1 -41 -5 -41 -16 0 -34 91 -31 137 5 23 18 24 20
5 21 -11 1 -27 1 -35 0 -11 0 -12 1 -2 5 10 5 8 12 -9 30 -26 27 -35 30 -42
11z"/>
<path d="M22747 247 c-3 -9 -20 -13 -48 -11 l-44 2 30 -16 c17 -8 44 -19 60
-23 28 -7 28 -7 -11 -8 -29 -1 -41 -5 -41 -16 0 -34 91 -31 137 5 23 18 24 20
5 21 -11 1 -27 1 -35 0 -11 0 -12 1 -2 5 10 5 8 12 -9 30 -26 27 -35 30 -42
11z"/>
<path d="M29787 247 c-3 -9 -20 -13 -48 -11 l-44 2 30 -16 c17 -8 44 -19 60
-23 28 -7 28 -7 -11 -8 -29 -1 -41 -5 -41 -16 0 -34 91 -31 137 5 23 18 24 20
5 21 -11 1 -27 1 -35 0 -11 0 -12 1 -2 5 10 5 8 12 -9 30 -26 27 -35 30 -42
11z"/>
<path d="M979 216 c42 -21 62 -17 42 8 -7 8 -28 14 -48 13 l-35 -1 41 -20z"/>
<path d="M973 178 c5 -29 54 -37 104 -17 l28 12 -25 7 c-43 13 -110 12 -107
-2z"/>
<path d="M1285 168 c14 -43 46 -99 61 -105 8 -3 22 -19 30 -35 9 -17 22 -28
31 -26 18 3 64 78 56 91 -8 13 -35 8 -27 -5 4 -7 -2 -4 -14 6 -22 19 -23 19
-37 0 -14 -19 -14 -19 -10 1 3 15 -9 30 -46 58 -46 35 -50 37 -44 15z"/>
<path d="M8505 168 c14 -43 46 -99 61 -105 8 -3 22 -19 30 -35 9 -17 22 -28
31 -26 18 3 64 78 56 91 -8 13 -35 8 -27 -5 4 -7 -2 -4 -14 6 -22 19 -23 19
-37 0 -14 -19 -14 -19 -10 1 3 15 -9 30 -46 58 -46 35 -50 37 -44 15z"/>
<path d="M15545 168 c14 -43 46 -99 61 -105 8 -3 22 -19 30 -35 9 -17 22 -28
31 -26 18 3 64 78 56 91 -8 13 -35 8 -27 -5 4 -7 -2 -4 -14 6 -22 19 -23 19
-37 0 -14 -19 -14 -19 -10 1 3 15 -9 30 -46 58 -46 35 -50 37 -44 15z"/>
<path d="M23005 168 c14 -43 46 -99 61 -105 8 -3 22 -19 30 -35 9 -17 22 -28
31 -26 18 3 64 78 56 91 -8 13 -35 8 -27 -5 4 -7 -2 -4 -14 6 -22 19 -23 19
-37 0 -14 -19 -14 -19 -10 1 3 15 -9 30 -46 58 -46 35 -50 37 -44 15z"/>
<path d="M30045 168 c14 -43 46 -99 61 -105 8 -3 22 -19 30 -35 9 -17 22 -28
31 -26 18 3 64 78 56 91 -8 13 -35 8 -27 -5 4 -7 -2 -4 -14 6 -22 19 -23 19
-37 0 -14 -19 -14 -19 -10 1 3 15 -9 30 -46 58 -46 35 -50 37 -44 15z"/>
<path d="M2933 110 c-39 -37 -83 -92 -83 -104 0 -3 29 -6 64 -6 l64 0 7 53 c3
28 9 59 11 68 9 32 -22 26 -63 -11z"/>
<path d="M7073 136 c-8 -10 -8 -27 0 -72 l12 -59 69 -3 68 -3 -20 28 c-11 15
-42 49 -69 75 -38 37 -50 44 -60 34z"/>
<path d="M10153 110 c-39 -37 -83 -92 -83 -104 0 -3 29 -6 64 -6 l64 0 7 53
c3 28 9 59 11 68 9 32 -22 26 -63 -11z"/>
<path d="M17193 110 c-39 -37 -83 -92 -83 -104 0 -3 29 -6 64 -6 l64 0 7 53
c3 28 9 59 11 68 9 32 -22 26 -63 -11z"/>
<path d="M21333 136 c-8 -10 -8 -27 0 -72 l12 -59 69 -3 68 -3 -20 28 c-11 15
-42 49 -69 75 -38 37 -50 44 -60 34z"/>
<path d="M24653 110 c-39 -37 -83 -92 -83 -104 0 -3 29 -6 64 -6 l64 0 7 53
c3 28 9 59 11 68 9 32 -22 26 -63 -11z"/>
<path d="M31693 110 c-39 -37 -83 -92 -83 -104 0 -3 29 -6 64 -6 l64 0 7 53
c3 28 9 59 11 68 9 32 -22 26 -63 -11z"/>
<path d="M35833 136 c-8 -10 -8 -27 0 -72 l12 -59 69 -3 68 -3 -20 28 c-11 15
-42 49 -69 75 -38 37 -50 44 -60 34z"/>
<path d="M14283 115 c3 -11 9 -39 12 -63 4 -24 13 -46 20 -48 7 -3 39 -4 71
-2 l59 3 -34 20 c-19 11 -57 40 -84 65 -35 32 -48 39 -44 25z"/>
<path d="M28783 115 c3 -11 9 -39 12 -63 4 -24 13 -46 20 -48 7 -3 39 -4 71
-2 l59 3 -34 20 c-19 11 -57 40 -84 65 -35 32 -48 39 -44 25z"/>
<path d="M3586 71 c-10 -10 -30 -24 -46 -31 -16 -7 -31 -18 -34 -26 -4 -11 6
-14 50 -14 57 0 65 7 76 66 4 26 -24 29 -46 5z"/>
<path d="M10806 71 c-10 -10 -30 -24 -46 -31 -16 -7 -31 -18 -34 -26 -4 -11 6
-14 50 -14 57 0 65 7 76 66 4 26 -24 29 -46 5z"/>
<path d="M17846 71 c-10 -10 -30 -24 -46 -31 -16 -7 -31 -18 -34 -26 -4 -11 6
-14 50 -14 57 0 65 7 76 66 4 26 -24 29 -46 5z"/>
<path d="M25306 71 c-10 -10 -30 -24 -46 -31 -16 -7 -31 -18 -34 -26 -4 -11 6
-14 50 -14 57 0 65 7 76 66 4 26 -24 29 -46 5z"/>
<path d="M32346 71 c-10 -10 -30 -24 -46 -31 -16 -7 -31 -18 -34 -26 -4 -11 6
-14 50 -14 57 0 65 7 76 66 4 26 -24 29 -46 5z"/>
<path d="M1250 55 c16 -16 90 -49 90 -40 0 3 -7 17 -16 30 -12 19 -25 25 -52
25 -32 0 -34 -2 -22 -15z"/>
<path d="M8470 55 c16 -16 90 -49 90 -40 0 3 -7 17 -16 30 -12 19 -25 25 -52
25 -32 0 -34 -2 -22 -15z"/>
<path d="M15510 55 c16 -16 90 -49 90 -40 0 3 -7 17 -16 30 -12 19 -25 25 -52
25 -32 0 -34 -2 -22 -15z"/>
<path d="M22970 55 c16 -16 90 -49 90 -40 0 3 -7 17 -16 30 -12 19 -25 25 -52
25 -32 0 -34 -2 -22 -15z"/>
<path d="M30010 55 c16 -16 90 -49 90 -40 0 3 -7 17 -16 30 -12 19 -25 25 -52
25 -32 0 -34 -2 -22 -15z"/>
<path d="M6431 30 c10 -29 13 -30 67 -29 46 0 53 2 33 10 -13 5 -36 18 -51 29
-15 11 -35 20 -44 20 -12 0 -13 -5 -5 -30z"/>
<path d="M13651 30 c10 -29 13 -30 67 -29 46 0 53 2 33 10 -13 5 -36 18 -51
29 -15 11 -35 20 -44 20 -12 0 -13 -5 -5 -30z"/>
<path d="M20691 30 c10 -29 13 -30 67 -29 46 0 53 2 33 10 -13 5 -36 18 -51
29 -15 11 -35 20 -44 20 -12 0 -13 -5 -5 -30z"/>
<path d="M21600 53 c0 -5 7 -18 15 -29 12 -16 14 -16 15 -3 0 9 -7 22 -15 29
-8 7 -15 8 -15 3z"/>
<path d="M28151 30 c10 -29 13 -30 67 -29 46 0 53 2 33 10 -13 5 -36 18 -51
29 -15 11 -35 20 -44 20 -12 0 -13 -5 -5 -30z"/>
<path d="M35191 30 c10 -29 13 -30 67 -29 46 0 53 2 33 10 -13 5 -36 18 -51
29 -15 11 -35 20 -44 20 -12 0 -13 -5 -5 -30z"/>
<path d="M36100 53 c0 -5 7 -18 15 -29 12 -16 14 -16 15 -3 0 9 -7 22 -15 29
-8 7 -15 8 -15 3z"/>
<path d="M2700 35 c-7 -9 -11 -18 -8 -20 3 -3 11 1 18 10 7 9 11 18 8 20 -3 3
-11 -1 -18 -10z"/>
<path d="M9920 35 c-7 -9 -11 -18 -8 -20 3 -3 11 1 18 10 7 9 11 18 8 20 -3 3
-11 -1 -18 -10z"/>
<path d="M16960 35 c-7 -9 -11 -18 -8 -20 3 -3 11 1 18 10 7 9 11 18 8 20 -3
3 -11 -1 -18 -10z"/>
<path d="M24420 35 c-7 -9 -11 -18 -8 -20 3 -3 11 1 18 10 7 9 11 18 8 20 -3
3 -11 -1 -18 -10z"/>
<path d="M31460 35 c-7 -9 -11 -18 -8 -20 3 -3 11 1 18 10 7 9 11 18 8 20 -3
3 -11 -1 -18 -10z"/>
<path d="M1190 33 c0 -15 39 -32 75 -33 35 0 38 2 24 15 -15 15 -99 30 -99 18z"/>
<path d="M8410 33 c0 -15 39 -32 75 -33 35 0 38 2 24 15 -15 15 -99 30 -99 18z"/>
<path d="M15450 33 c0 -15 39 -32 75 -33 35 0 38 2 24 15 -15 15 -99 30 -99
18z"/>
<path d="M22910 33 c0 -15 39 -32 75 -33 35 0 38 2 24 15 -15 15 -99 30 -99
18z"/>
<path d="M29950 33 c0 -15 39 -32 75 -33 35 0 38 2 24 15 -15 15 -99 30 -99
18z"/>
<path d="M7355 20 c3 -5 8 -10 11 -10 2 0 4 5 4 10 0 6 -5 10 -11 10 -5 0 -7
-4 -4 -10z"/>
<path d="M165 10 c3 -5 13 -10 21 -10 8 0 12 4 9 10 -3 5 -13 10 -21 10 -8 0
-12 -4 -9 -10z"/>
<path d="M21658 3 c7 -3 16 -2 19 1 4 3 -2 6 -13 5 -11 0 -14 -3 -6 -6z"/>
<path d="M36158 3 c7 -3 16 -2 19 1 4 3 -2 6 -13 5 -11 0 -14 -3 -6 -6z"/>
</g>
</svg>
