<svg xmlns="http://www.w3.org/2000/svg" id="baseline-delete_forever-24px" width="50" height="50" viewBox="0 0 50 50">
    <defs>
        <style>
            .cls-1{fill:none}.cls-2{fill:#fff}
        </style>
    </defs>
    <path id="패스_1890" d="M0 0h50v50H0z" class="cls-1" data-name="패스 1890"/>
    <path id="패스_1891" d="M7.083 36.333A4.179 4.179 0 0 0 11.25 40.5h16.667a4.179 4.179 0 0 0 4.167-4.167v-25h-25zM12.208 21.5l2.937-2.937 4.438 4.417L24 18.563l2.938 2.937-4.417 4.417 4.417 4.417L24 33.271l-4.417-4.417-4.417 4.417-2.937-2.937 4.417-4.417zM26.875 5.083L24.792 3H14.375l-2.083 2.083H5V9.25h29.167V5.083z" class="cls-2" data-name="패스 1891" transform="translate(5.417 3.25)"/>
    <path id="패스_1892" d="M0 0h50v50H0z" class="cls-1" data-name="패스 1892"/>
</svg>
