<svg xmlns="http://www.w3.org/2000/svg" width="204.596" height="46.176" viewBox="0 0 204.596 46.176">
    <defs>
        <style>
            .cls-1{fill:#6d6d6d}.cls-2{fill:#898989}
        </style>
    </defs>
    <g id="그룹_9346" data-name="그룹 9346" transform="translate(-73 -52)">
        <g id="그룹_9345" data-name="그룹 9345" transform="translate(5 2.93)">
            <path id="패스_3436" d="M-1148.737 190.494c.421-8 9.3-12.23 19.325-14.017a15.09 15.09 0 0 0-3.01-.3h-20.021s-3.578-.072-3.578 2.961-.99 16.481 8.754 21.532a9.71 9.71 0 0 0 2.035.72c-1.711-1.732-3.812-5.066-3.505-10.896z" class="cls-1" data-name="패스 3436" transform="translate(1224.047 -125.107)"/>
            <path id="패스_3437" d="M-1118.815 176.912c-10.026 1.787-18.9 6.013-19.325 14.017-.307 5.83 1.794 9.164 3.506 10.9 1.626.352 3.455.086 2.3-3.542-1.9-6-.3-12.6 5.557-12.367s16.518 4.88 17.28 20.145c0 0 1.9-2.5 2.055-7.344.142-4.475-.113-19.536-11.373-21.809z" class="cls-2" data-name="패스 3437" transform="translate(1213.452 -125.543)"/>
            <path id="패스_3438" d="M-1156.047 232.764v14.583s.1 2.672 3.378 2.672h19.487s10.007-.186 11.7-6.919a78.4 78.4 0 0 1-12.438 1.333c-13.057.687-19.273-6.24-22.127-11.669z" class="cls-2" data-name="패스 3438" transform="translate(1224.047 -158.1)"/>
            <path id="패스_3439" d="M-1131.964 218.251s2.208 12.641-7.308 12.641c0 0-13.416.254-16.775-10.33v3.189c2.853 5.429 9.07 12.356 22.13 11.67a78.442 78.442 0 0 0 12.438-1.333 8.268 8.268 0 0 0 .249-2.038c0-8.743-9.135-16.978-10.734-13.799z" class="cls-1" data-name="패스 3439" transform="translate(1224.047 -149.22)"/>
        </g>
        <g id="그룹_9344" data-name="그룹 9344" transform="translate(0 -.318)">
            <g id="그룹_9343" data-name="그룹 9343" transform="translate(-.184)">
                <path id="패스_3440" d="M-1036.613 280.027h5.789a6.92 6.92 0 0 1 2.084.39 6.948 6.948 0 0 1 2.274 1.274 7.455 7.455 0 0 1 1.831 2.327 7.5 7.5 0 0 1 .759 3.528 7.891 7.891 0 0 1-.727 3.569 6.871 6.871 0 0 1-1.8 2.306 6.569 6.569 0 0 1-2.263 1.264 7.319 7.319 0 0 1-2.158.378h-5.789v-15.036zm2.462 2.064V293h2.105a6.725 6.725 0 0 0 2.263-.369 5.008 5.008 0 0 0 1.8-1.084 5.024 5.024 0 0 0 1.169-1.706 5.747 5.747 0 0 0 .432-2.274 5.8 5.8 0 0 0-.422-2.254 4.966 4.966 0 0 0-1.179-1.727 5.071 5.071 0 0 0-1.779-1.106 6.489 6.489 0 0 0-2.285-.389h-2.1z" class="cls-1" data-name="패스 3440" transform="translate(1163.797 -227.288)"/>
                <path id="패스_3441" d="M-1016.875 291.45a5.623 5.623 0 0 1 .453-2.253 5.636 5.636 0 0 1 1.252-1.833 5.912 5.912 0 0 1 1.842-1.242 5.619 5.619 0 0 1 2.264-.464 5.531 5.531 0 0 1 2.252.464 5.971 5.971 0 0 1 1.833 1.242 5.943 5.943 0 0 1 1.241 1.833 5.525 5.525 0 0 1 .464 2.253 5.6 5.6 0 0 1-.464 2.264 5.9 5.9 0 0 1-1.241 1.842 5.64 5.64 0 0 1-1.833 1.254 5.641 5.641 0 0 1-2.252.453 5.723 5.723 0 0 1-2.264-.453 5.6 5.6 0 0 1-1.842-1.254 5.6 5.6 0 0 1-1.252-1.842 5.7 5.7 0 0 1-.453-2.264zm5.812-3.664a3.451 3.451 0 0 0-1.421.3 3.856 3.856 0 0 0-1.169.8 3.689 3.689 0 0 0-.79 1.169 3.515 3.515 0 0 0-.284 1.4 3.562 3.562 0 0 0 .284 1.421 3.689 3.689 0 0 0 .79 1.169 3.72 3.72 0 0 0 1.169.791 3.562 3.562 0 0 0 1.421.284 3.508 3.508 0 0 0 1.4-.284 3.721 3.721 0 0 0 1.169-.791 3.825 3.825 0 0 0 .8-1.169 3.463 3.463 0 0 0 .294-1.421 3.417 3.417 0 0 0-.294-1.4 3.85 3.85 0 0 0-.8-1.169 3.839 3.839 0 0 0-1.169-.8 3.39 3.39 0 0 0-1.4-.3z" class="cls-1" data-name="패스 3441" transform="translate(1158.227 -228.876)"/>
                <path id="패스_3442" d="M-988.294 290.017v6.908h-2.379v-6.234a2.578 2.578 0 0 0-.2-.959 3.061 3.061 0 0 0-.558-.895 3.173 3.173 0 0 0-.874-.643 2.5 2.5 0 0 0-1.148-.264 2.618 2.618 0 0 0-1.168.253 3.3 3.3 0 0 0-.9.631 2.912 2.912 0 0 0-.548.885 2.643 2.643 0 0 0-.19.969v6.255h-2.379V286.2h2.4v1.432c.015-.014.1-.119.274-.316a4.238 4.238 0 0 1 .716-.632 7.241 7.241 0 0 1 1.169-.6 4.045 4.045 0 0 1 1.569-.284 3.922 3.922 0 0 1 1.716.369 4.6 4.6 0 0 1 1.337.958 4.385 4.385 0 0 1 .852 1.348 4.118 4.118 0 0 1 .311 1.542z" class="cls-1" data-name="패스 3442" transform="translate(1153.079 -228.918)"/>
                <path id="패스_3443" d="M-972.762 296.1v-.443a5.064 5.064 0 0 1-2.084 1.391 6.673 6.673 0 0 1-2.19.422 4.747 4.747 0 0 1-1.926-.422 5.563 5.563 0 0 1-1.716-1.18 5.892 5.892 0 0 1-1.233-1.758 5.224 5.224 0 0 1-.474-2.222 5.313 5.313 0 0 1 .464-2.222 5.725 5.725 0 0 1 1.221-1.766 5.908 5.908 0 0 1 1.726-1.169 4.776 4.776 0 0 1 1.958-.432 7.483 7.483 0 0 1 2.095.337 4.556 4.556 0 0 1 2.158 1.538v-1.554h2.4v9.58a4.472 4.472 0 0 1-.41 1.8 6.066 6.066 0 0 1-1.168 1.738 6.372 6.372 0 0 1-1.842 1.3 5.6 5.6 0 0 1-2.433.516 6.264 6.264 0 0 1-2.916-.6 6.563 6.563 0 0 1-1.82-1.337 5.335 5.335 0 0 1-.948-1.4q-.274-.644-.3-.727h2.485c.014.027.087.15.221.368a3.221 3.221 0 0 0 .6.684 3.869 3.869 0 0 0 1.032.674 3.566 3.566 0 0 0 1.515.3 3.619 3.619 0 0 0 1.369-.264 3.386 3.386 0 0 0 1.136-.747 3.709 3.709 0 0 0 .78-1.084 3.071 3.071 0 0 0 .3-1.321zm-7.306-4.212a3.4 3.4 0 0 0 .294 1.411 3.626 3.626 0 0 0 .8 1.137 3.7 3.7 0 0 0 1.179.759 3.77 3.77 0 0 0 1.431.274 3.683 3.683 0 0 0 1.42-.274 3.7 3.7 0 0 0 1.169-.759 3.832 3.832 0 0 0 .78-1.137 3.4 3.4 0 0 0 .294-1.411 3.347 3.347 0 0 0-.294-1.39 3.836 3.836 0 0 0-.78-1.137 3.676 3.676 0 0 0-1.169-.791 3.561 3.561 0 0 0-1.42-.284 3.645 3.645 0 0 0-1.431.284 3.662 3.662 0 0 0-1.179.791 3.618 3.618 0 0 0-.8 1.137 3.351 3.351 0 0 0-.294 1.387z" class="cls-1" data-name="패스 3443" transform="translate(1148.495 -229.058)"/>
                <path id="패스_3444" d="M-945.958 283.885a1.7 1.7 0 0 0-.179-.705 2.749 2.749 0 0 0-.494-.727 2.836 2.836 0 0 0-.758-.568 2.105 2.105 0 0 0-.99-.231 2.378 2.378 0 0 0-1.81.663 2.1 2.1 0 0 0-.632 1.485 1.3 1.3 0 0 0 .421 1 4.064 4.064 0 0 0 1.053.684 13.331 13.331 0 0 0 1.337.495q.7.222 1.273.453.674.337 1.337.611a4.529 4.529 0 0 1 1.189.716 3.236 3.236 0 0 1 .831 1.095 4.133 4.133 0 0 1 .327 1.79 3.811 3.811 0 0 1-.421 1.726 4.7 4.7 0 0 1-1.156 1.474 5.7 5.7 0 0 1-1.686 1.053 5.022 5.022 0 0 1-2.042.379 5.549 5.549 0 0 1-2.337-.464 5.4 5.4 0 0 1-1.7-1.2 4.761 4.761 0 0 1-1.048-1.614 4.834 4.834 0 0 1-.348-1.758h2.569a2.454 2.454 0 0 0 .863 2 3.041 3.041 0 0 0 2 .717 3.085 3.085 0 0 0 1.137-.2 2.914 2.914 0 0 0 .863-.516 2.514 2.514 0 0 0 .537-.716 1.769 1.769 0 0 0 .2-.8 1.573 1.573 0 0 0-.695-1.369 11.11 11.11 0 0 0-1.642-.926q-.841-.337-1.789-.632a9.288 9.288 0 0 1-1.749-.737 4.234 4.234 0 0 1-1.326-1.19 3.293 3.293 0 0 1-.527-1.969 3.824 3.824 0 0 1 .39-1.674 4.435 4.435 0 0 1 1.084-1.421 5.5 5.5 0 0 1 1.578-.99 4.964 4.964 0 0 1 1.937-.378 4.885 4.885 0 0 1 1.968.389 5.163 5.163 0 0 1 1.548 1.022 4.659 4.659 0 0 1 1.032 1.411 4.6 4.6 0 0 1 .442 1.622h-2.588z" class="cls-1" data-name="패스 3444" transform="translate(1140.427 -227.123)"/>
                <path id="패스_3445" d="M-936.689 293.33v-6.908l2.4.021v6.108a2.719 2.719 0 0 0 .189.979 2.634 2.634 0 0 0 .548.874 2.822 2.822 0 0 0 .874.653 2.629 2.629 0 0 0 1.169.253 2.665 2.665 0 0 0 1.148-.242 2.879 2.879 0 0 0 .874-.622 2.876 2.876 0 0 0 .579-.884 2.577 2.577 0 0 0 .2-.989v-6.129l2.358-.021v10.72h-2.379v-1.433c-.028.029-.126.137-.294.327a3.865 3.865 0 0 1-.716.6 5.491 5.491 0 0 1-1.168.6 4.357 4.357 0 0 1-1.569.264 4.2 4.2 0 0 1-1.726-.348 4.018 4.018 0 0 1-1.326-.937 4.366 4.366 0 0 1-.853-1.338 4.023 4.023 0 0 1-.308-1.548z" class="cls-1" data-name="패스 3445" transform="translate(1135.601 -229.092)"/>
                <path id="패스_3446" d="M-909.81 290.017v6.908h-2.379v-6.234a2.593 2.593 0 0 0-.2-.959 3.082 3.082 0 0 0-.558-.895 3.188 3.188 0 0 0-.874-.643 2.493 2.493 0 0 0-1.148-.264 2.622 2.622 0 0 0-1.169.253 3.3 3.3 0 0 0-.9.631 2.922 2.922 0 0 0-.547.885 2.643 2.643 0 0 0-.19.969v6.255h-2.379V286.2h2.4v1.432c.014-.014.1-.119.273-.316a4.234 4.234 0 0 1 .715-.632 7.225 7.225 0 0 1 1.169-.6 4.041 4.041 0 0 1 1.568-.284 3.926 3.926 0 0 1 1.717.369 4.605 4.605 0 0 1 1.337.958 4.363 4.363 0 0 1 .852 1.348 4.121 4.121 0 0 1 .313 1.542z" class="cls-1" data-name="패스 3446" transform="translate(1130.933 -228.918)"/>
                <path id="패스_3447" d="M-894.277 296.1v-.443a5.066 5.066 0 0 1-2.084 1.391 6.673 6.673 0 0 1-2.19.422 4.755 4.755 0 0 1-1.927-.422 5.58 5.58 0 0 1-1.716-1.18 5.877 5.877 0 0 1-1.232-1.758 5.213 5.213 0 0 1-.474-2.222 5.32 5.32 0 0 1 .463-2.222 5.715 5.715 0 0 1 1.222-1.758 5.916 5.916 0 0 1 1.726-1.169 4.777 4.777 0 0 1 1.958-.432 7.477 7.477 0 0 1 2.095.337 4.557 4.557 0 0 1 2.159 1.538v-1.562h2.4v9.58a4.483 4.483 0 0 1-.41 1.8 6.083 6.083 0 0 1-1.169 1.738 6.366 6.366 0 0 1-1.842 1.3 5.592 5.592 0 0 1-2.433.516 6.267 6.267 0 0 1-2.916-.6 6.568 6.568 0 0 1-1.82-1.337 5.331 5.331 0 0 1-.948-1.4q-.274-.644-.294-.727h2.484c.014.027.087.15.222.368a3.175 3.175 0 0 0 .6.684 3.871 3.871 0 0 0 1.032.674 3.57 3.57 0 0 0 1.515.3 3.615 3.615 0 0 0 1.369-.264 3.383 3.383 0 0 0 1.136-.747 3.7 3.7 0 0 0 .78-1.084 3.08 3.08 0 0 0 .294-1.321zm-7.306-4.212a3.4 3.4 0 0 0 .294 1.411 3.611 3.611 0 0 0 .8 1.137 3.7 3.7 0 0 0 1.179.759 3.77 3.77 0 0 0 1.431.274 3.682 3.682 0 0 0 1.421-.274 3.7 3.7 0 0 0 1.169-.759 3.816 3.816 0 0 0 .78-1.137 3.4 3.4 0 0 0 .294-1.411 3.347 3.347 0 0 0-.294-1.39 3.822 3.822 0 0 0-.78-1.137 3.679 3.679 0 0 0-1.169-.791 3.56 3.56 0 0 0-1.421-.284 3.645 3.645 0 0 0-1.431.284 3.662 3.662 0 0 0-1.179.791 3.6 3.6 0 0 0-.8 1.137 3.347 3.347 0 0 0-.294 1.387z" class="cls-1" data-name="패스 3447" transform="translate(1126.348 -229.058)"/>
            </g>
            <g id="그룹_9342" data-name="그룹 9342" transform="translate(-115.975 26)">
                <path id="패스_3448" d="M-875.3 280h5.137a5.186 5.186 0 0 1 1.937.337 4.824 4.824 0 0 1 1.431.863 3.779 3.779 0 0 1 .864 1.242 3.645 3.645 0 0 1 .294 1.432 2.772 2.772 0 0 1-.231 1.148 4.444 4.444 0 0 1-.527.9 3.915 3.915 0 0 1-.515.6c-.161.147-.25.228-.263.242a1.831 1.831 0 0 0 .358.21 3.808 3.808 0 0 1 .8.612 4.706 4.706 0 0 1 .789 1.106 3.492 3.492 0 0 1 .369 1.674 4.39 4.39 0 0 1-.516 2.222 4.761 4.761 0 0 1-1.273 1.463 4.913 4.913 0 0 1-1.621.78 6.024 6.024 0 0 1-1.538.231h-5.495V280zm2.421 7.876v5.075h2.927a2.255 2.255 0 0 0 .874-.18 2.6 2.6 0 0 0 .79-.516 2.811 2.811 0 0 0 .557-.811 2.489 2.489 0 0 0 .222-1.063 2.321 2.321 0 0 0-.222-1.011 2.659 2.659 0 0 0-.578-.8 2.652 2.652 0 0 0-.78-.505 2.228 2.228 0 0 0-.884-.19zm.021-5.77v3.664h2.632a1.784 1.784 0 0 0 1.421-.568 1.854 1.854 0 0 0 .495-1.242 1.952 1.952 0 0 0-.495-1.254 1.763 1.763 0 0 0-1.443-.6h-2.61z" class="cls-1" data-name="패스 3448" transform="translate(1118.279 -227.28)"/>
                <path id="패스_3449" d="M-856.629 280.232v2.085h-2.485v-2.085zm0 4.591v10.3h-2.485v-10.3z" class="cls-1" data-name="패스 3449" transform="translate(1113.711 -227.346)"/>
                <path id="패스_3450" d="M-853.981 291.45a5.648 5.648 0 0 1 .453-2.253 5.615 5.615 0 0 1 1.253-1.833 5.913 5.913 0 0 1 1.842-1.242 5.615 5.615 0 0 1 2.263-.464 5.533 5.533 0 0 1 2.253.464 5.977 5.977 0 0 1 1.832 1.242 5.948 5.948 0 0 1 1.242 1.833 5.538 5.538 0 0 1 .463 2.253 5.611 5.611 0 0 1-.463 2.264 5.924 5.924 0 0 1-1.242 1.842 5.645 5.645 0 0 1-1.832 1.254 5.645 5.645 0 0 1-2.253.453 5.718 5.718 0 0 1-2.263-.453 5.6 5.6 0 0 1-1.842-1.254 5.584 5.584 0 0 1-1.253-1.842 5.723 5.723 0 0 1-.453-2.264zm5.81-3.664a3.45 3.45 0 0 0-1.421.3 3.866 3.866 0 0 0-1.169.8 3.693 3.693 0 0 0-.789 1.169 3.506 3.506 0 0 0-.284 1.4 3.564 3.564 0 0 0 .284 1.421 3.685 3.685 0 0 0 .789 1.169 3.728 3.728 0 0 0 1.169.791 3.561 3.561 0 0 0 1.421.284 3.512 3.512 0 0 0 1.4-.284 3.71 3.71 0 0 0 1.169-.791 3.844 3.844 0 0 0 .8-1.169 3.477 3.477 0 0 0 .3-1.421 3.43 3.43 0 0 0-.3-1.4 3.863 3.863 0 0 0-.8-1.169 3.836 3.836 0 0 0-1.169-.8 3.391 3.391 0 0 0-1.4-.3z" class="cls-1" data-name="패스 3450" transform="translate(1112.262 -228.876)"/>
                <path id="패스_3451" d="M-822.105 295.064v-12.825h-4.043v-2.212h10.633v2.212h-4.021v12.825z" class="cls-1" data-name="패스 3451" transform="translate(1104.409 -227.288)"/>
                <path id="패스_3452" d="M-797.851 292.236h-9.18a4.193 4.193 0 0 0 1.157 2.138 3.14 3.14 0 0 0 2.337.916 3.2 3.2 0 0 0 1.054-.168 3.3 3.3 0 0 0 .863-.442 4.044 4.044 0 0 0 .653-.579 3.472 3.472 0 0 0 .441-.6h2.358a6.51 6.51 0 0 1-2.052 2.78 5.25 5.25 0 0 1-3.316 1.053 5.572 5.572 0 0 1-2.242-.453 5.83 5.83 0 0 1-1.82-1.233 5.821 5.821 0 0 1-1.232-1.821 5.563 5.563 0 0 1-.454-2.243 5.531 5.531 0 0 1 .454-2.211 5.8 5.8 0 0 1 1.232-1.832 5.98 5.98 0 0 1 1.82-1.242 5.46 5.46 0 0 1 2.242-.464 5.891 5.891 0 0 1 2.127.432 5.825 5.825 0 0 1 1.98 1.274 5.357 5.357 0 0 1 1.283 1.959 5.741 5.741 0 0 1 .295 2.736zm-9.032-1.873h6.738a3.141 3.141 0 0 0-1.285-1.8 3.652 3.652 0 0 0-2.106-.664 3.174 3.174 0 0 0-2.094.727 4.12 4.12 0 0 0-1.253 1.737z" class="cls-1" data-name="패스 3452" transform="translate(1099.65 -228.926)"/>
                <path id="패스_3453" d="M-780 289.856h-2.4a7 7 0 0 0-1.073-1.2 2.909 2.909 0 0 0-1.853-.652 3.224 3.224 0 0 0-1.295.231 3.92 3.92 0 0 0-1.169.716 3.582 3.582 0 0 0-.821 1.137 3.484 3.484 0 0 0-.316 1.495 3.47 3.47 0 0 0 .316 1.506 3.6 3.6 0 0 0 .821 1.126 3.745 3.745 0 0 0 1.169.706 3.639 3.639 0 0 0 1.295.242 2.794 2.794 0 0 0 1.885-.59 4.423 4.423 0 0 0 1.041-1.264h2.421a5.43 5.43 0 0 1-.768 1.6 5.808 5.808 0 0 1-1.231 1.285 5.678 5.678 0 0 1-1.579.832 5.646 5.646 0 0 1-1.853.306 5.588 5.588 0 0 1-2.231-.453 5.778 5.778 0 0 1-1.832-1.233 5.819 5.819 0 0 1-1.232-1.821 5.564 5.564 0 0 1-.453-2.243 5.509 5.509 0 0 1 .453-2.222 5.823 5.823 0 0 1 1.232-1.822 5.927 5.927 0 0 1 1.832-1.242 5.48 5.48 0 0 1 2.231-.464 5.185 5.185 0 0 1 1.82.316 5.628 5.628 0 0 1 1.548.863 6.142 6.142 0 0 1 1.21 1.274 6.934 6.934 0 0 1 .832 1.571z" class="cls-1" data-name="패스 3453" transform="translate(1094.535 -228.925)"/>
                <path id="패스_3454" d="M-763.047 288.218v6.887h-2.379v-6.3a2.588 2.588 0 0 0-.2-.959 3.08 3.08 0 0 0-.559-.9 2.987 2.987 0 0 0-.874-.663 2.493 2.493 0 0 0-1.148-.263 2.619 2.619 0 0 0-1.169.253 3.31 3.31 0 0 0-.9.632 2.891 2.891 0 0 0-.548.9 2.72 2.72 0 0 0-.19.979v6.317h-2.379v-14.927h2.379v5.581c.014-.014.1-.111.274-.294a4.983 4.983 0 0 1 .716-.611 6.312 6.312 0 0 1 1.169-.579 4.421 4.421 0 0 1 1.59-.263 3.925 3.925 0 0 1 1.717.368 4.622 4.622 0 0 1 1.337.959 4.363 4.363 0 0 1 .852 1.348 4.1 4.1 0 0 1 .312 1.535z" class="cls-1" data-name="패스 3454" transform="translate(1089.52 -227.33)"/>
                <path id="패스_3455" d="M-746.564 290.017v6.908h-2.379v-6.234a2.578 2.578 0 0 0-.2-.959 3.066 3.066 0 0 0-.558-.895 3.166 3.166 0 0 0-.874-.643 2.491 2.491 0 0 0-1.148-.264 2.624 2.624 0 0 0-1.169.253 3.29 3.29 0 0 0-.894.631 2.912 2.912 0 0 0-.548.885 2.645 2.645 0 0 0-.189.969v6.255h-2.377V286.2h2.4v1.432c.014-.014.1-.119.273-.316a4.254 4.254 0 0 1 .716-.632 7.189 7.189 0 0 1 1.169-.6 4.044 4.044 0 0 1 1.568-.284 3.924 3.924 0 0 1 1.717.369 4.586 4.586 0 0 1 1.337.958 4.374 4.374 0 0 1 .853 1.348 4.121 4.121 0 0 1 .303 1.542z" class="cls-1" data-name="패스 3455" transform="translate(1084.869 -228.918)"/>
                <path id="패스_3456" d="M-740.478 291.45a5.64 5.64 0 0 1 .454-2.253 5.621 5.621 0 0 1 1.253-1.833 5.911 5.911 0 0 1 1.841-1.242 5.6 5.6 0 0 1 2.263-.464 5.529 5.529 0 0 1 2.253.464 5.981 5.981 0 0 1 1.833 1.242 5.937 5.937 0 0 1 1.241 1.833 5.537 5.537 0 0 1 .464 2.253 5.61 5.61 0 0 1-.464 2.264 5.918 5.918 0 0 1-1.241 1.842 5.648 5.648 0 0 1-1.833 1.254 5.641 5.641 0 0 1-2.253.453 5.72 5.72 0 0 1-2.263-.453 5.6 5.6 0 0 1-1.841-1.254 5.59 5.59 0 0 1-1.253-1.842 5.715 5.715 0 0 1-.454-2.264zm5.811-3.664a3.455 3.455 0 0 0-1.421.3 3.874 3.874 0 0 0-1.169.8 3.7 3.7 0 0 0-.789 1.169 3.517 3.517 0 0 0-.284 1.4 3.579 3.579 0 0 0 .284 1.421 3.7 3.7 0 0 0 .789 1.169 3.735 3.735 0 0 0 1.169.791 3.566 3.566 0 0 0 1.421.284 3.515 3.515 0 0 0 1.4-.284 3.729 3.729 0 0 0 1.169-.791 3.866 3.866 0 0 0 .8-1.169 3.477 3.477 0 0 0 .298-1.426 3.429 3.429 0 0 0-.294-1.4 3.876 3.876 0 0 0-.8-1.169 3.856 3.856 0 0 0-1.169-.8 3.394 3.394 0 0 0-1.404-.295z" class="cls-1" data-name="패스 3456" transform="translate(1080.235 -228.876)"/>
                <path id="패스_3457" d="M-720.131 295.1h-2.484v-14.927h2.484z" class="cls-1" data-name="패스 3457" transform="translate(1075.194 -227.33)"/>
                <path id="패스_3458" d="M-717.482 291.45a5.649 5.649 0 0 1 .453-2.253 5.615 5.615 0 0 1 1.253-1.833 5.911 5.911 0 0 1 1.842-1.242 5.613 5.613 0 0 1 2.263-.464 5.533 5.533 0 0 1 2.253.464 5.974 5.974 0 0 1 1.832 1.242 5.941 5.941 0 0 1 1.242 1.833 5.536 5.536 0 0 1 .463 2.253 5.609 5.609 0 0 1-.463 2.264 5.922 5.922 0 0 1-1.242 1.842 5.642 5.642 0 0 1-1.832 1.254 5.644 5.644 0 0 1-2.253.453 5.717 5.717 0 0 1-2.263-.453 5.6 5.6 0 0 1-1.842-1.254 5.584 5.584 0 0 1-1.253-1.842 5.724 5.724 0 0 1-.453-2.264zm5.81-3.664a3.45 3.45 0 0 0-1.421.3 3.856 3.856 0 0 0-1.169.8 3.689 3.689 0 0 0-.789 1.169 3.506 3.506 0 0 0-.284 1.4 3.567 3.567 0 0 0 .284 1.421 3.689 3.689 0 0 0 .789 1.169 3.719 3.719 0 0 0 1.169.791 3.561 3.561 0 0 0 1.421.284 3.509 3.509 0 0 0 1.4-.284 3.71 3.71 0 0 0 1.169-.791 3.857 3.857 0 0 0 .8-1.169 3.488 3.488 0 0 0 .294-1.421 3.44 3.44 0 0 0-.294-1.4 3.865 3.865 0 0 0-.8-1.169 3.838 3.838 0 0 0-1.169-.8 3.388 3.388 0 0 0-1.4-.3z" class="cls-1" data-name="패스 3458" transform="translate(1073.746 -228.876)"/>
                <path id="패스_3459" d="M-689.853 296.1v-.443a5.065 5.065 0 0 1-2.085 1.391 6.671 6.671 0 0 1-2.19.422 4.756 4.756 0 0 1-1.927-.422 5.569 5.569 0 0 1-1.715-1.18 5.875 5.875 0 0 1-1.23-1.761 5.212 5.212 0 0 1-.474-2.222 5.322 5.322 0 0 1 .463-2.222 5.717 5.717 0 0 1 1.222-1.758 5.908 5.908 0 0 1 1.726-1.169 4.778 4.778 0 0 1 1.958-.432 7.481 7.481 0 0 1 2.095.337 4.561 4.561 0 0 1 2.159 1.538v-1.559h2.4v9.58a4.481 4.481 0 0 1-.409 1.8 6.081 6.081 0 0 1-1.169 1.738 6.366 6.366 0 0 1-1.842 1.3 5.593 5.593 0 0 1-2.433.516 6.267 6.267 0 0 1-2.916-.6 6.565 6.565 0 0 1-1.82-1.337 5.334 5.334 0 0 1-.948-1.4q-.274-.644-.294-.727h2.484c.014.027.087.15.222.368a3.182 3.182 0 0 0 .6.684 3.869 3.869 0 0 0 1.032.674 3.568 3.568 0 0 0 1.515.3 3.616 3.616 0 0 0 1.369-.264 3.388 3.388 0 0 0 1.136-.747 3.68 3.68 0 0 0 .78-1.084 3.07 3.07 0 0 0 .291-1.321zm-7.306-4.212a3.4 3.4 0 0 0 .294 1.411 3.612 3.612 0 0 0 .8 1.137 3.7 3.7 0 0 0 1.179.759 3.768 3.768 0 0 0 1.431.274 3.682 3.682 0 0 0 1.421-.274 3.7 3.7 0 0 0 1.169-.759 3.8 3.8 0 0 0 .779-1.137 3.384 3.384 0 0 0 .3-1.411 3.334 3.334 0 0 0-.3-1.39 3.8 3.8 0 0 0-.779-1.137 3.683 3.683 0 0 0-1.169-.791 3.56 3.56 0 0 0-1.421-.284 3.643 3.643 0 0 0-1.431.284 3.663 3.663 0 0 0-1.179.791 3.6 3.6 0 0 0-.8 1.137 3.345 3.345 0 0 0-.293 1.387z" class="cls-1" data-name="패스 3459" transform="translate(1068.664 -229.058)"/>
                <path id="패스_3460" d="M-680.439 286.685h2.611l2.737 7.687 2.8-7.687h2.568l-5.748 14.932h-2.442l1.642-4.191z" class="cls-1" data-name="패스 3460" transform="translate(1063.293 -229.166)"/>
            </g>
        </g>
    </g>
</svg>
