<svg xmlns="http://www.w3.org/2000/svg" id="shopping_cart-24px" width="32" height="32" viewBox="0 0 32 32">
    <defs>
        <style>
            .cls-1{fill:#157ffb}.cls-2{fill:none}
        </style>
    </defs>
    <path id="패스_70435" d="M9 23.333A2.667 2.667 0 1 0 11.667 26 2.663 2.663 0 0 0 9 23.333zM1 2v2.667h2.667l4.8 10.12-1.8 3.267a2.578 2.578 0 0 0-.333 1.28A2.675 2.675 0 0 0 9 22h16v-2.667H9.56A.33.33 0 0 1 9.227 19l.04-.16 1.2-2.173H20.4a2.654 2.654 0 0 0 2.333-1.373l4.774-8.654a1.3 1.3 0 0 0 .16-.64 1.337 1.337 0 0 0-1.333-1.333H6.613L5.36 2H1zm21.333 21.333A2.667 2.667 0 1 0 25 26a2.663 2.663 0 0 0-2.667-2.667z" class="cls-1" data-name="패스 70435" transform="translate(.333 .667)"/>
    <path id="패스_70436" d="M0 0h32v32H0z" class="cls-2" data-name="패스 70436"/>
</svg>
