<svg xmlns="http://www.w3.org/2000/svg" width="435" height="240" viewBox="0 0 435 240">
    <defs>
        <style>
            .cls-1{fill:#fdce0c;stroke:#707070}.cls-2{font-size:40px;font-family:NotoSansKR-Medium,Noto Sans KR Medium;font-weight:500;letter-spacing:.05em}.cls-3{fill:#efefef}.cls-4{fill:#324d5b}.cls-5{fill:#aeb5ba}.cls-6{fill:#e2574c}.cls-7{fill:#fff}.cls-8{fill:#26a6d1}.cls-9{fill:#dcdcdc}.cls-10{fill:#2e4754}.cls-11{stroke:none}.cls-12{fill:none}
        </style>
    </defs>
    <g id="그룹_18322" data-name="그룹 18322" transform="translate(-1445 -754)">
        <g id="그룹_18315" data-name="그룹 18315">
            <g id="사각형_39378" class="cls-1" data-name="사각형 39378" transform="translate(1445 754)">
                <rect width="435" height="240" class="cls-11" rx="2"/>
                <rect width="434" height="239" x=".5" y=".5" class="cls-12" rx="1.5"/>
            </g>
            <text id="결제하기" class="cls-2" transform="translate(1663 930)">
                <tspan x="-76.6" y="0">결제하기</tspan>
            </text>
            <g id="그룹_18312" data-name="그룹 18312" transform="translate(-1668 13039)">
                <g id="calculator" transform="translate(3301 -12233)">
                    <path id="패스_70455" d="M2.835 1.97h54.8a2.843 2.843 0 0 1 2.837 2.83v54.335a2.843 2.843 0 0 1-2.835 2.835H2.835A2.843 2.843 0 0 1 0 59.135V4.8a2.843 2.843 0 0 1 2.835-2.83z" class="cls-3" data-name="패스 70455" transform="translate(0 -1.97)"/>
                    <path id="패스_70456" d="M55.138 57.109h47.244v12.283H55.138z" class="cls-4" data-name="패스 70456" transform="translate(-48.524 -50.495)"/>
                    <path id="패스_70457" d="M306.176 83.763a1.485 1.485 0 0 0 .661-.52 1.592 1.592 0 0 0 .236-.8 1.535 1.535 0 0 0-.52-1.181 2.028 2.028 0 0 0-1.465-.472 2.152 2.152 0 0 0-1.512.472 1.61 1.61 0 0 0-.52 1.181 1.429 1.429 0 0 0 .236.756 1.459 1.459 0 0 0 .709.567 1.737 1.737 0 0 0-.85.661 1.7 1.7 0 0 0-.283.945 1.859 1.859 0 0 0 .709 1.512 2.315 2.315 0 0 0 1.512.472 2.107 2.107 0 0 0 1.559-.567 1.991 1.991 0 0 0 .614-1.465 1.6 1.6 0 0 0-.283-.945 1.372 1.372 0 0 0-.8-.614zm-1.654-1.843a.8.8 0 0 1 .614-.189.753.753 0 0 1 .567.189.8.8 0 0 1 0 1.134.945.945 0 0 1-1.134 0 .782.782 0 0 1-.236-.567.753.753 0 0 1 .189-.567zm1.276 4.157a.858.858 0 0 1-.661.283.793.793 0 0 1-.661-.283 1.111 1.111 0 0 1-.283-.8 1.13 1.13 0 0 1 .236-.661.853.853 0 0 1 .709-.331.793.793 0 0 1 .661.283.962.962 0 0 1 .283.709 1.038 1.038 0 0 1-.282.8zm5.528-2.315a1.485 1.485 0 0 0 .661-.52 1.592 1.592 0 0 0 .236-.8 1.535 1.535 0 0 0-.52-1.181 2.028 2.028 0 0 0-1.465-.472 2.152 2.152 0 0 0-1.512.472 1.61 1.61 0 0 0-.52 1.181 1.429 1.429 0 0 0 .236.756 1.459 1.459 0 0 0 .709.567 1.737 1.737 0 0 0-.85.661 1.7 1.7 0 0 0-.283.945 1.859 1.859 0 0 0 .709 1.512 2.315 2.315 0 0 0 1.512.472 2.107 2.107 0 0 0 1.559-.567 1.991 1.991 0 0 0 .614-1.465 1.6 1.6 0 0 0-.283-.945 1.372 1.372 0 0 0-.8-.614zm-1.7-1.843a.8.8 0 0 1 .614-.189.753.753 0 0 1 .567.189.8.8 0 0 1 0 1.134.945.945 0 0 1-1.134 0 .782.782 0 0 1-.236-.567.753.753 0 0 1 .188-.566zm1.276 4.157a.858.858 0 0 1-.661.283.793.793 0 0 1-.661-.283 1.111 1.111 0 0 1-.283-.8 1.13 1.13 0 0 1 .236-.661.853.853 0 0 1 .709-.331.793.793 0 0 1 .661.283.962.962 0 0 1 .283.709 1.038 1.038 0 0 1-.286.801zm6-4.583a2.038 2.038 0 0 0-1.654-.756 2.1 2.1 0 0 0-1.559.614 2.136 2.136 0 0 0-.614 1.606 2.068 2.068 0 0 0 .567 1.512 1.892 1.892 0 0 0 1.37.567 1.716 1.716 0 0 0 1.228-.52 2.756 2.756 0 0 1-.378 1.465.825.825 0 0 1-.661.331.711.711 0 0 1-.52-.189.768.768 0 0 1-.236-.52l-1.228.142a2.037 2.037 0 0 0 .614 1.228 1.891 1.891 0 0 0 1.276.425 2.366 2.366 0 0 0 1.8-.8 3.755 3.755 0 0 0 .661-2.551 4.03 4.03 0 0 0-.668-2.552zm-1.039 2.362a.832.832 0 0 1-.614.283.933.933 0 0 1-.661-.283 1.274 1.274 0 0 1-.236-.9 1.46 1.46 0 0 1 .236-.9.762.762 0 0 1 .614-.283.825.825 0 0 1 .661.331 1.411 1.411 0 0 1 .283.945 1.362 1.362 0 0 1-.285.809z" class="cls-5" data-name="패스 70457" transform="translate(-266.538 -71.29)"/>
                    <path id="패스_70458" d="M66.477 198.893h-9.449a1.9 1.9 0 0 0-1.89 1.89v9.449a1.9 1.9 0 0 0 1.89 1.89h9.449a1.9 1.9 0 0 0 1.89-1.89v-9.449a1.9 1.9 0 0 0-1.89-1.89zm16.063 0h-9.449a1.9 1.9 0 0 0-1.89 1.89v9.449a1.9 1.9 0 0 0 1.89 1.89h9.449a1.9 1.9 0 0 0 1.89-1.89v-9.449a1.9 1.9 0 0 0-1.89-1.89zm0 16.063h-9.449a1.9 1.9 0 0 0-1.89 1.89v9.449a1.9 1.9 0 0 0 1.89 1.89h9.449a1.9 1.9 0 0 0 1.89-1.89v-9.449a1.9 1.9 0 0 0-1.89-1.89zm-16.063 0h-9.449a1.9 1.9 0 0 0-1.89 1.89v9.449a1.9 1.9 0 0 0 1.89 1.89h9.449a1.9 1.9 0 0 0 1.89-1.89v-9.449a1.9 1.9 0 0 0-1.89-1.89z" class="cls-6" data-name="패스 70458" transform="translate(-48.524 -175.271)"/>
                    <path id="패스_70459" d="M86.646 249.77h5.669v-1.89h-5.669zm17.953-3.307a.945.945 0 1 0 .945-.945.948.948 0 0 0-.944.945zm-1.89 1.89v1.89h5.669v-1.89zm2.835 2.834a.945.945 0 1 0 .945.945.948.948 0 0 0-.945-.945zM90.426 230.4h-1.89v1.89h-1.89v1.89h1.89v1.89h1.89v-1.89h1.89v-1.89h-1.89v-1.89zm13.8 5.528l1.323-1.323 1.323 1.323 1.323-1.323-1.323-1.323 1.323-1.323-1.323-1.323-1.323 1.276-1.323-1.323-1.323 1.323 1.323 1.323-1.323 1.323z" class="cls-7" data-name="패스 70459" transform="translate(-76.252 -202.999)"/>
                    <path id="패스_70460" d="M324.844 198.893h11.339a1.9 1.9 0 0 1 1.89 1.89v25.512a1.9 1.9 0 0 1-1.89 1.89h-11.339a1.9 1.9 0 0 1-1.89-1.89v-25.512a1.9 1.9 0 0 1 1.89-1.89z" class="cls-8" data-name="패스 70460" transform="translate(-284.214 -175.271)"/>
                    <path id="패스_70461" d="M362.338 301.292v1.89h5.669v-1.89zm0 5.2h5.669V304.6h-5.669z" class="cls-7" data-name="패스 70461" transform="translate(-318.874 -265.387)"/>
                    <path id="패스_70462" d="M57.638 469.543H2.835A2.843 2.843 0 0 1 0 466.708v1.417a2.843 2.843 0 0 0 2.835 2.835h54.8a2.843 2.843 0 0 0 2.835-2.835v-1.417a2.843 2.843 0 0 1-2.832 2.835z" class="cls-9" data-name="패스 70462" transform="translate(0 -410.96)"/>
                    <path id="패스_70463" d="M55.138 57.109h47.244V59H55.138z" class="cls-10" data-name="패스 70463" transform="translate(-48.524 -50.495)"/>
                </g>
            </g>
        </g>
    </g>
</svg>
