<svg xmlns="http://www.w3.org/2000/svg" width="80" height="80" viewBox="0 0 80 80">
    <defs>
        <style>
            .cls-1{fill:#157ffb}.cls-2,.cls-3{fill:none}.cls-3{font-size:14px;font-family:NotoSansKR-Regular,Noto Sans KR Regular}
        </style>
    </defs>
    <g id="그룹_14326" data-name="그룹 14326" transform="translate(-1381 -539)">
        <path id="ic_router_24px" d="M60.333 12.667L63 10a23.341 23.341 0 0 0-33.333 0l2.667 2.667A20.846 20.846 0 0 1 46.333 7a20.846 20.846 0 0 1 14 5.667zm-3 2.667a15.3 15.3 0 0 0-22 0L38 18a12.083 12.083 0 0 1 16.667 0zm-1 21h-6.666V23H43v13.333H9.667A6.686 6.686 0 0 0 3 43v13.333A6.686 6.686 0 0 0 9.667 63h46.666A6.686 6.686 0 0 0 63 56.333V43a6.686 6.686 0 0 0-6.667-6.667zM19.667 53H13v-6.667h6.667zm11.667 0h-6.667v-6.667h6.667zM43 53h-6.667v-6.667H43z" class="cls-1" transform="translate(1388 546)"/>
        <g id="_24" data-name="24" transform="translate(1381 539)">
            <path id="사각형_21" d="M0 0h80v80H0z" class="cls-2" data-name="사각형 21"/>
            <text id="_24-2" class="cls-3" data-name="24" transform="translate(32 18)">
                <tspan x="0" y="0">24</tspan>
            </text>
        </g>
    </g>
</svg>
