<svg xmlns="http://www.w3.org/2000/svg" width="24" height="24" viewBox="0 0 24 24">
    <g id="prefix__그룹_25704" data-name="그룹 25704" transform="translate(-1456 -442) translate(1456 442)">
        <path id="prefix__ic_move_to_inbox_24px" d="M19 3H4.99a1.982 1.982 0 0 0-1.98 2L3 19a1.991 1.991 0 0 0 1.99 2H19a2.006 2.006 0 0 0 2-2V5a2.006 2.006 0 0 0-2-2zm0 12h-4a3 3 0 0 1-6 0H4.99V5H19zm-3-5h-2V7h-4v3H8l4 4z" style="fill:#fff"/>
        <g id="prefix___24" data-name="24">
            <path id="prefix__사각형_47579" d="M0 0H24V24H0z" data-name="사각형 47579" style="fill:none"/>
        </g>
    </g>
</svg>
