<svg xmlns="http://www.w3.org/2000/svg" id="baseline-account_circle-24px" width="24" height="24" viewBox="0 0 24 24">
    <defs>
        <style>
            .cls-1{fill:#fff}.cls-2{fill:none}
        </style>
    </defs>
    <path id="패스_428" d="M12 2a10 10 0 1 0 10 10A10 10 0 0 0 12 2zm0 3a3 3 0 1 1-3 3 3 3 0 0 1 3-3zm0 14.2a7.2 7.2 0 0 1-6-3.22c.03-1.99 4-3.08 6-3.08s5.97 1.09 6 3.08a7.2 7.2 0 0 1-6 3.22z" class="cls-1" data-name="패스 428"/>
    <path id="패스_429" d="M0 0h24v24H0z" class="cls-2" data-name="패스 429"/>
</svg>
