<svg xmlns="http://www.w3.org/2000/svg" id="그룹_13356" width="40" height="40" data-name="그룹 13356" viewBox="0 0 40 40">
    <defs>
        <style>
            .cls-1{fill:#fff}.cls-2{fill:none}
        </style>
    </defs>
    <g id="그룹_13133" data-name="그룹 13133" transform="translate(12 12)">
        <g id="그룹_13132" data-name="그룹 13132">
            <path id="패스_3436" d="M-1153.043 182.062c.173-3.29 3.822-5.026 7.943-5.761a6.2 6.2 0 0 0-1.237-.123h-8.228s-1.47-.03-1.47 1.217-.407 6.774 3.6 8.85a3.992 3.992 0 0 0 .836.3 5.657 5.657 0 0 1-1.444-4.483z" class="cls-1" data-name="패스 3436" transform="translate(1156.047 -176.178)"/>
            <path id="패스_3437" d="M-1130.216 176.912c-4.121.735-7.77 2.472-7.943 5.761a5.656 5.656 0 0 0 1.441 4.479c.668.145 1.42.035.947-1.456-.782-2.464-.125-5.177 2.284-5.083s6.789 2.006 7.1 8.279a5.547 5.547 0 0 0 .845-3.018c.06-1.838-.046-8.028-4.674-8.962z" class="cls-1" data-name="패스 3437" transform="translate(1141.163 -176.789)"/>
            <path id="패스_3438" d="M-1156.047 232.764v5.993a1.223 1.223 0 0 0 1.388 1.1h8.009s4.113-.076 4.81-2.844a32.219 32.219 0 0 1-5.112.548c-5.367.281-7.922-2.561-9.095-4.797z" class="cls-1" data-name="패스 3438" transform="translate(1156.047 -223.067)"/>
            <path id="패스_3439" d="M-1146.149 217.84s.907 5.2-3 5.2c0 0-5.514.1-6.895-4.245v1.305c1.173 2.231 3.728 5.078 9.1 4.8a32.238 32.238 0 0 0 5.112-.548 3.4 3.4 0 0 0 .1-.838c-.005-3.596-3.759-6.98-4.417-5.674z" class="cls-1" data-name="패스 3439" transform="translate(1156.047 -210.458)"/>
        </g>
    </g>
    <path id="사각형_19393" d="M0 0h40v40H0z" class="cls-2" data-name="사각형 19393"/>
</svg>
