<svg xmlns="http://www.w3.org/2000/svg" width="32" height="32" viewBox="0 0 32 32">
    <defs>
        <style>
            .cls-1,.cls-4{fill:none}.cls-2{fill:#fff}.cls-3{clip-path:url(#clip-path)}.cls-4{font-size:14px;font-family:NotoSansKR-Regular,Noto Sans KR Regular}
        </style>
        <clipPath id="clip-path">
            <path d="M0 0h32v32H0z" class="cls-1"/>
        </clipPath>
    </defs>
    <g id="그룹_17958" data-name="그룹 17958" transform="translate(-321 -288)">
        <path id="won-sign" d="M29.375 41a.627.627 0 0 0 .625-.628v-2.083a.627.627 0 0 0-.625-.625h-2.5l.969-4.2a.627.627 0 0 0-.609-.766h-2.4a.62.62 0 0 0-.609.495l-.75 4.469H17.75l-1.026-4.479a.624.624 0 0 0-.609-.484h-2.292a.624.624 0 0 0-.609.484l-1.042 4.479H6.51L5.6 33.2a.625.625 0 0 0-.615-.5H2.792a.623.623 0 0 0-.609.76l.943 4.2H.625a.627.627 0 0 0-.625.629v2.083A.627.627 0 0 0 .625 41H3.87l.375 1.667H.625a.627.627 0 0 0-.625.622v2.083A.627.627 0 0 0 .625 46h4.37l2.13 9.51a.624.624 0 0 0 .609.49h2.958a.629.629 0 0 0 .609-.484L13.505 46h2.87l2.208 9.516a.629.629 0 0 0 .609.484h2.958a.629.629 0 0 0 .609-.484L24.953 46h4.422a.627.627 0 0 0 .625-.628v-2.083a.627.627 0 0 0-.625-.625h-3.651L26.109 41zm-19.8 7.812a19.444 19.444 0 0 0-.38 2.458h-.06a22.74 22.74 0 0 0-.354-2.458L8.208 46h2.021zm1.432-6.146H7.526L7.188 41H11.4zm3.276 0l.1-.448c.1-.417.182-.833.25-1.219h.615c.068.385.151.8.25 1.219l.1.448zm6.817 6.143a22.74 22.74 0 0 0-.354 2.458h-.057a20.654 20.654 0 0 0-.38-2.458L19.661 46H21.7zm1.313-6.146H18.9L18.521 41h4.25z" class="cls-2" transform="translate(322 259.3)"/>
        <g id="_32" class="cls-3" data-name="32" transform="translate(321 288)">
            <path id="사각형_21" d="M0 0h32v32H0z" class="cls-1" data-name="사각형 21"/>
            <text id="_32-2" class="cls-4" data-name="32" transform="translate(8 22)">
                <tspan x="0" y="0">32</tspan>
            </text>
        </g>
    </g>
</svg>
