<svg xmlns="http://www.w3.org/2000/svg" width="24" height="24" viewBox="0 0 24 24">
    <g id="prefix__그룹_25529" data-name="그룹 25529" transform="translate(-7574 14795) translate(7574 -14795)">
        <path id="prefix__account-card-details" d="M2 3h20a2.078 2.078 0 0 1 2 2v14a2.078 2.078 0 0 1-2 2H2a2.078 2.078 0 0 1-2-2V5a2.078 2.078 0 0 1 2-2zm12 3v1h8V6zm0 2v1h8V8zm0 2v1h7v-1zm-6 3.906C6 13.906 2 15 2 17v1h12v-1c0-2-4-3.094-6-3.094zM8 6a3 3 0 1 0 3 3 3 3 0 0 0-3-3z" style="fill:#fff"/>
        <g id="prefix___24" data-name="24">
            <g id="prefix___24-2" data-name="24">
                <path id="prefix__사각형_21" d="M0 0H24V24H0z" data-name="사각형 21" style="fill:none"/>
            </g>
        </g>
    </g>
</svg>
