<svg xmlns="http://www.w3.org/2000/svg" width="24" height="24" viewBox="0 0 24 24">
    <defs>
        <style>
            .cls-1,.cls-4{fill:none}.cls-2{fill:#fff}.cls-3{clip-path:url(#clip-path)}.cls-4{font-size:1px;font-family:NotoSansKR-Regular,Noto Sans KR Regular}
        </style>
        <clipPath id="clip-path">
            <path d="M0 0h24v24H0z" class="cls-1"/>
        </clipPath>
    </defs>
    <g id="그룹_13802" data-name="그룹 13802" transform="translate(-416 -651)">
        <g id="그룹_7039" data-name="그룹 7039" transform="translate(416 651)">
            <path id="ic_assignment_turned_in_24px" d="M19 3h-4.18a2.988 2.988 0 0 0-5.64 0H5a2.006 2.006 0 0 0-2 2v14a2.006 2.006 0 0 0 2 2h14a2.006 2.006 0 0 0 2-2V5a2.006 2.006 0 0 0-2-2zm-7 0a1 1 0 1 1-1 1 1 1 0 0 1 1-1zm-2 14l-4-4 1.41-1.41L10 14.17l6.59-6.59L18 9z" class="cls-2" transform="translate(0 1)"/>
            <path id="사각형_13983" d="M0 0h24v24H0z" class="cls-1" data-name="사각형 13983"/>
        </g>
        <g id="_24" class="cls-3" data-name="24" transform="translate(416 651)">
            <path id="사각형_21" d="M0 0h24v24H0z" class="cls-1" data-name="사각형 21"/>
            <text id="_24-2" class="cls-4" data-name="24" transform="translate(4 3)">
                <tspan x="0" y="0">24</tspan>
            </text>
        </g>
    </g>
</svg>
