<svg xmlns="http://www.w3.org/2000/svg" id="assignment-24px" width="32" height="32" viewBox="0 0 32 32">
    <defs>
        <style>
            .cls-1{fill:none}.cls-2{fill:#fff}
        </style>
    </defs>
    <path id="패스_70444" d="M0 0h32v32H0z" class="cls-1" data-name="패스 70444"/>
    <path id="패스_70445" d="M24.333 3.667H18.76a3.984 3.984 0 0 0-7.52 0H5.667A2.675 2.675 0 0 0 3 6.333V25a2.675 2.675 0 0 0 2.667 2.667h18.666A2.675 2.675 0 0 0 27 25V6.333a2.675 2.675 0 0 0-2.667-2.666zm-9.333 0A1.333 1.333 0 1 1 13.667 5 1.337 1.337 0 0 1 15 3.667zm2.667 18.667H8.333v-2.667h9.333zm4-5.333H8.333v-2.668h13.334zm0-5.333H8.333V9h13.334z" class="cls-2" data-name="패스 70445" transform="translate(1 .333)"/>
</svg>
