<svg xmlns="http://www.w3.org/2000/svg" width="32" height="32" viewBox="0 0 32 32">
    <defs>
        <style>
            .cls-1{fill:#fff}.cls-2{fill:#207245}
        </style>
    </defs>
    <g id="그룹_14163" data-name="그룹 14163" transform="translate(-1261 -138)">
        <g id="그룹_14162" data-name="그룹 14162" transform="translate(1261 138)">
            <path id="패스_52020" d="M16.736 0H18.9v2.977c3.639 0 7.277.007 10.916-.011a3.28 3.28 0 0 1 1.825.357 3.485 3.485 0 0 1 .356 1.883q-.027 9.689-.007 19.371a17.387 17.387 0 0 1-.124 3.256c-.145.774-1.054.792-1.661.819-3.766.011-7.535-.007-11.305 0V32h-2.262C11.1 30.969 5.547 30.017 0 29.023V2.981C5.58 1.987 11.16 1.009 16.736 0z" class="cls-1" data-name="패스 52020"/>
            <path id="패스_52022" d="M79.975 21.25h5.089v2.6h-5.089z" class="cls-1" data-name="패스 52022" transform="translate(-56.718 -14.924)"/>
            <path id="패스_52024" d="M79.975 35h5.089v2.6h-5.089zm0 4.093h5.089v2.6h-5.089zm0 4.093h5.089v2.6h-5.089zm0 4.093h5.089v2.6h-5.089z" class="cls-1" data-name="패스 52024" transform="translate(-56.718 -24.581)"/>
            <path id="패스_52021" d="M64.975 13.75h12v23.442h-12v-2.233h2.908v-2.6h-2.908v-1.493h2.908v-2.6h-2.908v-1.493h2.908v-2.6h-2.908V22.68h2.908v-2.6h-2.908v-1.493h2.908v-2.6h-2.908z" class="cls-1" data-name="패스 52021" transform="translate(-46.08 -9.657)"/>
            <path id="패스_52023" d="M22.319 32.6q1.232-.089 2.472-.152-1.454 3.056-2.933 6.1c1 2.084 2.021 4.153 3.024 6.236q-1.313-.077-2.624-.171a44.545 44.545 0 0 1-1.814-4.673c-.494 1.511-1.2 2.936-1.766 4.417-.8-.011-1.592-.045-2.388-.078.934-1.871 1.836-3.758 2.8-5.619-.818-1.916-1.716-3.8-2.559-5.7q1.2-.073 2.4-.141c.541 1.455 1.134 2.891 1.581 4.383.48-1.581 1.2-3.07 1.81-4.6z" class="cls-2" data-name="패스 52023" transform="translate(-11.551 -22.79)"/>
            <path id="패스_52031" d="M79.975 21.25h5.089v2.6h-5.089z" class="cls-2" data-name="패스 52031" transform="translate(-56.718 -14.924)"/>
            <path id="패스_52032" d="M79.975 21.25h3.337v2.6h-3.337z" class="cls-2" data-name="패스 52032" transform="translate(-61.218 -14.924)"/>
            <path id="패스_52030" d="M79.975 35h5.089v2.6h-5.089zm0 4.093h5.089v2.6h-5.089zm0 4.093h5.089v2.6h-5.089zm0 4.093h5.089v2.6h-5.089z" class="cls-2" data-name="패스 52030" transform="translate(-56.718 -24.581)"/>
            <path id="패스_52033" d="M79.975 35h3.337v2.6h-3.337zm0 4.093h3.337v2.6h-3.337zm0 4.093h3.337v2.6h-3.337zm0 4.093h3.337v2.6h-3.337z" class="cls-2" data-name="패스 52033" transform="translate(-61.218 -24.581)"/>
            <path id="사각형_20167" d="M0 0h.391v32H0z" class="cls-2" data-name="사각형 20167" transform="translate(18.757)"/>
        </g>
    </g>
</svg>
