<svg xmlns="http://www.w3.org/2000/svg" id="_24px_1_" width="48" height="48" data-name="24px (1)" viewBox="0 0 48 48">
    <defs>
        <style>
            .cls-1{fill:#888}.cls-2{fill:none}
        </style>
    </defs>
    <path id="패스_52107" d="M35 12v5.98s-3.98.02-4 0V12h-6s.02-3.98 0-4h6V2h4v6h6v4zm-6 8v-6h-6V8H7a4.012 4.012 0 0 0-4 4v24a4.012 4.012 0 0 0 4 4h24a4.012 4.012 0 0 0 4-4V20zM7 36l6-8 4 6 6-8 8 10z" class="cls-1" data-name="패스 52107" transform="translate(3 2)"/>
    <path id="패스_52108" d="M0 0h48v48H0z" class="cls-2" data-name="패스 52108"/>
</svg>
