<svg xmlns="http://www.w3.org/2000/svg" id="baseline-notifications_active-24px" width="24" height="24" viewBox="0 0 24 24">
    <defs>
        <style>
            .cls-1{fill:none}.cls-2{fill:#fff}
        </style>
    </defs>
    <path id="패스_440" d="M0 0h24v24H0z" class="cls-1" data-name="패스 440"/>
    <path id="패스_441" d="M7.58 4.08L6.15 2.65a10.425 10.425 0 0 0-4.12 7.85h2a8.446 8.446 0 0 1 3.55-6.42zm12.39 6.42h2a10.489 10.489 0 0 0-4.12-7.85l-1.42 1.43a8.5 8.5 0 0 1 3.54 6.42zM18 11c0-3.07-1.64-5.64-4.5-6.32V4a1.5 1.5 0 0 0-3 0v.68C7.63 5.36 6 7.92 6 11v5l-2 2v1h16v-1l-2-2zm-6 11a1.752 1.752 0 0 0 .4-.04 2.029 2.029 0 0 0 1.44-1.18 2.008 2.008 0 0 0 .15-.78h-4A2.014 2.014 0 0 0 12 22z" class="cls-2" data-name="패스 441"/>
</svg>
