<svg xmlns="http://www.w3.org/2000/svg" width="24" height="24" viewBox="0 0 24 24">
    <defs>
        <style>
            .cls-1,.cls-4{fill:none}.cls-2{fill:#fff}.cls-3{clip-path:url(#clip-path)}.cls-4{font-size:1px;font-family:NotoSansKR-Regular,Noto Sans KR Regular}
        </style>
        <clipPath id="clip-path">
            <path d="M0 0h24v24H0z" class="cls-1"/>
        </clipPath>
    </defs>
    <g id="그룹_13805" data-name="그룹 13805" transform="translate(-663 -651)">
        <path id="ic_settings_remote_24px" d="M15 9H9a1 1 0 0 0-1 1v12a1 1 0 0 0 1 1h6a1 1 0 0 0 1-1V10a1 1 0 0 0-1-1zm-3 6a2 2 0 1 1 2-2 2.006 2.006 0 0 1-2 2zM7.05 6.05l1.41 1.41a5.022 5.022 0 0 1 7.08 0l1.41-1.41a7 7 0 0 0-9.9 0zM12 0a10.965 10.965 0 0 0-7.78 3.22l1.41 1.41a9.005 9.005 0 0 1 12.73.01l1.41-1.41A10.892 10.892 0 0 0 12 0z" class="cls-2" transform="translate(662.78 652)"/>
        <g id="_24" class="cls-3" data-name="24" transform="translate(663 651)">
            <path id="사각형_21" d="M0 0h24v24H0z" class="cls-1" data-name="사각형 21"/>
            <text id="_24-2" class="cls-4" data-name="24" transform="translate(4 3)">
                <tspan x="0" y="0">24</tspan>
            </text>
        </g>
    </g>
</svg>
