<svg xmlns="http://www.w3.org/2000/svg" id="baseline-delete_forever-24px" width="48" height="48" viewBox="0 0 48 48">
    <defs>
        <style>
            .cls-1{fill:none}.cls-2{fill:#fff}
        </style>
    </defs>
    <path id="패스_1890" d="M0 0h48v48H0z" class="cls-1" data-name="패스 1890"/>
    <path id="패스_1891" d="M7 35a4.012 4.012 0 0 0 4 4h16a4.012 4.012 0 0 0 4-4V11H7zm4.92-14.24l2.82-2.82L19 22.18l4.24-4.24 2.82 2.82L21.82 25l4.24 4.24-2.82 2.82L19 27.82l-4.24 4.24-2.82-2.82L16.18 25zM26 5l-2-2H14l-2 2H5v4h28V5z" class="cls-2" data-name="패스 1891" transform="translate(5 3)"/>
    <path id="패스_1892" d="M0 0h48v48H0z" class="cls-1" data-name="패스 1892"/>
</svg>
