<svg xmlns="http://www.w3.org/2000/svg" width="32" height="32" viewBox="0 0 32 32">
    <defs>
        <style>
            .cls-1{fill:#fff}.cls-2{fill:none}
        </style>
    </defs>
    <g id="그룹_18272" data-name="그룹 18272" transform="translate(-497 -291)">
        <g id="recycle" transform="translate(491.091 294)">
            <g id="그룹_18269" data-name="그룹 18269" transform="translate(12.909 -.001)">
                <path id="패스_70442" d="M24.779 3.346V.393a.4.4 0 0 0-.616-.328L16 5.557a.4.4 0 0 0-.173.327.391.391 0 0 0 .173.327l8.154 5.49a.394.394 0 0 0 .616-.326V8.2a29.339 29.339 0 0 1 3.23.17c4.243.505 5.377 3.051 5.424 3.159a.39.39 0 0 0 .363.239.323.323 0 0 0 .076-.007.394.394 0 0 0 .317-.385c.004-6.43-7.631-7.8-9.401-8.03z" class="cls-1" data-name="패스 70442" transform="translate(-15.054 .001)"/>
                <path id="패스_70443" d="M31.088 59.039l-8.156-5.489a.4.4 0 0 0-.4-.025.4.4 0 0 0-.208.35v3.175a29.319 29.319 0 0 1-3.229-.171c-4.245-.5-5.38-3.05-5.424-3.158a.393.393 0 0 0-.363-.239.327.327 0 0 0-.078.007.393.393 0 0 0-.317.386c0 6.429 7.635 7.8 9.407 8.032v2.953a.4.4 0 0 0 .614.327l8.158-5.49a.4.4 0 0 0 .174-.328.39.39 0 0 0-.178-.33z" class="cls-1" data-name="패스 70443" transform="translate(-12.909 -39.252)"/>
            </g>
        </g>
        <path id="사각형_39236" d="M0 0h32v32H0z" class="cls-2" data-name="사각형 39236" transform="translate(497 291)"/>
    </g>
</svg>
