<svg xmlns="http://www.w3.org/2000/svg" width="24" height="24" viewBox="0 0 24 24">
    <defs>
        <style>
            .cls-1{fill:#747474}
        </style>
    </defs>
    <path id="Selection_Control_Radio_Off_Enabled" d="M17-328a12 12 0 0 0-12 12 12 12 0 0 0 12 12 12 12 0 0 0 12-12 12 12 0 0 0-12-12zm0 21.6a9.6 9.6 0 0 1-9.6-9.6 9.6 9.6 0 0 1 9.6-9.6 9.6 9.6 0 0 1 9.6 9.6 9.6 9.6 0 0 1-9.6 9.6z" class="cls-1" data-name="Selection Control / Radio / Off / Enabled" transform="translate(-5 328)"/>
</svg>
